<svg viewBox="0 0 512 384" xmlns="http://www.w3.org/2000/svg">
<defs><linearGradient x1="0" y1="258" x2="0" y2="366" gradientUnits="userSpaceOnUse" id="elsewhere-base-g0"><stop offset="0" stop-color="{{earth_deep}}"/><stop offset="1" stop-color="{{earth_deep}}" stop-opacity="0.92"/></linearGradient><linearGradient x1="0" y1="228" x2="0" y2="276" gradientUnits="userSpaceOnUse" id="elsewhere-base-g1"><stop offset="0" stop-color="{{earth_mid}}"/><stop offset="1" stop-color="{{earth_deep}}"/></linearGradient><linearGradient x1="0" y1="216" x2="0" y2="240" gradientUnits="userSpaceOnUse" id="elsewhere-base-g2"><stop offset="0" stop-color="{{earth_mid}}"/><stop offset="1" stop-color="{{earth_deep}}"/></linearGradient></defs>
<path d="M353.52 227.72C344.67 229.28 323.57 230.37 307.52 231.2C291.47 232.02 275.26 232.51 257.21 232.68C239.16 232.86 217.27 232.98 199.23 232.25C181.18 231.51 153.46 229.88 148.93 228.28C144.41 226.69 163.88 224.37 172.08 222.66C180.28 220.96 184.36 218.93 198.14 218.04C211.93 217.16 235.34 217.44 254.8 217.35C274.25 217.26 297.23 216.75 314.87 217.49C332.51 218.23 354.2 220.09 360.64 221.79C367.08 223.5 362.38 226.15 353.52 227.72Z" fill="{{glow}}" opacity="0.18" transform="translate(-3 -3)"/>
<path d="M200 268C183.33 270.55 208.64 278.42 211.98 283.3C215.31 288.17 216.83 291.62 220 297.26C223.16 302.91 227.9 311.42 230.96 317.15C234.01 322.87 235.46 326.24 238.32 331.63C241.19 337.02 244.53 343.76 248.16 349.49C251.79 355.22 257.47 365.88 260.09 366C262.7 366.12 261.57 355.71 263.84 350.23C266.1 344.74 270.81 338.64 273.68 333.08C276.54 327.51 277.99 321.58 281.04 316.84C284.1 312.09 288.84 309.76 292 304.6C295.17 299.45 296.69 291.99 300.02 285.89C303.36 279.79 328.67 270.98 312 268C295.33 265.02 216.67 265.45 200 268Z" fill="url(#elsewhere-base-g0)"/>
<path d="M337.88 257.65C332.32 262.19 324.61 268.01 311.15 270.34C297.69 272.68 274.36 271.88 257.11 271.65C239.87 271.43 219.37 271.4 207.68 268.99C195.99 266.57 193.35 261.34 186.98 257.17C180.6 253 166.52 248.01 169.43 243.97C172.33 239.93 190.15 234.84 204.42 232.91C218.68 230.97 238.11 232.43 254.99 232.36C271.88 232.29 290.83 230.69 305.74 232.48C320.66 234.27 339.14 238.89 344.5 243.09C349.85 247.28 343.43 253.11 337.88 257.65Z" fill="url(#elsewhere-base-g1)"/>
<path d="M353.52 227.72C344.67 229.28 323.57 230.37 307.52 231.2C291.47 232.02 275.26 232.51 257.21 232.68C239.16 232.86 217.27 232.98 199.23 232.25C181.18 231.51 153.46 229.88 148.93 228.28C144.41 226.69 163.88 224.37 172.08 222.66C180.28 220.96 184.36 218.93 198.14 218.04C211.93 217.16 235.34 217.44 254.8 217.35C274.25 217.26 297.23 216.75 314.87 217.49C332.51 218.23 354.2 220.09 360.64 221.79C367.08 223.5 362.38 226.15 353.52 227.72Z" fill="url(#elsewhere-base-g2)"/>
<path d="M280.49 303.89C286.48 315.6 295.48 324.37 292.48 333.15C295.98 326.37 288.98 317.6 282.99 304.89Z" fill="{{earth_deep}}" opacity="0.85"/>
<path d="M267.6 284.86C269.84 300.02 273.21 311.38 272.09 322.75C274.65 313.38 272.34 302.02 270.1 285.86Z" fill="{{earth_deep}}" opacity="0.85"/>
</svg>
