<svg viewBox="0 0 512 384" xmlns="http://www.w3.org/2000/svg">
<path d="M170.37 237.38C171.17 229.12 168.57 224.17 167.57 220.86C168.57 225.82 172.17 232.42 173.17 237.38Z" fill="{{green_deep}}"/>
<path d="M171.57 237.38C172.67 227.47 169 221.52 168.5 217.55C169.5 223.5 173.87 231.43 174.37 237.38Z" fill="{{green_deep}}"/>
<path d="M172.77 237.38C174.17 226.95 173.15 220.7 173.15 216.52C174.15 222.78 175.57 231.12 175.57 237.38Z" fill="{{green_deep}}"/>
<path d="M173.97 237.38C175.67 227.64 176.53 221.8 177.03 217.91C178.03 223.75 177.27 231.54 176.77 237.38Z" fill="{{green_deep}}"/>
<path d="M175.17 237.38C177.17 231.38 180.08 227.77 181.08 225.37C182.08 228.98 178.97 233.78 177.97 237.38Z" fill="{{green_deep}}"/>
<path d="M247.97 242.89C248.77 235.8 243.18 231.54 242.18 228.7C243.18 232.96 249.77 238.63 250.77 242.89Z" fill="{{green_deep}}"/>
<path d="M250.37 242.89C251.77 233.57 252.51 227.98 252.51 224.25C253.51 229.84 253.17 237.3 253.17 242.89Z" fill="{{green_deep}}"/>
<path d="M252.77 242.89C254.77 234.35 260.84 229.22 261.84 225.81C262.84 230.93 256.57 237.77 255.57 242.89Z" fill="{{green_deep}}"/>
<path d="M336.42 239.2C337.22 228.79 333.6 222.54 332.6 218.38C333.6 224.63 338.22 232.95 339.22 239.2Z" fill="{{green_deep}}"/>
<path d="M337.62 239.2C338.72 229.3 335.39 223.36 334.89 219.4C335.89 225.34 339.92 233.26 340.42 239.2Z" fill="{{green_deep}}"/>
<path d="M338.82 239.2C340.22 231.29 338.46 226.54 338.46 223.37C339.46 228.12 341.62 234.45 341.62 239.2Z" fill="{{green_deep}}"/>
<path d="M340.02 239.2C341.72 229.01 344.35 222.9 344.85 218.82C345.85 224.94 343.32 233.08 342.82 239.2Z" fill="{{green_deep}}"/>
<path d="M341.22 239.2C343.22 228.26 347.38 221.69 348.38 217.32C349.38 223.88 345.02 232.63 344.02 239.2Z" fill="{{green_deep}}"/>
<circle cx="294.67" cy="211.96" r="1.12" fill="{{glow}}" opacity="0.64"/>
<circle cx="332.74" cy="226.4" r="2.6" fill="{{glow}}" opacity="0.64"/>
<circle cx="235.55" cy="199.72" r="1.67" fill="{{glow}}" opacity="0.63"/>
<circle cx="356.38" cy="227.75" r="1.17" fill="{{glow}}" opacity="0.5"/>
<circle cx="316.02" cy="223.04" r="1.14" fill="{{glow}}" opacity="0.53"/>
<circle cx="307.34" cy="216.37" r="2.23" fill="{{glow}}" opacity="0.54"/>
<circle cx="201.88" cy="186.11" r="1.11" fill="{{glow}}" opacity="0.44"/>
</svg>
