<svg viewBox="0 0 512 384" xmlns="http://www.w3.org/2000/svg">
<defs><linearGradient x1="0" y1="212" x2="0" y2="240" gradientUnits="userSpaceOnUse" id="elsewhere-mid-g0"><stop offset="0" stop-color="{{green_deep}}"/><stop offset="1" stop-color="{{earth_deep}}"/></linearGradient><linearGradient x1="0" y1="200.87" x2="0" y2="225.3" gradientUnits="userSpaceOnUse" id="elsewhere-mid-g1"><stop offset="0" stop-color="{{green_mid}}"/><stop offset="1" stop-color="{{green_deep}}"/></linearGradient><linearGradient x1="0" y1="189.28" x2="0" y2="221.32" gradientUnits="userSpaceOnUse" id="elsewhere-mid-g2"><stop offset="0" stop-color="{{green_mid}}"/><stop offset="1" stop-color="{{green_deep}}"/></linearGradient><linearGradient x1="0" y1="200.46" x2="0" y2="224.03" gradientUnits="userSpaceOnUse" id="elsewhere-mid-g3"><stop offset="0" stop-color="{{green_mid}}"/><stop offset="1" stop-color="{{green_deep}}"/></linearGradient></defs>
<path d="M333.11 227.1C327.72 228.71 327.55 230.86 314.92 231.93C302.3 233.01 276.94 233.49 257.38 233.55C237.81 233.61 212.7 233.28 197.55 232.3C182.4 231.32 172.73 229.34 166.47 227.69C160.21 226.03 153.44 223.82 159.97 222.38C166.5 220.95 189.87 220.07 205.64 219.08C221.42 218.08 237 216.59 254.62 216.42C272.24 216.26 295.93 217.11 311.38 218.09C326.82 219.06 343.66 220.76 347.28 222.26C350.9 223.76 338.5 225.49 333.11 227.1Z" fill="url(#elsewhere-mid-g0)"/>
<path d="M268.97 229C270.6 230.67 273.07 233.24 262.92 234.4C252.77 235.57 226.27 235.78 208.09 236.01C189.9 236.24 169.67 236.47 153.83 235.78C137.99 235.08 119.81 233.44 113.03 231.83C106.25 230.23 105.65 227.66 113.15 226.17C120.65 224.68 141.84 223.82 158.05 222.92C174.27 222.01 194.6 220.47 210.45 220.72C226.31 220.96 243.41 222.99 253.16 224.37C262.92 225.75 267.35 227.33 268.97 229Z" fill="{{cloud}}" opacity="0.41"/>
<path d="M298.95 236C298.28 237.5 279.21 239.26 263.61 240.39C248 241.52 226.53 242.51 205.31 242.8C184.1 243.1 157.29 242.87 136.33 242.19C115.36 241.51 87.03 240.17 79.54 238.73C72.05 237.29 83.2 235.21 91.4 233.57C99.6 231.93 109.48 229.74 128.74 228.9C148 228.07 183.83 228.13 206.98 228.54C230.13 228.95 252.31 230.13 267.64 231.38C282.97 232.62 299.62 234.5 298.95 236Z" fill="{{cloud}}" opacity="0.31"/>
<path d="M350.79 243C351.02 244.21 336.61 245.78 325.74 246.68C314.86 247.59 299.81 248.19 285.54 248.42C271.27 248.65 253.94 248.6 240.11 248.07C226.28 247.54 208.8 246.45 202.57 245.23C196.34 244.02 196.95 242.06 202.72 240.77C208.5 239.48 223.34 238.06 237.2 237.5C251.06 236.94 271.33 237.11 285.86 237.43C300.38 237.75 313.54 238.49 324.37 239.42C335.19 240.34 350.57 241.79 350.79 243Z" fill="{{cloud}}" opacity="0.33"/>
<path d="M214.02 227C213.62 209.55 216.22 204.4 215.82 199.25L217.22 200.25C217.82 212.13 216.82 225 216.62 227Z" fill="{{green_deep}}"/>
<circle cx="216.02" cy="197.25" r="4" fill="{{glow}}" opacity="0.85"/>
<path d="M228.09 227C227.69 214.18 230.29 210.57 229.89 206.97L231.29 207.97C231.89 215.98 230.89 225 230.69 227Z" fill="{{green_deep}}"/>
<circle cx="230.09" cy="204.97" r="3.22" fill="{{glow}}" opacity="0.85"/>
<path d="M215.33 218.09C215.27 220.37 211.2 223.05 208.34 224.84C205.48 226.63 201.83 228.41 198.17 228.8C194.5 229.2 190.47 228.21 186.34 227.22C182.2 226.23 175.35 225.15 173.36 222.87C171.37 220.58 172.69 216.34 174.39 213.53C176.09 210.73 179.57 207.14 183.56 206.04C187.54 204.93 194.12 206.04 198.31 206.89C202.49 207.75 205.83 209.3 208.67 211.17C211.51 213.03 215.38 215.81 215.33 218.09Z" fill="{{green_deep}}" opacity="0.64"/>
<path d="M211.2 213.09C211.56 215.57 209.48 218.74 206.81 221.1C204.14 223.46 199.64 226.66 195.17 227.26C190.7 227.85 183.92 226.33 179.99 224.68C176.06 223.03 173.35 220.1 171.59 217.38C169.82 214.65 167.71 210.67 169.39 208.32C171.07 205.96 177.48 204.43 181.67 203.25C185.85 202.07 190.68 200.73 194.5 201.22C198.33 201.71 201.84 204.21 204.63 206.19C207.41 208.16 210.84 210.6 211.2 213.09Z" fill="url(#elsewhere-mid-g1)" opacity="0.8"/>
<path d="M193.83 208.2C193.81 209.6 193.78 211.63 192.17 212.36C190.55 213.09 186.61 212.91 184.14 212.59C181.67 212.27 178.52 211.55 177.36 210.44C176.2 209.33 176.1 207.16 177.17 205.91C178.23 204.66 181.24 203.25 183.76 202.92C186.29 202.6 190.63 203.06 192.31 203.94C193.99 204.82 193.86 206.8 193.83 208.2Z" fill="{{glow}}" opacity="0.14"/>
<path d="M292.72 210.3C292.4 213.53 285.45 217.08 281.33 219.47C277.21 221.86 273.24 223.58 267.99 224.63C262.73 225.68 254.93 227.13 249.79 225.76C244.65 224.4 238.33 219.83 237.16 216.44C235.99 213.06 240.2 208.54 242.76 205.44C245.32 202.34 248.34 199.34 252.52 197.82C256.71 196.3 262.76 195.95 267.88 196.33C273.01 196.71 279.11 197.79 283.25 200.12C287.39 202.45 293.04 207.08 292.72 210.3Z" fill="{{green_deep}}" opacity="0.64"/>
<path d="M287.96 205.3C288.59 208.84 285.95 214.44 281.98 216.93C278.01 219.42 270.1 219.7 264.16 220.24C258.22 220.79 251.05 221.74 246.33 220.17C241.61 218.6 237.22 214.14 235.85 210.83C234.47 207.51 235.99 203.3 238.09 200.29C240.2 197.28 244.07 194.64 248.48 192.77C252.88 190.9 259.57 188.58 264.52 189.07C269.47 189.55 274.25 192.99 278.16 195.69C282.07 198.4 287.32 201.76 287.96 205.3Z" fill="url(#elsewhere-mid-g2)" opacity="0.8"/>
<path d="M263.29 198.89C263.39 200.37 262.21 202.69 260.24 203.55C258.28 204.41 254.67 204.28 251.51 204.06C248.34 203.84 242.48 203.51 241.25 202.23C240.02 200.94 242.51 198.03 244.11 196.33C245.71 194.64 248.25 192.35 250.83 192.08C253.42 191.8 257.54 193.54 259.62 194.68C261.7 195.81 263.18 197.42 263.29 198.89Z" fill="{{glow}}" opacity="0.14"/>
<path d="M342.14 217.25C341.33 219.83 337.24 222.37 333.63 224.02C330.02 225.66 325.04 226.78 320.47 227.12C315.91 227.47 310.16 227.14 306.25 226.07C302.34 225.01 298.59 222.77 297.03 220.71C295.47 218.66 295.91 216.28 296.88 213.75C297.84 211.23 298.71 207.11 302.82 205.56C306.93 204.02 315.59 204 321.53 204.49C327.47 204.99 335.01 206.41 338.45 208.53C341.88 210.66 342.94 214.67 342.14 217.25Z" fill="{{green_deep}}" opacity="0.64"/>
<path d="M333.59 212.25C333.14 214.89 333.81 217.45 331.16 219.63C328.5 221.82 322.51 225.08 317.66 225.36C312.8 225.63 307.04 222.71 302.02 221.27C296.99 219.82 289.25 218.81 287.51 216.68C285.76 214.56 289.08 210.72 291.55 208.52C294.01 206.32 298.02 204.86 302.31 203.47C306.6 202.08 312.02 200.13 317.27 200.19C322.53 200.24 331.12 201.77 333.84 203.78C336.56 205.79 334.04 209.6 333.59 212.25Z" fill="url(#elsewhere-mid-g3)" opacity="0.8"/>
<path d="M317.95 207.53C317.97 208.75 315.96 210.37 313.63 211.23C311.29 212.1 306.83 212.98 303.95 212.72C301.07 212.46 297.36 210.83 296.37 209.66C295.38 208.5 296.74 206.96 298.01 205.74C299.27 204.52 301.38 202.66 303.96 202.36C306.53 202.06 311.13 203.06 313.46 203.92C315.79 204.78 317.92 206.31 317.95 207.53Z" fill="{{glow}}" opacity="0.14"/>
</svg>
