<svg viewBox="0 0 512 384" xmlns="http://www.w3.org/2000/svg">
<defs><linearGradient x1="0" y1="256" x2="0" y2="360" gradientUnits="userSpaceOnUse" id="sky-base-g0"><stop offset="0" stop-color="{{earth_deep}}"/><stop offset="1" stop-color="{{earth_deep}}" stop-opacity="0.92"/></linearGradient><linearGradient x1="0" y1="224" x2="0" y2="274" gradientUnits="userSpaceOnUse" id="sky-base-g1"><stop offset="0" stop-color="{{earth_mid}}"/><stop offset="1" stop-color="{{earth_deep}}"/></linearGradient><linearGradient x1="0" y1="210" x2="0" y2="236" gradientUnits="userSpaceOnUse" id="sky-base-g2"><stop offset="0" stop-color="{{earth_mid}}"/><stop offset="1" stop-color="{{earth_deep}}"/></linearGradient></defs>
<path d="M361.24 222.6C356.19 224.38 346.59 226.72 329.33 227.84C312.06 228.96 282.65 229.19 257.65 229.34C232.66 229.48 200.6 229.68 179.35 228.7C158.1 227.71 137.6 225.38 130.16 223.43C122.71 221.48 125.32 218.81 134.69 217C144.05 215.18 166.39 213.65 186.32 212.55C206.26 211.45 230.53 210.54 254.3 210.4C278.07 210.26 311.4 210.59 328.95 211.72C346.5 212.85 354.21 215.36 359.59 217.18C364.97 218.99 366.28 220.83 361.24 222.6Z" fill="{{glow}}" opacity="0.18" transform="translate(-3 -3)"/>
<path d="M186 266C164.55 269.16 193.5 279.7 197.29 284.93C201.08 290.17 204.64 292.26 208.74 297.4C212.85 302.55 217.89 310.95 221.92 315.81C225.96 320.66 229.05 321.67 232.94 326.54C236.83 331.41 241.99 339.43 245.26 345.01C248.54 350.59 248.99 360.51 252.57 360C256.15 359.49 262.32 347.8 266.74 341.95C271.15 336.1 275.17 329.92 279.06 324.9C282.95 319.87 286.04 316.63 290.08 311.81C294.11 306.99 299.15 301.34 303.26 295.97C307.36 290.61 310.92 284.63 314.71 279.63C318.5 274.64 347.45 268.27 326 266C304.55 263.73 207.45 262.84 186 266Z" fill="url(#sky-base-g0)"/>
<path d="M354.98 254.74C348.45 258.54 326.12 260.64 309.91 263.85C293.69 267.05 276.27 273.59 257.67 273.95C239.07 274.31 216.62 268.97 198.32 266C180.02 263.02 156 260.31 147.88 256.1C139.76 251.9 141.96 245.17 149.58 240.76C157.19 236.35 176.09 232.47 193.57 229.65C211.04 226.82 235.79 223.33 254.44 223.81C273.1 224.3 289.74 229.68 305.51 232.55C321.28 235.42 340.81 237.33 349.06 241.03C357.3 244.72 361.5 250.93 354.98 254.74Z" fill="url(#sky-base-g1)"/>
<path d="M361.24 222.6C356.19 224.38 346.59 226.72 329.33 227.84C312.06 228.96 282.65 229.19 257.65 229.34C232.66 229.48 200.6 229.68 179.35 228.7C158.1 227.71 137.6 225.38 130.16 223.43C122.71 221.48 125.32 218.81 134.69 217C144.05 215.18 166.39 213.65 186.32 212.55C206.26 211.45 230.53 210.54 254.3 210.4C278.07 210.26 311.4 210.59 328.95 211.72C346.5 212.85 354.21 215.36 359.59 217.18C364.97 218.99 366.28 220.83 361.24 222.6Z" fill="url(#sky-base-g2)"/>
<path d="M274.77 315.42C278.1 326.41 283.09 334.65 281.42 342.9C284.25 336.65 280.6 328.41 277.27 316.42Z" fill="{{earth_deep}}" opacity="0.85"/>
</svg>
