<svg viewBox="0 0 512 384" xmlns="http://www.w3.org/2000/svg">
<path d="M148.13 236.81C148.93 230.22 143.58 226.28 142.58 223.64C143.58 227.59 149.93 232.86 150.93 236.81Z" fill="{{green_deep}}"/>
<path d="M149.73 236.81C150.93 229.42 147.91 224.99 147.58 222.04C148.58 226.47 152.2 232.38 152.53 236.81Z" fill="{{green_deep}}"/>
<path d="M151.33 236.81C152.93 230.04 152.99 225.98 153.32 223.27C154.32 227.33 154.46 232.75 154.13 236.81Z" fill="{{green_deep}}"/>
<path d="M152.93 236.81C154.93 229.39 159.83 224.93 160.83 221.96C161.83 226.42 156.73 232.35 155.73 236.81Z" fill="{{green_deep}}"/>
<path d="M247.71 230.67C248.51 222.24 246.54 217.18 245.54 213.8C246.54 218.86 249.51 225.61 250.51 230.67Z" fill="{{green_deep}}"/>
<path d="M248.91 230.67C250.01 221.37 248.78 215.8 248.28 212.08C249.28 217.65 251.21 225.09 251.71 230.67Z" fill="{{green_deep}}"/>
<path d="M250.11 230.67C251.51 223.31 252.97 218.9 252.97 215.96C253.97 220.37 252.91 226.25 252.91 230.67Z" fill="{{green_deep}}"/>
<path d="M251.31 230.67C253.01 223.3 254.45 218.89 254.95 215.94C255.95 220.36 254.61 226.25 254.11 230.67Z" fill="{{green_deep}}"/>
<path d="M252.51 230.67C254.51 221.4 258.04 215.83 259.04 212.12C260.04 217.69 256.31 225.1 255.31 230.67Z" fill="{{green_deep}}"/>
<path d="M357.76 233.44C358.56 223.34 353.95 217.27 352.95 213.23C353.95 219.29 359.56 227.38 360.56 233.44Z" fill="{{green_deep}}"/>
<path d="M358.96 233.44C360.06 227.46 357.37 223.87 356.87 221.48C357.87 225.07 361.26 229.85 361.76 233.44Z" fill="{{green_deep}}"/>
<path d="M360.16 233.44C361.56 227.09 359.75 223.28 359.75 220.74C360.75 224.55 362.96 229.63 362.96 233.44Z" fill="{{green_deep}}"/>
<path d="M361.36 233.44C363.06 224.61 364.9 219.31 365.4 215.77C366.4 221.07 364.66 228.14 364.16 233.44Z" fill="{{green_deep}}"/>
<path d="M362.56 233.44C364.56 222.53 371.08 215.98 372.08 211.62C373.08 218.17 366.36 226.9 365.36 233.44Z" fill="{{green_deep}}"/>
<path d="M203.15 248C203.49 252.03 197.35 257.5 187.41 260.37C177.47 263.25 157.85 265.35 143.5 265.27C129.15 265.19 109.88 262.78 101.28 259.9C92.68 257.02 91.47 251.84 91.92 248C92.36 244.16 95.37 239.6 103.97 236.86C112.57 234.12 129.93 231.69 143.5 231.58C157.07 231.47 175.42 233.47 185.37 236.2C195.31 238.94 202.81 243.97 203.15 248Z" fill="{{cloud}}" opacity="0.82"/>
<path d="M411.28 248C411.47 251.62 408.99 256.76 401.86 259.04C394.73 261.32 378.99 261.88 368.5 261.67C358.01 261.47 346.89 260.08 338.89 257.8C330.89 255.52 320.14 251.15 320.49 248C320.85 244.85 333.03 241.52 341.03 238.91C349.03 236.29 358.55 232.58 368.5 232.32C378.45 232.05 393.6 234.72 400.73 237.33C407.86 239.95 411.1 244.38 411.28 248Z" fill="{{cloud}}" opacity="0.82"/>
</svg>
