<svg viewBox="0 0 512 384" xmlns="http://www.w3.org/2000/svg">
<defs><linearGradient x1="0" y1="206" x2="0" y2="236" gradientUnits="userSpaceOnUse" id="sky-mid-g0"><stop offset="0" stop-color="{{green_mid}}"/><stop offset="1" stop-color="{{green_deep}}"/></linearGradient><linearGradient x1="0" y1="184.57" x2="0" y2="211.13" gradientUnits="userSpaceOnUse" id="sky-mid-g1"><stop offset="0" stop-color="{{green_mid}}"/><stop offset="1" stop-color="{{green_deep}}"/></linearGradient><linearGradient x1="0" y1="188.57" x2="0" y2="222.27" gradientUnits="userSpaceOnUse" id="sky-mid-g2"><stop offset="0" stop-color="{{green_mid}}"/><stop offset="1" stop-color="{{green_deep}}"/></linearGradient><linearGradient x1="0" y1="183.18" x2="0" y2="214.21" gradientUnits="userSpaceOnUse" id="sky-mid-g3"><stop offset="0" stop-color="{{green_mid}}"/><stop offset="1" stop-color="{{green_deep}}"/></linearGradient></defs>
<path d="M357.83 222.47C354.15 224.22 348.42 226.68 331.75 227.92C315.07 229.16 281.65 229.99 257.79 229.92C233.94 229.85 208.46 228.61 188.62 227.48C168.77 226.35 144.31 224.78 138.73 223.13C133.15 221.47 146.57 219.23 155.15 217.56C163.74 215.89 173.69 214.15 190.24 213.12C206.78 212.09 233.66 211.32 254.44 211.38C275.22 211.44 298.38 212.46 314.94 213.46C331.5 214.46 346.64 215.89 353.79 217.39C360.94 218.89 361.5 220.71 357.83 222.47Z" fill="url(#sky-mid-g0)"/>
<path d="M428.21 240.41C429.33 242.57 429.76 246.45 424.5 247.78C419.23 249.1 404.99 248.61 396.61 248.36C388.23 248.12 380.33 247.65 374.22 246.33C368.1 245 360.65 242.57 359.95 240.41C359.24 238.26 363.86 235.13 369.97 233.38C376.08 231.63 388.65 229.65 396.61 229.89C404.57 230.14 412.48 233.08 417.75 234.83C423.02 236.59 427.09 238.26 428.21 240.41Z" fill="{{cloud}}" opacity="0.76"/>
<path d="M330.66 246.56C330.73 249.01 324.63 251.84 319.72 253.99C314.8 256.14 308.16 259.14 301.16 259.47C294.16 259.79 282.93 258.1 277.72 255.94C272.51 253.79 269.68 249.6 269.9 246.56C270.12 243.52 273.82 239.93 279.03 237.7C284.24 235.46 294.46 232.87 301.16 233.14C307.87 233.41 314.35 237.07 319.27 239.31C324.18 241.55 330.58 244.11 330.66 246.56Z" fill="{{cloud}}" opacity="0.79"/>
<path d="M191.07 242.7C191.51 245.5 192.23 249.71 187.49 251.56C182.75 253.41 170.39 254 162.62 253.81C154.85 253.63 145.68 252.3 140.88 250.45C136.08 248.6 133.42 245.15 133.81 242.7C134.19 240.26 138.37 237.74 143.17 235.78C147.97 233.82 155.67 231.11 162.62 230.94C169.57 230.77 180.15 232.81 184.89 234.77C189.63 236.73 190.64 239.91 191.07 242.7Z" fill="{{cloud}}" opacity="0.85"/>
<path d="M155.01 230.86C154.63 233.55 155.38 236.74 151.66 238.48C147.94 240.22 139.21 241.22 132.69 241.3C126.17 241.38 116.94 240.68 112.56 238.94C108.18 237.2 105.71 233.27 106.41 230.86C107.11 228.45 112.38 226.06 116.76 224.47C121.14 222.87 126.49 221.66 132.69 221.3C138.89 220.95 150.22 220.74 153.94 222.33C157.66 223.92 155.39 228.17 155.01 230.86Z" fill="{{cloud}}" opacity="0.8"/>
<path d="M274.24 220.54C274.56 222.68 271.18 225.62 265.87 227.23C260.57 228.84 250.98 229.99 242.41 230.21C233.84 230.42 221.11 230.12 214.46 228.51C207.81 226.89 201.4 222.88 202.49 220.54C203.59 218.2 214.39 215.89 221.04 214.46C227.7 213.02 235.26 211.95 242.41 211.94C249.55 211.94 258.62 212.98 263.92 214.41C269.23 215.85 273.91 218.41 274.24 220.54Z" fill="{{cloud}}" opacity="0.82"/>
<path d="M355.2 226.3C354.94 229.14 350.19 232.52 346.05 234.41C341.91 236.29 335.89 237.44 330.37 237.59C324.85 237.74 316.37 237.2 312.92 235.32C309.46 233.44 309.62 229.3 309.63 226.3C309.65 223.3 309.57 219.53 313.03 217.34C316.48 215.14 324.6 213.14 330.37 213.15C336.14 213.16 343.49 215.18 347.63 217.38C351.77 219.57 355.46 223.46 355.2 226.3Z" fill="{{cloud}}" opacity="0.82"/>
<path d="M211.58 202.85C211.06 205.63 206.42 208.25 202.74 210.53C199.06 212.8 195.02 215.56 189.52 216.49C184.02 217.43 175.11 217.57 169.75 216.15C164.4 214.72 158.66 210.85 157.4 207.94C156.13 205.02 159.62 201.27 162.17 198.65C164.73 196.03 168.18 193.79 172.74 192.2C177.31 190.61 184.03 188.86 189.55 189.13C195.07 189.4 202.2 191.55 205.87 193.84C209.54 196.13 212.1 200.07 211.58 202.85Z" fill="{{green_deep}}" opacity="0.67"/>
<path d="M204.5 197.85C203.77 200.77 202.31 203.61 199.07 205.67C195.83 207.72 190.4 209.45 185.06 210.17C179.73 210.89 171.89 211.27 167.07 209.98C162.25 208.69 158.18 205.25 156.16 202.43C154.14 199.6 152.92 195.64 154.97 193.06C157.02 190.48 163.37 188.42 168.46 186.95C173.55 185.48 179.69 184.02 185.52 184.23C191.34 184.43 200.26 185.9 203.42 188.17C206.59 190.44 205.22 194.94 204.5 197.85Z" fill="url(#sky-mid-g1)" opacity="0.84"/>
<path d="M187.2 192.54C186.99 193.83 183.03 195.25 180.47 196.05C177.92 196.85 174.7 197.55 171.87 197.35C169.05 197.16 164.67 196.03 163.52 194.89C162.37 193.75 163.63 191.79 164.97 190.51C166.32 189.22 168.79 187.53 171.59 187.17C174.39 186.8 179.16 187.4 181.76 188.3C184.37 189.19 187.42 191.25 187.2 192.54Z" fill="{{glow}}" opacity="0.14"/>
<path d="M280.91 210.42C280.41 213.8 276.65 217.27 273.58 219.6C270.51 221.92 266.55 223.7 262.51 224.37C258.46 225.05 253.54 224.96 249.31 223.66C245.08 222.37 238.36 219.62 237.12 216.6C235.87 213.58 239.89 208.91 241.83 205.55C243.77 202.19 245.17 198.54 248.75 196.43C252.34 194.32 258.7 192.4 263.33 192.88C267.97 193.36 273.64 196.39 276.57 199.32C279.49 202.24 281.41 207.04 280.91 210.42Z" fill="{{green_deep}}" opacity="0.67"/>
<path d="M273.34 205.42C274.21 209.06 277.33 215.56 274.89 218.01C272.45 220.46 263.65 219.97 258.68 220.12C253.71 220.28 248.67 220.57 245.09 218.96C241.5 217.35 239.27 213.78 237.17 210.47C235.07 207.15 230.97 201.9 232.48 199.06C234 196.21 241.74 195.4 246.24 193.4C250.75 191.41 255.61 186.63 259.51 187.09C263.42 187.55 267.38 193.11 269.68 196.17C271.99 199.22 272.48 201.78 273.34 205.42Z" fill="url(#sky-mid-g2)" opacity="0.84"/>
<path d="M258.78 198.68C258.71 200.32 257.27 202.27 255.38 203.44C253.49 204.62 249.89 206.02 247.43 205.73C244.98 205.43 241.49 203.26 240.65 201.67C239.8 200.09 241.22 197.87 242.37 196.24C243.51 194.61 245.29 192.35 247.53 191.91C249.76 191.47 253.89 192.45 255.77 193.58C257.64 194.7 258.84 197.03 258.78 198.68Z" fill="{{glow}}" opacity="0.14"/>
<path d="M363.7 203.7C363.88 206.7 356.9 210.15 352.58 212.94C348.25 215.74 343.41 219.85 337.76 220.46C332.1 221.07 323.96 218.52 318.63 216.6C313.3 214.68 307.91 211.98 305.78 208.95C303.65 205.93 303.48 201.27 305.84 198.45C308.21 195.63 314.72 193.76 319.97 192.05C325.22 190.34 332.09 187.72 337.35 188.2C342.6 188.68 347.13 192.35 351.52 194.93C355.91 197.51 363.53 200.69 363.7 203.7Z" fill="{{green_deep}}" opacity="0.67"/>
<path d="M356.68 198.7C356.85 201.99 354.37 206.29 350.46 208.8C346.55 211.32 339.49 213.03 333.22 213.79C326.94 214.54 317.28 215.12 312.8 213.33C308.32 211.54 308.58 206.45 306.33 203.05C304.08 199.65 297.83 195.76 299.28 192.94C300.73 190.13 309.5 187.35 315.04 186.17C320.57 184.99 326.75 185.37 332.49 185.85C338.22 186.33 345.43 186.9 349.46 189.04C353.49 191.19 356.51 195.4 356.68 198.7Z" fill="url(#sky-mid-g3)" opacity="0.84"/>
<path d="M332.35 192.49C331.86 194.13 330.26 195.32 327.84 196.52C325.42 197.71 320.55 199.95 317.82 199.66C315.09 199.36 312.91 196.42 311.46 194.76C310.02 193.09 307.91 190.91 309.13 189.68C310.35 188.44 315.17 187.85 318.78 187.35C322.38 186.86 328.51 185.83 330.77 186.68C333.03 187.54 332.84 190.85 332.35 192.49Z" fill="{{glow}}" opacity="0.14"/>
</svg>
