<svg viewBox="0 0 1024 640" xmlns="http://www.w3.org/2000/svg">
<defs><linearGradient x1="0" y1="156" x2="0" y2="640" gradientUnits="userSpaceOnUse" id="meadow-scene-far-g0"><stop offset="0" stop-color="{{green_mid}}"/><stop offset="1" stop-color="{{horizon}}"/></linearGradient><linearGradient x1="0" y1="222" x2="0" y2="640" gradientUnits="userSpaceOnUse" id="meadow-scene-far-g1"><stop offset="0" stop-color="{{green_mid}}"/><stop offset="1" stop-color="{{green_deep}}"/></linearGradient><linearGradient x1="0" y1="430" x2="0" y2="640" gradientUnits="userSpaceOnUse" id="meadow-scene-far-g2"><stop offset="0" stop-color="{{horizon}}" stop-opacity="0"/><stop offset="1" stop-color="{{horizon}}" stop-opacity="0.55"/></linearGradient></defs>
<ellipse cx="853.39" cy="138.39" rx="100.57" ry="17.38" fill="{{cloud}}" opacity="0.43"/>
<ellipse cx="823.22" cy="121.44" rx="42.24" ry="17.22" fill="{{cloud}}" opacity="0.41"/>
<ellipse cx="881.55" cy="127.48" rx="34.19" ry="16.27" fill="{{cloud}}" opacity="0.39"/>
<ellipse cx="399.56" cy="175.74" rx="113.95" ry="17.75" fill="{{cloud}}" opacity="0.37"/>
<ellipse cx="365.37" cy="163.19" rx="47.86" ry="21.08" fill="{{cloud}}" opacity="0.36"/>
<ellipse cx="431.46" cy="166.25" rx="38.74" ry="13.74" fill="{{cloud}}" opacity="0.34"/>
<ellipse cx="552.11" cy="114.56" rx="62.1" ry="15.59" fill="{{cloud}}" opacity="0.31"/>
<ellipse cx="533.48" cy="100.98" rx="26.08" ry="15.38" fill="{{cloud}}" opacity="0.29"/>
<ellipse cx="569.5" cy="104.27" rx="21.11" ry="13.73" fill="{{cloud}}" opacity="0.28"/>
<path d="M-16 253.2C-16 250.55 -33.6 247.74 -16 237.3C1.6 226.86 54.4 190.92 89.6 190.56C124.8 190.2 160 236.35 195.2 235.12C230.4 233.9 265.6 181.66 300.8 183.23C336 184.79 371.2 244.32 406.4 244.51C441.6 244.7 476.8 185.86 512 184.35C547.2 182.84 582.4 234.59 617.6 235.47C652.8 236.35 688 188.89 723.2 189.61C758.4 190.34 793.6 238.99 828.8 239.83C864 240.68 899.2 193.58 934.4 194.68C969.6 195.78 1022.4 236.69 1040 246.44C1057.6 256.19 1040 252.07 1040 253.2L1040 648L-16 648Z" fill="url(#meadow-scene-far-g0)" opacity="0.5"/>
<path d="M-16 351.6C-16 350.03 -38 354.63 -16 342.19C6 329.75 72 277.73 116 276.97C160 276.21 204 336.78 248 337.62C292 338.47 336 283.01 380 282.03C424 281.04 468 332.13 512 331.71C556 331.29 600 281.45 644 279.48C688 277.52 732 323.63 776 319.9C820 316.18 864 256.32 908 257.15C952 257.97 1018 309.13 1040 324.87C1062 340.61 1040 347.14 1040 351.6L1040 648L-16 648Z" fill="url(#meadow-scene-far-g1)" opacity="0.62"/>
<path d="M53.18 304.63C54.51 311.2 47.34 324.62 40.48 328.69C33.62 332.75 19.73 331.31 12.02 328.99C4.31 326.67 -1.57 321.04 -5.79 314.77C-10.02 308.49 -16.05 298.05 -13.34 291.33C-10.62 284.61 2.85 274.77 10.49 274.43C18.13 274.08 25.38 284.25 32.49 289.28C39.61 294.31 51.85 298.06 53.18 304.63Z" fill="{{green_deep}}" opacity="0.42"/>
<path d="M78.48 308.23C78.67 315.81 71.99 327.13 65 331.6C58.01 336.07 45.41 336.72 36.53 335.05C27.66 333.37 15.14 327.94 11.75 321.56C8.36 315.18 12.06 303.42 16.2 296.77C20.34 290.12 28.66 283.44 36.6 281.67C44.54 279.9 56.85 281.72 63.83 286.14C70.81 290.57 78.28 300.66 78.48 308.23Z" fill="{{green_deep}}" opacity="0.45"/>
<path d="M89.81 306.3C89.4 311.75 87.06 318.15 82.29 321.4C77.53 324.65 66.9 327.16 61.23 325.82C55.56 324.48 51.75 318.28 48.25 313.34C44.74 308.41 37.95 300.36 40.2 296.23C42.45 292.1 54.31 289.79 61.74 288.55C69.17 287.3 80.11 285.79 84.79 288.75C89.47 291.71 90.23 300.86 89.81 306.3Z" fill="{{green_deep}}" opacity="0.43"/>
<path d="M174.47 307.35C174.65 312.44 165.61 320.2 159.97 323.22C154.34 326.23 147.74 326.13 140.69 325.42C133.63 324.71 120.86 323.65 117.67 318.98C114.48 314.3 118.06 303.57 121.57 297.36C125.07 291.15 132.48 282.49 138.7 281.71C144.91 280.93 152.91 288.42 158.87 292.69C164.84 296.97 174.29 302.27 174.47 307.35Z" fill="{{green_deep}}" opacity="0.49"/>
<path d="M197.53 304C197.97 308.22 190.3 315.08 184.39 317.75C178.48 320.43 168.01 321.34 162.08 320.04C156.14 318.75 151.57 313.81 148.78 309.96C145.99 306.11 143.18 300.79 145.34 296.95C147.49 293.1 155.64 287.65 161.71 286.89C167.78 286.13 175.8 289.55 181.77 292.4C187.74 295.25 197.09 299.77 197.53 304Z" fill="{{green_deep}}" opacity="0.42"/>
<path d="M320.23 308.43C320.02 314.84 320.71 323.33 316.14 326.99C311.57 330.65 299.42 331.97 292.8 330.39C286.19 328.82 279.26 322.74 276.46 317.53C273.66 312.32 273.3 304.38 276.01 299.15C278.72 293.93 285.83 287.94 292.72 286.18C299.62 284.41 312.79 284.85 317.38 288.56C321.96 292.26 320.44 302.03 320.23 308.43Z" fill="{{green_deep}}" opacity="0.37"/>
<path d="M340.69 306.49C340.36 311.35 339.49 317.19 335.14 320.18C330.79 323.17 320.83 325.41 314.59 324.44C308.34 323.48 299.91 318.53 297.66 314.42C295.42 310.3 298.1 303.52 301.09 299.76C304.09 296.01 309.63 293.36 315.64 291.89C321.64 290.43 332.94 288.55 337.11 290.98C341.29 293.41 341.02 301.62 340.69 306.49Z" fill="{{green_deep}}" opacity="0.42"/>
<path d="M465.55 310.3C465.92 314.38 466.6 320.53 461.59 323.3C456.58 326.06 442.11 328.15 435.47 326.89C428.82 325.63 424.09 319.41 421.7 315.72C419.32 312.03 418.61 307.82 421.15 304.75C423.7 301.67 430.59 298.26 436.96 297.27C443.33 296.28 454.61 296.64 459.37 298.82C464.14 300.99 465.18 306.22 465.55 310.3Z" fill="{{green_deep}}" opacity="0.38"/>
<path d="M491.61 306.35C492.44 311.74 485.8 321.18 479.89 325.25C473.97 329.32 463.32 332.13 456.14 330.78C448.96 329.42 439.06 322.6 436.79 317.13C434.53 311.67 439.24 303.53 442.54 297.97C445.84 292.4 451.22 284.58 456.61 283.73C462.01 282.88 469.07 289.11 474.9 292.88C480.73 296.65 490.78 300.95 491.61 306.35Z" fill="{{green_deep}}" opacity="0.38"/>
<path d="M554.28 310.61C554.02 316.05 548.25 322.81 543.17 326.08C538.1 329.36 529.77 331.36 523.83 330.28C517.88 329.2 509.36 324.04 507.49 319.62C505.62 315.2 509.79 308.14 512.62 303.76C515.45 299.38 519.11 295.07 524.46 293.35C529.8 291.64 539.73 290.61 544.7 293.48C549.67 296.36 554.53 305.18 554.28 310.61Z" fill="{{green_deep}}" opacity="0.48"/>
<path d="M579.33 304.84C580.29 309.26 576.28 317.93 571.14 320.74C566.01 323.55 555.15 323.02 548.51 321.69C541.87 320.35 533.72 316.72 531.29 312.75C528.86 308.78 530.97 301.65 533.95 297.87C536.93 294.08 543.91 290.67 549.16 290.06C554.4 289.44 560.39 291.72 565.42 294.18C570.45 296.64 578.38 300.41 579.33 304.84Z" fill="{{green_deep}}" opacity="0.45"/>
<path d="M601.49 308.21C600.92 312.4 596.6 316.68 591.41 319.49C586.21 322.3 576.6 325.85 570.32 325.09C564.04 324.33 556.24 318.79 553.72 314.93C551.2 311.07 552.4 305.77 555.2 301.92C558 298.07 563.91 293.1 570.51 291.84C577.1 290.58 589.62 291.63 594.78 294.36C599.94 297.09 602.05 304.02 601.49 308.21Z" fill="{{green_deep}}" opacity="0.47"/>
<path d="M623.95 309.57C624.36 313.7 622.87 320.35 617.86 322.87C612.85 325.39 600.85 325.8 593.88 324.69C586.91 323.59 579.36 319.99 576.06 316.26C572.76 312.53 571.1 305.92 574.08 302.31C577.06 298.7 587.06 295.31 593.94 294.6C600.83 293.89 610.4 295.58 615.4 298.07C620.4 300.57 623.54 305.43 623.95 309.57Z" fill="{{green_deep}}" opacity="0.46"/>
<path d="M703.63 306.05C703.85 312.38 704.7 321.5 699.95 325.77C695.2 330.05 682.77 333.06 675.12 331.72C667.47 330.37 657.59 323.92 654.05 317.69C650.51 311.46 650.11 299.53 653.89 294.33C657.67 289.13 669.26 287.58 676.72 286.48C684.18 285.39 694.16 284.48 698.64 287.74C703.13 291 703.41 299.71 703.63 306.05Z" fill="{{green_deep}}" opacity="0.4"/>
<path d="M723.26 308.52C723.94 314.71 724.98 325.54 720.31 329.34C715.64 333.14 702.02 333.28 695.23 331.33C688.43 329.37 682.2 322.92 679.54 317.59C676.88 312.26 676.79 305.15 679.27 299.33C681.75 293.51 688.27 283.86 694.43 282.67C700.58 281.48 711.41 287.86 716.21 292.16C721.02 296.47 722.58 302.32 723.26 308.52Z" fill="{{green_deep}}" opacity="0.38"/>
<path d="M743.08 304.8C743.81 310.47 746.41 320.98 742.41 324.11C738.4 327.25 724.83 325.71 719.05 323.6C713.26 321.5 709.96 315.87 707.7 311.47C705.43 307.07 703.39 300.89 705.43 297.2C707.48 293.51 714.51 290.51 719.95 289.33C725.38 288.14 734.18 287.52 738.04 290.1C741.89 292.68 742.35 299.13 743.08 304.8Z" fill="{{green_deep}}" opacity="0.45"/>
<path d="M884.97 308.22C885 313.4 877.87 319.21 872.12 323.86C866.36 328.52 857.64 336.76 850.44 336.17C843.24 335.57 831.9 326.71 828.93 320.3C825.95 313.89 828.78 303.45 832.61 297.68C836.43 291.92 845.31 286.53 851.86 285.71C858.42 284.9 866.4 289.04 871.92 292.8C877.44 296.55 884.94 303.04 884.97 308.22Z" fill="{{green_deep}}" opacity="0.44"/>
<path d="M911.43 310.84C911.36 316.31 901.65 322.74 895.38 327.02C889.1 331.31 880.17 337.59 873.79 336.53C867.4 335.47 859.74 326.54 857.06 320.67C854.39 314.8 854.92 307.04 857.76 301.3C860.59 295.57 867.73 287.43 874.08 286.25C880.42 285.06 889.59 290.07 895.82 294.17C902.05 298.27 911.51 305.36 911.43 310.84Z" fill="{{green_deep}}" opacity="0.4"/>
<path d="M950.47 310.38C950.14 316.83 948.65 325.6 943.98 328.65C939.3 331.7 929.29 330.03 922.42 328.69C915.55 327.35 905.46 325.15 902.75 320.63C900.04 316.11 902.88 306.28 906.17 301.56C909.47 296.85 915.86 294.29 922.49 292.35C929.12 290.41 941.3 286.94 945.96 289.95C950.63 292.95 950.81 303.93 950.47 310.38Z" fill="{{green_deep}}" opacity="0.4"/>
<path d="M977.95 309.8C977.33 317.12 973.39 325.39 967.46 329.72C961.53 334.05 949.23 337.49 942.38 335.76C935.53 334.03 929.1 325.31 926.37 319.36C923.63 313.41 923.57 307 925.97 300.08C928.38 293.16 933.26 280.19 940.8 277.82C948.33 275.44 964.97 280.51 971.17 285.84C977.36 291.17 978.57 302.49 977.95 309.8Z" fill="{{green_deep}}" opacity="0.38"/>
<path d="M994.36 304.39C994.71 310.62 993.24 320.25 988.12 324.23C983.01 328.21 971.22 329.68 963.65 328.27C956.09 326.87 946.52 321.79 942.72 315.78C938.91 309.77 937.56 298.95 940.82 292.2C944.08 285.44 954.74 276.14 962.28 275.24C969.81 274.35 980.69 281.96 986.04 286.82C991.38 291.68 994.01 298.15 994.36 304.39Z" fill="{{green_deep}}" opacity="0.39"/>
<rect x="-16" y="430" width="1056" height="218" fill="url(#meadow-scene-far-g2)"/>
</svg>
