<svg viewBox="0 0 1024 640" xmlns="http://www.w3.org/2000/svg">
<defs><linearGradient x1="0" y1="178" x2="0" y2="640" gradientUnits="userSpaceOnUse" id="meadow-scene-ground-g0"><stop offset="0" stop-color="{{green_mid}}"/><stop offset="1" stop-color="{{green_deep}}"/></linearGradient><linearGradient x1="0" y1="172" x2="0" y2="242" gradientUnits="userSpaceOnUse" id="meadow-scene-ground-g1"><stop offset="0" stop-color="{{glow}}" stop-opacity="0.2"/><stop offset="1" stop-color="{{glow}}" stop-opacity="0"/></linearGradient></defs>
<path d="M-16 168.42C-1.33 172.01 42.67 187.64 72 189.91C101.33 192.18 130.67 185.3 160 182.04C189.33 178.78 218.67 172.52 248 170.35C277.33 168.19 306.67 166.93 336 169.05C365.33 171.17 394.67 181.32 424 183.06C453.33 184.8 482.67 181.03 512 179.49C541.33 177.96 570.67 172.69 600 173.86C629.33 175.03 658.67 184.49 688 186.52C717.33 188.56 746.67 186.13 776 186.08C805.33 186.03 834.67 188.43 864 186.22C893.33 184 922.67 174.7 952 172.79C981.33 170.88 1025.33 174.43 1040 174.76L1040 648L-16 648Z" fill="url(#meadow-scene-ground-g0)"/>
<rect x="-16" y="172" width="1056" height="70" fill="url(#meadow-scene-ground-g1)"/>
<path d="M627 186C618.56 205.58 596.98 264.33 576.38 303.5C555.78 342.67 537.96 381.83 503.41 421C468.86 460.17 412.67 499.33 369.07 538.5C325.48 577.67 263.05 636.42 241.84 656L391.84 656L391.84 656C404 636.42 436.73 577.67 464.82 538.5C492.92 499.33 536.19 460.17 560.41 421C584.63 381.83 594.7 342.67 610.13 303.5C625.56 264.33 645.86 205.58 653 186Z" fill="{{sand}}" opacity="0.85"/>
<path d="M640 186C632.21 205.58 611.27 264.33 593.26 303.5C575.24 342.67 561.3 381.83 531.91 421C502.53 460.17 452.79 499.33 416.95 538.5C381.1 577.67 333.53 636.42 316.84 656L319.84 648L642 188Z" fill="{{glow}}" opacity="0.12"/>
<path d="M334.03 423.64C330.81 429.12 289.06 434.49 264.74 438.66C240.43 442.83 218.33 447.13 188.14 448.66C157.96 450.2 114.29 450.35 83.64 447.87C52.99 445.4 17.35 439.55 4.25 433.82C-8.84 428.09 -7.82 419.35 5.06 413.51C17.95 407.67 50.93 401.39 81.58 398.77C112.22 396.16 155.19 396.65 188.94 397.81C222.69 398.98 259.88 401.45 284.07 405.76C308.25 410.06 337.25 418.15 334.03 423.64Z" fill="{{green_deep}}" opacity="0.16"/>
<path d="M859.58 490.28C860.05 495.34 861.59 501.1 844.67 505.65C827.74 510.2 788.96 517.08 758.03 517.58C727.1 518.08 685.51 512 659.09 508.65C632.67 505.31 616.01 502.16 599.5 497.52C582.98 492.88 552.62 485.76 559.99 480.8C567.36 475.84 611.57 469.96 643.71 467.76C675.84 465.56 719.78 466.35 752.8 467.6C785.83 468.86 824.06 471.5 841.85 475.28C859.65 479.06 859.11 485.22 859.58 490.28Z" fill="{{green_deep}}" opacity="0.13"/>
<path d="M836.55 378.78C835.89 382.8 826.65 388.06 808.83 390.59C791 393.11 756.34 393.3 729.6 393.93C702.87 394.57 668.62 396.02 648.4 394.39C628.18 392.76 615.63 387.7 608.28 384.16C600.93 380.63 597.82 376.74 604.31 373.2C610.79 369.65 625.77 364.93 647.21 362.88C668.65 360.84 705.35 360.31 732.94 360.92C760.53 361.52 795.48 363.53 812.75 366.51C830.02 369.49 837.2 374.77 836.55 378.78Z" fill="{{green_deep}}" opacity="0.11"/>
<path d="M853.45 479.89C850.72 483.72 839.99 486.68 828.67 490.02C817.35 493.35 802.24 499.33 785.52 499.89C768.81 500.45 742.9 495.88 728.38 493.38C713.86 490.88 703.88 488 698.4 484.88C692.93 481.77 692.13 478.32 695.52 474.69C698.91 471.06 703.92 465.37 718.75 463.1C733.57 460.83 763.42 460.41 784.48 461.07C805.54 461.72 833.59 463.9 845.09 467.04C856.58 470.18 856.19 476.06 853.45 479.89Z" fill="{{green_deep}}" opacity="0.15"/>
<path d="M275.76 537.52C275.59 540.93 261.59 545.39 243.28 547.71C224.97 550.03 192.09 550.96 165.9 551.44C139.7 551.91 106.16 552.14 86.11 550.58C66.05 549.03 52.89 545.08 45.57 542.11C38.25 539.14 38.09 536.29 42.18 532.77C46.26 529.24 48.32 523.29 70.06 520.97C91.8 518.64 143.6 517.76 172.64 518.81C201.68 519.85 227.12 524.09 244.31 527.21C261.5 530.33 275.94 534.1 275.76 537.52Z" fill="{{green_deep}}" opacity="0.19"/>
<path d="M855.62 382.23C855.22 373.97 857.22 370.52 857.12 368.46L858.42 369.16C858.62 375.34 857.82 382.23 857.82 382.23Z" fill="{{green_deep}}" opacity="0.8"/>
<path d="M875.66 382.23C875.26 372.67 877.26 368.68 877.16 366.29L878.46 366.99C878.66 374.26 877.86 382.23 877.86 382.23Z" fill="{{green_deep}}" opacity="0.8"/>
<path d="M834.57 382.23C834.17 370.85 836.17 366.11 836.07 363.27L837.37 363.97C837.57 372.75 836.77 382.23 836.77 382.23Z" fill="{{green_deep}}" opacity="0.8"/>
<circle cx="789.58" cy="392.01" r="3.98" fill="{{accent_warm}}" opacity="0.85"/>
<circle cx="843.95" cy="366.97" r="3.47" fill="{{accent_cool}}" opacity="0.83"/>
<circle cx="792.56" cy="382.57" r="1.82" fill="{{accent_warm}}" opacity="0.79"/>
<circle cx="854.62" cy="369.98" r="3.07" fill="{{glow}}" opacity="0.84"/>
<circle cx="907.09" cy="387.56" r="3.83" fill="{{accent_warm}}" opacity="0.65"/>
<circle cx="862.67" cy="361.03" r="3.33" fill="{{accent_warm}}" opacity="0.87"/>
<circle cx="824.61" cy="380.07" r="2.27" fill="{{accent_warm}}" opacity="0.71"/>
<circle cx="813.16" cy="375.69" r="2.11" fill="{{glow}}" opacity="0.77"/>
<circle cx="843.55" cy="385.41" r="3.56" fill="{{glow}}" opacity="0.89"/>
<circle cx="796.58" cy="388.35" r="3.59" fill="{{accent_cool}}" opacity="0.79"/>
<path d="M325.59 534.73C325.19 527.9 327.19 525.05 327.09 523.34L328.39 524.04C328.59 529.04 327.79 534.73 327.79 534.73Z" fill="{{green_deep}}" opacity="0.8"/>
<path d="M273.72 534.73C273.32 528.58 275.32 526.01 275.22 524.47L276.52 525.17C276.72 529.6 275.92 534.73 275.92 534.73Z" fill="{{green_deep}}" opacity="0.8"/>
<path d="M350.57 534.73C350.17 523.28 352.17 518.5 352.07 515.64L353.37 516.34C353.57 525.19 352.77 534.73 352.77 534.73Z" fill="{{green_deep}}" opacity="0.8"/>
<circle cx="317.26" cy="515.98" r="2.24" fill="{{accent_cool}}" opacity="0.67"/>
<circle cx="356.91" cy="542.03" r="2.64" fill="{{glow}}" opacity="0.84"/>
<circle cx="246.98" cy="534.99" r="2.74" fill="{{accent_warm}}" opacity="0.85"/>
<circle cx="377.53" cy="507.67" r="2.79" fill="{{accent_warm}}" opacity="0.76"/>
<circle cx="360.62" cy="508.85" r="2.61" fill="{{glow}}" opacity="0.69"/>
<circle cx="319.61" cy="530.62" r="1.83" fill="{{accent_warm}}" opacity="0.75"/>
<circle cx="372.88" cy="537.49" r="3.63" fill="{{glow}}" opacity="0.66"/>
<circle cx="331.95" cy="530.26" r="3.48" fill="{{accent_cool}}" opacity="0.76"/>
<circle cx="329.37" cy="521.41" r="3.4" fill="{{accent_cool}}" opacity="0.74"/>
<circle cx="377.72" cy="521.45" r="3.58" fill="{{accent_warm}}" opacity="0.66"/>
<circle cx="311.58" cy="528.03" r="3.33" fill="{{accent_cool}}" opacity="0.76"/>
<circle cx="353.27" cy="524.87" r="2.35" fill="{{accent_cool}}" opacity="0.88"/>
<circle cx="329.49" cy="503.35" r="3.23" fill="{{glow}}" opacity="0.76"/>
<path d="M164.75 304.86C164.35 294.36 166.35 289.99 166.25 287.36L167.55 288.06C167.75 296.11 166.95 304.86 166.95 304.86Z" fill="{{green_deep}}" opacity="0.8"/>
<path d="M158.86 304.86C158.46 297.94 160.46 295.06 160.36 293.33L161.66 294.03C161.86 299.09 161.06 304.86 161.06 304.86Z" fill="{{green_deep}}" opacity="0.8"/>
<path d="M175.5 304.86C175.1 292.3 177.1 287.07 177 283.93L178.3 284.63C178.5 294.4 177.7 304.86 177.7 304.86Z" fill="{{green_deep}}" opacity="0.8"/>
<circle cx="172.16" cy="301.13" r="2.98" fill="{{accent_cool}}" opacity="0.86"/>
<circle cx="213.6" cy="289.81" r="2.92" fill="{{glow}}" opacity="0.72"/>
<circle cx="139.98" cy="303.82" r="1.74" fill="{{glow}}" opacity="0.88"/>
<circle cx="150.68" cy="309.26" r="3.35" fill="{{accent_warm}}" opacity="0.67"/>
<circle cx="205.35" cy="291.45" r="1.85" fill="{{glow}}" opacity="0.66"/>
<circle cx="165.4" cy="293.55" r="2.65" fill="{{accent_cool}}" opacity="0.63"/>
<circle cx="232.84" cy="292.25" r="2.35" fill="{{glow}}" opacity="0.71"/>
<circle cx="220.59" cy="302.06" r="1.8" fill="{{accent_warm}}" opacity="0.72"/>
<circle cx="185.8" cy="293.65" r="1.84" fill="{{accent_warm}}" opacity="0.77"/>
<circle cx="233.27" cy="281.94" r="3.6" fill="{{glow}}" opacity="0.83"/>
<circle cx="225.65" cy="291.24" r="3.42" fill="{{glow}}" opacity="0.68"/>
<circle cx="203.83" cy="311.96" r="1.98" fill="{{accent_warm}}" opacity="0.83"/>
<path d="M523.66 519.26C523.26 511.44 525.26 508.18 525.16 506.22L526.46 506.92C526.66 512.74 525.86 519.26 525.86 519.26Z" fill="{{green_deep}}" opacity="0.8"/>
<path d="M563.85 519.26C563.45 509.01 565.45 504.74 565.35 502.18L566.65 502.88C566.85 510.72 566.05 519.26 566.05 519.26Z" fill="{{green_deep}}" opacity="0.8"/>
<path d="M536.18 519.26C535.78 513.08 537.78 510.51 537.68 508.97L538.98 509.67C539.18 514.11 538.38 519.26 538.38 519.26Z" fill="{{green_deep}}" opacity="0.8"/>
<circle cx="564.26" cy="493.53" r="2.18" fill="{{accent_warm}}" opacity="0.81"/>
<circle cx="600.71" cy="502.69" r="3.92" fill="{{accent_warm}}" opacity="0.76"/>
<circle cx="555.52" cy="517.93" r="2.19" fill="{{accent_cool}}" opacity="0.68"/>
<circle cx="591.7" cy="495.84" r="3.61" fill="{{glow}}" opacity="0.88"/>
<circle cx="520.99" cy="523.18" r="1.75" fill="{{accent_warm}}" opacity="0.72"/>
<circle cx="483.22" cy="506.24" r="3.8" fill="{{glow}}" opacity="0.72"/>
<circle cx="493.73" cy="527.54" r="2.01" fill="{{glow}}" opacity="0.69"/>
<circle cx="468.86" cy="515.6" r="2.11" fill="{{glow}}" opacity="0.88"/>
<circle cx="606.68" cy="496.84" r="1.74" fill="{{accent_cool}}" opacity="0.75"/>
<circle cx="504.31" cy="516.54" r="3.8" fill="{{accent_cool}}" opacity="0.73"/>
<circle cx="514.54" cy="503.24" r="1.99" fill="{{accent_cool}}" opacity="0.73"/>
<circle cx="502.22" cy="521.13" r="2.99" fill="{{glow}}" opacity="0.65"/>
<circle cx="612.96" cy="503.19" r="3.33" fill="{{accent_warm}}" opacity="0.89"/>
<path d="M745.68 560.26C745.28 550.41 747.28 546.31 747.18 543.84L748.48 544.54C748.68 552.05 747.88 560.26 747.88 560.26Z" fill="{{green_deep}}" opacity="0.8"/>
<path d="M784.93 560.26C784.53 548.84 786.53 544.08 786.43 541.22L787.73 541.92C787.93 550.74 787.13 560.26 787.13 560.26Z" fill="{{green_deep}}" opacity="0.8"/>
<path d="M761.62 560.26C761.22 548.49 763.22 543.58 763.12 540.63L764.42 541.33C764.62 550.45 763.82 560.26 763.82 560.26Z" fill="{{green_deep}}" opacity="0.8"/>
<circle cx="788.52" cy="562" r="3.8" fill="{{glow}}" opacity="0.71"/>
<circle cx="726.59" cy="546.68" r="1.83" fill="{{accent_cool}}" opacity="0.78"/>
<circle cx="733.61" cy="545.05" r="3.02" fill="{{accent_warm}}" opacity="0.73"/>
<circle cx="706.18" cy="561.61" r="2.52" fill="{{glow}}" opacity="0.77"/>
<circle cx="824.77" cy="545.26" r="2.94" fill="{{accent_cool}}" opacity="0.63"/>
<circle cx="826.54" cy="541.88" r="2.28" fill="{{accent_warm}}" opacity="0.7"/>
<circle cx="777.49" cy="560.34" r="3.23" fill="{{accent_warm}}" opacity="0.81"/>
<circle cx="822.12" cy="554.53" r="2.72" fill="{{accent_warm}}" opacity="0.7"/>
<circle cx="795.44" cy="567.96" r="2.41" fill="{{glow}}" opacity="0.78"/>
<circle cx="810.82" cy="544.87" r="2.42" fill="{{glow}}" opacity="0.89"/>
<path d="M229.33 243.06C223.33 233.86 228.08 227.98 220.08 224.67C222.08 229.82 227.25 236.8 234.25 243.06Z" fill="{{green_deep}}" opacity="0.75"/>
<path d="M234.65 243.06C234.65 232.51 235.92 225.76 235.92 221.97C237.92 227.87 238.93 235.89 238.93 243.06Z" fill="{{green_deep}}" opacity="0.75"/>
<path d="M240.13 243.06C246.13 232.99 239.58 226.54 247.58 222.92C249.58 228.56 250.45 236.21 243.45 243.06Z" fill="{{green_deep}}" opacity="0.75"/>
<path d="M355.5 347.05C349.5 334.67 356.95 326.74 348.95 322.28C350.95 329.22 354.06 338.63 361.06 347.05Z" fill="{{green_deep}}" opacity="0.75"/>
<path d="M359.12 347.05C356.12 337.86 362.8 331.98 358.8 328.67C360.8 333.82 358.94 340.8 362.44 347.05Z" fill="{{green_deep}}" opacity="0.75"/>
<path d="M361.61 347.05C361.61 336.4 363.59 329.59 363.59 325.75C365.59 331.72 364.95 339.81 364.95 347.05Z" fill="{{green_deep}}" opacity="0.75"/>
<path d="M363.8 347.05C366.8 336.91 362.84 330.43 366.84 326.78C368.84 332.45 371.26 340.16 367.76 347.05Z" fill="{{green_deep}}" opacity="0.75"/>
<path d="M365.53 347.05C371.53 336.42 365.92 329.62 373.92 325.79C375.92 331.75 378.03 339.82 371.03 347.05Z" fill="{{green_deep}}" opacity="0.75"/>
<path d="M393.8 474.91C387.8 463.39 391.17 456.02 383.17 451.87C385.17 458.32 392.48 467.08 399.48 474.91Z" fill="{{green_deep}}" opacity="0.75"/>
<path d="M397.96 474.91C395.96 465.07 401.72 458.78 399.05 455.24C401.05 460.74 399.65 468.22 401.98 474.91Z" fill="{{green_deep}}" opacity="0.75"/>
<path d="M400.66 474.91C402.66 465.67 402.05 459.75 404.72 456.42C406.72 461.6 408.29 468.63 405.96 474.91Z" fill="{{green_deep}}" opacity="0.75"/>
<path d="M404.51 474.91C410.51 463.28 412.5 455.84 420.5 451.65C422.5 458.17 415.77 467 408.77 474.91Z" fill="{{green_deep}}" opacity="0.75"/>
<path d="M444.46 357.75C438.46 347.31 447.24 340.63 439.24 336.87C441.24 342.71 442.8 350.65 449.8 357.75Z" fill="{{green_deep}}" opacity="0.75"/>
<path d="M449.78 357.75C449.78 349.4 452.06 344.05 452.06 341.04C454.06 345.72 454.47 352.07 454.47 357.75Z" fill="{{green_deep}}" opacity="0.75"/>
<path d="M454.6 357.75C460.6 350.47 455.7 345.81 463.7 343.19C465.7 347.27 466.66 352.8 459.66 357.75Z" fill="{{green_deep}}" opacity="0.75"/>
<path d="M772.39 581.16C766.39 569.28 774.76 561.68 766.76 557.4C768.76 564.05 770.3 573.08 777.3 581.16Z" fill="{{green_deep}}" opacity="0.75"/>
<path d="M775.82 581.16C772.82 573.45 780.69 568.51 776.69 565.74C778.69 570.06 775.37 575.92 778.87 581.16Z" fill="{{green_deep}}" opacity="0.75"/>
<path d="M777.3 581.16C777.3 574.11 776.47 569.61 776.47 567.07C778.47 571.02 782.39 576.37 782.39 581.16Z" fill="{{green_deep}}" opacity="0.75"/>
<path d="M779.46 581.16C782.46 573.87 784.47 569.2 788.47 566.58C790.47 570.66 788.73 576.2 785.23 581.16Z" fill="{{green_deep}}" opacity="0.75"/>
<path d="M782.76 581.16C788.76 568.17 784.9 559.87 792.9 555.19C794.9 562.46 793.93 572.33 786.93 581.16Z" fill="{{green_deep}}" opacity="0.75"/>
<path d="M399.07 338.86C393.07 328.72 395.91 322.24 387.91 318.59C389.91 324.26 395.72 331.97 402.72 338.86Z" fill="{{green_deep}}" opacity="0.75"/>
<path d="M401.73 338.86C398.73 327.64 400.02 320.46 396.02 316.42C398.02 322.71 401.56 331.23 405.06 338.86Z" fill="{{green_deep}}" opacity="0.75"/>
<path d="M403.72 338.86C403.72 327.72 408.39 320.6 408.39 316.59C410.39 322.82 408.07 331.29 408.07 338.86Z" fill="{{green_deep}}" opacity="0.75"/>
<path d="M406.28 338.86C409.28 328.66 410.11 322.13 414.11 318.46C416.11 324.17 414.01 331.92 410.51 338.86Z" fill="{{green_deep}}" opacity="0.75"/>
<path d="M409.36 338.86C415.36 328.1 415.89 321.21 423.89 317.34C425.89 323.36 419.43 331.54 412.43 338.86Z" fill="{{green_deep}}" opacity="0.75"/>
<path d="M606.71 458.38C600.71 451.36 606.23 446.87 598.23 444.34C600.23 448.27 602.78 453.61 609.78 458.38Z" fill="{{green_deep}}" opacity="0.75"/>
<path d="M608.69 458.38C605.69 449.5 608.81 443.82 604.81 440.63C606.81 445.6 609.3 452.34 612.8 458.38Z" fill="{{green_deep}}" opacity="0.75"/>
<path d="M611.49 458.38C611.49 446.94 610.01 439.62 610.01 435.5C612.01 441.91 615 450.6 615 458.38Z" fill="{{green_deep}}" opacity="0.75"/>
<path d="M614.06 458.38C617.06 446.92 614.08 439.59 618.08 435.46C620.08 441.88 620.93 450.59 617.43 458.38Z" fill="{{green_deep}}" opacity="0.75"/>
<path d="M615.73 458.38C621.73 450.02 620.27 444.67 628.27 441.66C630.27 446.34 627.76 452.69 620.76 458.38Z" fill="{{green_deep}}" opacity="0.75"/>
<path d="M622.61 519.78C616.61 511.27 621.94 505.82 613.94 502.76C615.94 507.53 619.13 513.99 626.13 519.78Z" fill="{{green_deep}}" opacity="0.75"/>
<path d="M625 519.78C623 509.44 624.44 502.82 621.77 499.1C623.77 504.89 628.08 512.75 630.41 519.78Z" fill="{{green_deep}}" opacity="0.75"/>
<path d="M628.75 519.78C630.75 506.96 628.66 498.75 631.32 494.14C633.32 501.32 635.65 511.06 633.32 519.78Z" fill="{{green_deep}}" opacity="0.75"/>
<path d="M632.34 519.78C638.34 510.18 635.21 504.05 643.21 500.59C645.21 505.96 643.4 513.25 636.4 519.78Z" fill="{{green_deep}}" opacity="0.75"/>
</svg>
