<svg viewBox="0 0 1024 640" xmlns="http://www.w3.org/2000/svg">
<defs><linearGradient x1="0" y1="148" x2="0" y2="640" gradientUnits="userSpaceOnUse" id="meadow-scene-mid-g0"><stop offset="0" stop-color="{{green_mid}}"/><stop offset="1" stop-color="{{green_deep}}"/></linearGradient><linearGradient x1="0" y1="220" x2="0" y2="680" gradientUnits="userSpaceOnUse" id="meadow-scene-mid-g1"><stop offset="0" stop-color="{{green_mid}}"/><stop offset="1" stop-color="{{green_deep}}"/></linearGradient><linearGradient x1="0" y1="182.4" x2="0" y2="249.76" gradientUnits="userSpaceOnUse" id="meadow-scene-mid-g2"><stop offset="0" stop-color="{{green_mid}}"/><stop offset="1" stop-color="{{green_deep}}"/></linearGradient><linearGradient x1="0" y1="163.11" x2="0" y2="248.55" gradientUnits="userSpaceOnUse" id="meadow-scene-mid-g3"><stop offset="0" stop-color="{{green_mid}}"/><stop offset="1" stop-color="{{green_deep}}"/></linearGradient><linearGradient x1="0" y1="167.82" x2="0" y2="245.68" gradientUnits="userSpaceOnUse" id="meadow-scene-mid-g4"><stop offset="0" stop-color="{{green_mid}}"/><stop offset="1" stop-color="{{green_deep}}"/></linearGradient><linearGradient x1="0" y1="207.82" x2="0" y2="290.27" gradientUnits="userSpaceOnUse" id="meadow-scene-mid-g5"><stop offset="0" stop-color="{{green_mid}}"/><stop offset="1" stop-color="{{green_deep}}"/></linearGradient><linearGradient x1="0" y1="188.73" x2="0" y2="273.16" gradientUnits="userSpaceOnUse" id="meadow-scene-mid-g6"><stop offset="0" stop-color="{{green_mid}}"/><stop offset="1" stop-color="{{green_deep}}"/></linearGradient><linearGradient x1="0" y1="174.01" x2="0" y2="267.7" gradientUnits="userSpaceOnUse" id="meadow-scene-mid-g7"><stop offset="0" stop-color="{{green_mid}}"/><stop offset="1" stop-color="{{green_deep}}"/></linearGradient><linearGradient x1="0" y1="167.17" x2="0" y2="234.57" gradientUnits="userSpaceOnUse" id="meadow-scene-mid-g8"><stop offset="0" stop-color="{{green_mid}}"/><stop offset="1" stop-color="{{green_deep}}"/></linearGradient><linearGradient x1="0" y1="185.06" x2="0" y2="239.69" gradientUnits="userSpaceOnUse" id="meadow-scene-mid-g9"><stop offset="0" stop-color="{{green_mid}}"/><stop offset="1" stop-color="{{green_deep}}"/></linearGradient><linearGradient x1="0" y1="184.33" x2="0" y2="241.45" gradientUnits="userSpaceOnUse" id="meadow-scene-mid-g10"><stop offset="0" stop-color="{{green_mid}}"/><stop offset="1" stop-color="{{green_deep}}"/></linearGradient><linearGradient x1="0" y1="169.34" x2="0" y2="231.11" gradientUnits="userSpaceOnUse" id="meadow-scene-mid-g11"><stop offset="0" stop-color="{{green_mid}}"/><stop offset="1" stop-color="{{green_deep}}"/></linearGradient><linearGradient x1="0" y1="188.74" x2="0" y2="247.93" gradientUnits="userSpaceOnUse" id="meadow-scene-mid-g12"><stop offset="0" stop-color="{{green_mid}}"/><stop offset="1" stop-color="{{green_deep}}"/></linearGradient><linearGradient x1="0" y1="173.41" x2="0" y2="271.63" gradientUnits="userSpaceOnUse" id="meadow-scene-mid-g13"><stop offset="0" stop-color="{{green_mid}}"/><stop offset="1" stop-color="{{green_deep}}"/></linearGradient><linearGradient x1="0" y1="148.97" x2="0" y2="217.33" gradientUnits="userSpaceOnUse" id="meadow-scene-mid-g14"><stop offset="0" stop-color="{{green_mid}}"/><stop offset="1" stop-color="{{green_deep}}"/></linearGradient><linearGradient x1="0" y1="500" x2="0" y2="640" gradientUnits="userSpaceOnUse" id="meadow-scene-mid-g15"><stop offset="0" stop-color="{{horizon}}" stop-opacity="0"/><stop offset="1" stop-color="{{horizon}}" stop-opacity="0.4"/></linearGradient></defs>
<path d="M-16 266.8C-16 265.14 -38 269.27 -16 256.82C6 244.36 72 194.32 116 192.08C160 189.84 204 242.96 248 243.35C292 243.75 336 194.02 380 194.43C424 194.84 468 246.66 512 245.81C556 244.97 600 186.94 644 189.38C688 191.83 732 258.77 776 260.5C820 262.24 864 201.92 908 199.82C952 197.71 1018 236.72 1040 247.89C1062 259.05 1040 263.65 1040 266.8L1040 648L-16 648Z" fill="url(#meadow-scene-mid-g0)" opacity="0.85"/>
<path d="M-16 368.5C-16 363.63 -45.33 352.31 -16 339.29C13.33 326.27 101.33 287.68 160 290.37C218.67 293.06 277.33 353.65 336 355.41C394.67 357.18 453.33 301.79 512 300.96C570.67 300.13 629.33 355.88 688 350.45C746.67 345.01 805.33 268.45 864 268.33C922.67 268.21 1010.67 333.04 1040 349.74C1069.33 366.43 1040 365.37 1040 368.5L1040 648L-16 648Z" fill="url(#meadow-scene-mid-g1)"/>
<path d="M98.21 220.43C98.21 228.69 95.45 239.17 85.52 245.2C75.59 251.23 54.44 255.76 38.63 256.62C22.82 257.49 2.85 254.62 -9.35 250.39C-21.56 246.16 -27.79 238.53 -34.6 231.26C-41.41 223.99 -53.5 214.38 -50.22 206.79C-46.94 199.2 -29.58 189.08 -14.91 185.72C-0.25 182.35 21.05 184.94 37.79 186.6C54.53 188.25 75.45 190.02 85.52 195.66C95.59 201.3 98.21 212.17 98.21 220.43Z" fill="{{green_deep}}" opacity="0.9"/>
<path d="M5.19 216.08C6.02 224.21 7.95 237.98 3.14 242.95C-1.67 247.92 -14.85 246.02 -23.67 245.9C-32.49 245.78 -45.06 247.22 -49.77 242.25C-54.49 237.28 -52.19 224.57 -51.96 216.08C-51.73 207.59 -53.1 195.93 -48.38 191.31C-43.67 186.69 -31.42 187.9 -23.67 188.38C-15.92 188.87 -6.67 189.6 -1.86 194.22C2.95 198.83 4.35 207.96 5.19 216.08Z" fill="url(#meadow-scene-mid-g2)" opacity="0.95"/>
<path d="M58.47 205.83C59.04 216.39 55.66 233.05 49.4 239.5C43.14 245.95 29.58 245.5 20.9 244.53C12.23 243.55 2.57 240.09 -2.64 233.65C-7.84 227.2 -10.69 214.65 -10.31 205.83C-9.93 197.01 -5.55 186.58 -0.35 180.71C4.85 174.85 13.18 171.42 20.9 170.66C28.63 169.9 39.76 170.29 46.02 176.15C52.28 182.01 57.91 195.27 58.47 205.83Z" fill="url(#meadow-scene-mid-g3)" opacity="0.95"/>
<path d="M84.37 206.75C83.98 214.77 77.39 221.64 72.25 229.42C67.11 237.2 60.17 252.97 53.54 253.44C46.91 253.92 38.68 240.07 32.47 232.29C26.26 224.5 17.31 216.49 16.3 206.75C15.29 197.02 20.21 179.21 26.42 173.89C32.63 168.58 45.52 173.62 53.54 174.85C61.57 176.09 69.42 175.98 74.55 181.3C79.69 186.62 84.75 198.73 84.37 206.75Z" fill="url(#meadow-scene-mid-g4)" opacity="0.95"/>
<path d="M35.46 191.58C35.15 195.49 24.5 200.06 17.77 202.67C11.03 205.29 2.69 207.8 -4.95 207.26C-12.58 206.71 -24.51 203.22 -28.03 199.39C-31.56 195.56 -30.03 188.03 -26.11 184.29C-22.19 180.54 -12.14 177.77 -4.52 176.93C3.1 176.09 12.93 176.8 19.6 179.24C26.26 181.68 35.76 187.68 35.46 191.58Z" fill="{{glow}}" opacity="0.13"/>
<path d="M365.45 245.72C365.28 257.04 355.46 271.48 343.12 279.42C330.78 287.35 307.88 293.02 291.42 293.32C274.95 293.63 257.41 286.79 244.35 281.26C231.29 275.74 219.44 268.79 213.04 260.19C206.63 251.59 202.54 239.94 205.92 229.66C209.31 219.38 219.23 203.36 233.37 198.49C247.51 193.62 272.28 198.28 290.75 200.44C309.21 202.61 331.72 203.93 344.17 211.48C356.62 219.03 365.63 234.4 365.45 245.72Z" fill="{{green_deep}}" opacity="0.9"/>
<path d="M281.22 249.05C282.59 259.65 283.77 278.27 275.44 284.11C267.12 289.96 244.07 285.67 231.27 284.14C218.47 282.62 205.54 280.81 198.63 274.96C191.72 269.11 191 258.64 189.8 249.05C188.6 239.46 184.52 224.34 191.43 217.42C198.34 210.51 218.64 207.04 231.27 207.56C243.9 208.07 258.89 213.59 267.22 220.51C275.54 227.42 279.85 238.45 281.22 249.05Z" fill="url(#meadow-scene-mid-g5)" opacity="0.95"/>
<path d="M343.92 230.95C343.58 240.85 340.29 253.68 334.76 259.44C329.24 265.19 319.66 264.43 310.78 265.48C301.9 266.54 287.57 271.53 281.46 265.77C275.36 260.02 273.71 242 274.18 230.95C274.65 219.89 278.16 205.21 284.26 199.45C290.36 193.69 302.02 196.29 310.78 196.38C319.54 196.48 331.29 194.26 336.82 200.02C342.34 205.78 344.26 221.05 343.92 230.95Z" fill="url(#meadow-scene-mid-g6)" opacity="0.95"/>
<path d="M278.14 211.7C278.63 217.35 279.89 227.19 274.9 229.88C269.9 232.58 255.47 229.68 248.18 227.88C240.88 226.08 235.27 223.42 231.13 219.07C226.99 214.72 220.77 206.5 223.35 201.78C225.92 197.06 238.47 191.72 246.58 190.76C254.69 189.79 266.73 192.51 271.99 196C277.25 199.49 277.66 206.05 278.14 211.7Z" fill="{{glow}}" opacity="0.13"/>
<path d="M582.57 220.17C581.28 228.38 564.85 235.54 555.21 242.75C545.58 249.95 536.76 261.76 524.75 263.4C512.73 265.04 494.72 257.6 483.12 252.61C471.51 247.62 461.65 241.48 455.13 233.44C448.61 225.39 440.49 213.22 444 204.35C447.52 195.47 463.14 183.36 476.22 180.17C489.29 176.98 507.99 182.99 522.45 185.21C536.9 187.43 552.93 187.66 562.95 193.49C572.97 199.31 583.86 211.96 582.57 220.17Z" fill="{{green_deep}}" opacity="0.9"/>
<path d="M500.48 220.86C500.33 233.95 498.44 252.59 492.96 259.47C487.48 266.36 476.18 261.97 467.6 262.17C459.02 262.36 445.87 267.54 441.47 260.65C437.08 253.77 440.58 233.13 441.23 220.86C441.88 208.58 440.99 194.57 445.38 187.01C449.78 179.46 459.53 176.54 467.6 175.52C475.68 174.51 488.35 173.36 493.83 180.91C499.31 188.47 500.62 207.76 500.48 220.86Z" fill="url(#meadow-scene-mid-g7)" opacity="0.95"/>
<path d="M551.68 200.87C551.77 207.69 543.53 215.71 537 221.56C530.46 227.41 521.77 235 512.47 235.96C503.16 236.91 488.51 233.11 481.17 227.27C473.83 221.42 468.41 209.65 468.43 200.87C468.46 192.1 474 180.26 481.34 174.62C488.68 168.98 503.29 166.01 512.47 167.02C521.65 168.03 529.88 175.03 536.42 180.68C542.95 186.32 551.58 194.06 551.68 200.87Z" fill="url(#meadow-scene-mid-g8)" opacity="0.95"/>
<path d="M562.23 212.37C562.52 219.09 563.89 228.03 559.59 233.29C555.29 238.55 543.5 244.55 536.46 243.94C529.42 243.34 521.91 234.91 517.35 229.65C512.8 224.39 509.25 218.25 509.12 212.37C508.99 206.5 512.02 199.06 516.57 194.39C521.13 189.72 529.58 184.59 536.46 184.36C543.34 184.13 553.57 188.35 557.87 193.02C562.16 197.69 561.95 205.66 562.23 212.37Z" fill="url(#meadow-scene-mid-g9)" opacity="0.95"/>
<path d="M519.3 189.49C518.97 193.97 511.17 199.3 505.62 202.05C500.07 204.79 492.42 206.69 485.99 205.96C479.57 205.24 470.4 201.87 467.06 197.7C463.73 193.53 462.86 185.17 465.97 180.92C469.08 176.67 478.79 173.15 485.72 172.2C492.66 171.25 501.98 172.34 507.58 175.22C513.17 178.1 519.62 185.02 519.3 189.49Z" fill="{{glow}}" opacity="0.13"/>
<path d="M841.42 220.76C841.68 228.17 839.86 237.29 829.99 243.27C820.11 249.26 799.86 255.02 782.16 256.66C764.46 258.31 738.32 257.24 723.78 253.14C709.25 249.04 699.1 239.24 694.95 232.06C690.8 224.88 693.01 216.55 698.88 210.07C704.76 203.58 716.7 196.38 730.19 193.13C743.67 189.88 763.43 189.64 779.8 190.58C796.17 191.53 818.13 193.78 828.4 198.81C838.67 203.84 841.16 213.34 841.42 220.76Z" fill="{{green_deep}}" opacity="0.9"/>
<path d="M754.23 212.89C754.46 219.02 751.55 227.36 746.53 231.87C741.51 236.39 731.38 240.17 724.1 240C716.83 239.83 708.3 235.37 702.89 230.85C697.48 226.34 692.29 219.41 691.67 212.89C691.04 206.37 693.72 196.03 699.12 191.74C704.53 187.45 716.44 186.57 724.1 187.13C731.77 187.69 740.12 190.79 745.14 195.08C750.16 199.37 754 206.76 754.23 212.89Z" fill="url(#meadow-scene-mid-g10)" opacity="0.95"/>
<path d="M798.58 200.23C799.48 207.89 802.89 220.89 797.63 225.45C792.37 230.01 776.81 227.9 767.01 227.56C757.21 227.23 744.73 227.99 738.84 223.43C732.95 218.88 731.66 207.95 731.68 200.23C731.7 192.5 733.06 182.8 738.95 177.1C744.83 171.41 758.13 165.65 767.01 166.04C775.89 166.43 786.98 173.75 792.24 179.44C797.5 185.14 797.68 192.56 798.58 200.23Z" fill="url(#meadow-scene-mid-g11)" opacity="0.95"/>
<path d="M854.39 218.33C854.15 226.43 848.93 236.19 841.05 242.14C833.16 248.09 816.82 255.11 807.06 254.01C797.3 252.91 788.92 241.49 782.48 235.55C776.05 229.6 770.06 225.21 768.44 218.33C766.81 211.45 766.28 199.38 772.71 194.27C779.15 189.16 795.44 187.81 807.06 187.68C818.69 187.56 834.58 188.42 842.46 193.53C850.35 198.64 854.62 210.23 854.39 218.33Z" fill="url(#meadow-scene-mid-g12)" opacity="0.95"/>
<path d="M770.76 193.94C770.58 197.18 764.21 200.9 758.35 203.34C752.49 205.77 742.05 209.23 735.57 208.54C729.1 207.86 722.7 202.67 719.49 199.23C716.27 195.8 713.73 191.5 716.29 187.93C718.85 184.36 727.64 178.47 734.83 177.8C742.02 177.13 753.45 181.22 759.44 183.91C765.42 186.6 770.94 190.71 770.76 193.94Z" fill="{{glow}}" opacity="0.13"/>
<path d="M1088.49 224.54C1086.75 234.87 1074.49 244.79 1064.66 252.4C1054.83 260.02 1042.14 268.8 1029.52 270.21C1016.91 271.63 1003.17 265.27 988.98 260.87C974.8 256.46 952.28 253.16 944.42 243.78C936.55 234.41 935.36 215.09 941.8 204.61C948.25 194.13 968.41 185.47 983.1 180.91C997.78 176.35 1014.59 175.66 1029.92 177.24C1045.26 178.82 1065.35 182.51 1075.11 190.39C1084.87 198.28 1090.24 214.2 1088.49 224.54Z" fill="{{green_deep}}" opacity="0.9"/>
<path d="M1021.71 222.52C1022.49 234.45 1016.82 254.29 1008.84 260.87C1000.85 267.45 984.34 263.25 973.79 262.01C963.23 260.77 953.35 260.02 945.52 253.44C937.69 246.86 927.99 234.12 926.81 222.52C925.63 210.92 930.59 193.26 938.42 183.83C946.25 174.41 962.83 165.08 973.79 165.99C984.74 166.9 996.17 179.87 1004.16 189.29C1012.15 198.71 1020.93 210.59 1021.71 222.52Z" fill="url(#meadow-scene-mid-g13)" opacity="0.95"/>
<path d="M1086.78 183.15C1087.18 191.94 1087.56 205.15 1081.97 210.65C1076.38 216.15 1062.07 216.88 1053.25 216.17C1044.43 215.45 1035.14 211.85 1029.02 206.35C1022.9 200.85 1016.25 190.6 1016.55 183.15C1016.85 175.71 1024.7 167.04 1030.81 161.67C1036.93 156.3 1045.12 151.54 1053.25 150.92C1061.38 150.3 1073.98 152.58 1079.57 157.95C1085.16 163.32 1086.38 174.37 1086.78 183.15Z" fill="url(#meadow-scene-mid-g14)" opacity="0.95"/>
<path d="M1020.66 188.66C1021.11 194.16 1018.71 203.06 1013.54 206.52C1008.36 209.98 997.08 210.69 989.62 209.42C982.15 208.15 972.23 204.08 968.76 198.91C965.29 193.75 965.38 183.74 968.81 178.43C972.24 173.11 982.36 167.84 989.36 167.02C996.37 166.2 1005.61 169.89 1010.82 173.5C1016.04 177.11 1020.2 183.16 1020.66 188.66Z" fill="{{glow}}" opacity="0.13"/>
<circle cx="927.23" cy="457.14" r="2.66" fill="{{accent_warm}}" opacity="0.52"/>
<circle cx="927.8" cy="452.77" r="1.95" fill="{{accent_cool}}" opacity="0.41"/>
<circle cx="939.33" cy="457.15" r="3.96" fill="{{accent_warm}}" opacity="0.42"/>
<circle cx="942.97" cy="480.58" r="2.9" fill="{{glow}}" opacity="0.46"/>
<circle cx="910.82" cy="467.88" r="3.6" fill="{{accent_warm}}" opacity="0.42"/>
<circle cx="950.2" cy="493.27" r="2.88" fill="{{accent_cool}}" opacity="0.42"/>
<circle cx="850.93" cy="466.72" r="3.89" fill="{{glow}}" opacity="0.42"/>
<circle cx="898.13" cy="473.99" r="1.96" fill="{{glow}}" opacity="0.53"/>
<circle cx="759.77" cy="488.93" r="3.66" fill="{{accent_warm}}" opacity="0.51"/>
<circle cx="957.56" cy="453.88" r="3.29" fill="{{accent_warm}}" opacity="0.54"/>
<circle cx="777.87" cy="469.69" r="2.74" fill="{{accent_cool}}" opacity="0.52"/>
<circle cx="316.01" cy="455.68" r="3.07" fill="{{accent_warm}}" opacity="0.45"/>
<circle cx="380.6" cy="461.9" r="3.51" fill="{{accent_cool}}" opacity="0.53"/>
<circle cx="444.64" cy="429.18" r="3.51" fill="{{accent_warm}}" opacity="0.48"/>
<circle cx="404.28" cy="461.37" r="2.56" fill="{{accent_warm}}" opacity="0.52"/>
<circle cx="406.89" cy="423.37" r="2.45" fill="{{accent_warm}}" opacity="0.46"/>
<circle cx="289.25" cy="423.33" r="1.97" fill="{{accent_warm}}" opacity="0.52"/>
<circle cx="317.24" cy="427.02" r="2.19" fill="{{glow}}" opacity="0.52"/>
<circle cx="479.05" cy="421.06" r="2.23" fill="{{accent_warm}}" opacity="0.39"/>
<circle cx="457.59" cy="446.15" r="3.43" fill="{{glow}}" opacity="0.41"/>
<circle cx="260.28" cy="427.28" r="1.62" fill="{{accent_cool}}" opacity="0.5"/>
<circle cx="408.24" cy="439.49" r="2.68" fill="{{accent_cool}}" opacity="0.44"/>
<circle cx="679.77" cy="484.32" r="2.81" fill="{{accent_warm}}" opacity="0.55"/>
<circle cx="658.41" cy="488.34" r="2.15" fill="{{accent_warm}}" opacity="0.44"/>
<circle cx="740.25" cy="474.62" r="3.85" fill="{{accent_cool}}" opacity="0.44"/>
<circle cx="776.97" cy="466.91" r="3.12" fill="{{accent_cool}}" opacity="0.51"/>
<circle cx="790.98" cy="493.72" r="2.96" fill="{{accent_warm}}" opacity="0.5"/>
<circle cx="675.48" cy="475.13" r="1.82" fill="{{accent_warm}}" opacity="0.55"/>
<circle cx="655.24" cy="461.31" r="2.79" fill="{{glow}}" opacity="0.51"/>
<circle cx="674.24" cy="471.83" r="3" fill="{{accent_warm}}" opacity="0.55"/>
<circle cx="725.05" cy="498.75" r="3.38" fill="{{glow}}" opacity="0.4"/>
<rect x="-16" y="500" width="1056" height="148" fill="url(#meadow-scene-mid-g15)"/>
</svg>
