<svg viewBox="0 0 512 384" xmlns="http://www.w3.org/2000/svg">
<defs><linearGradient x1="0" y1="302" x2="0" y2="376" gradientUnits="userSpaceOnUse" id="soil-base-g0"><stop offset="0" stop-color="{{earth_deep}}"/><stop offset="1" stop-color="{{earth_deep}}" stop-opacity="0.92"/></linearGradient><linearGradient x1="0" y1="230" x2="0" y2="320" gradientUnits="userSpaceOnUse" id="soil-base-g1"><stop offset="0" stop-color="{{earth_mid}}"/><stop offset="1" stop-color="{{earth_deep}}"/></linearGradient><linearGradient x1="0" y1="206" x2="0" y2="242" gradientUnits="userSpaceOnUse" id="soil-base-g2"><stop offset="0" stop-color="{{earth_mid}}"/><stop offset="1" stop-color="{{earth_deep}}"/></linearGradient></defs>
<path d="M443.01 225.45C434.06 228.44 415.03 232.68 384.28 234.18C353.52 235.69 300.63 234.43 258.49 234.5C216.34 234.57 163.84 236 131.39 234.59C98.94 233.18 77.04 229.11 63.78 226.04C50.53 222.96 37.75 218.82 51.85 216.14C65.96 213.46 114.9 211.91 148.41 209.94C181.93 207.97 216.75 204.47 252.93 204.32C289.11 204.17 334.65 207.07 365.49 209.06C396.33 211.04 425.05 213.5 437.97 216.23C450.89 218.96 451.96 222.46 443.01 225.45Z" fill="{{glow}}" opacity="0.18" transform="translate(-3 -3)"/>
<path d="M146.8 312C114.67 314.13 165.86 320.84 172.41 324.76C178.96 328.69 180.5 331.93 186.11 335.54C191.72 339.16 200.03 343.92 206.08 346.44C212.12 348.97 216.8 347.94 222.38 350.67C227.95 353.4 231.61 358.61 239.53 362.83C247.44 367.05 264.38 374.97 269.87 376C275.36 377.03 269.18 372.64 272.47 369.03C275.77 365.41 284.05 358.14 289.62 354.29C295.2 350.44 299.88 349.21 305.92 345.94C311.97 342.67 320.28 338.53 325.89 334.68C331.5 330.83 333.04 326.62 339.59 322.84C346.14 319.06 397.33 313.81 365.2 312C333.07 310.19 178.93 309.87 146.8 312Z" fill="url(#soil-base-g0)"/>
<path d="M427.91 288.32C417.88 296.21 376.98 302.62 348.7 307.35C320.42 312.08 289.84 316.11 258.25 316.71C226.66 317.31 188.3 315.46 159.16 310.98C130.02 306.5 94.57 298.27 83.4 289.83C72.23 281.39 76.46 267.7 92.13 260.35C107.8 253 150.39 249.27 177.4 245.72C204.4 242.18 224.54 240.67 254.16 239.07C283.79 237.48 329.35 232.66 355.14 236.15C380.93 239.63 396.76 251.28 408.89 259.98C421.02 268.67 437.94 280.42 427.91 288.32Z" fill="url(#soil-base-g1)"/>
<path d="M443.01 225.45C434.06 228.44 415.03 232.68 384.28 234.18C353.52 235.69 300.63 234.43 258.49 234.5C216.34 234.57 163.84 236 131.39 234.59C98.94 233.18 77.04 229.11 63.78 226.04C50.53 222.96 37.75 218.82 51.85 216.14C65.96 213.46 114.9 211.91 148.41 209.94C181.93 207.97 216.75 204.47 252.93 204.32C289.11 204.17 334.65 207.07 365.49 209.06C396.33 211.04 425.05 213.5 437.97 216.23C450.89 218.96 451.96 222.46 443.01 225.45Z" fill="url(#soil-base-g2)"/>
<path d="M214.68 350.15C218.91 365.45 225.26 376.92 223.14 388.39C226.2 378.92 221.41 367.45 217.18 351.15Z" fill="{{earth_deep}}" opacity="0.85"/>
<path d="M331.72 348.14C337.3 364.82 345.67 377.33 342.88 389.84C346.28 379.33 339.8 366.82 334.22 349.14Z" fill="{{earth_deep}}" opacity="0.85"/>
</svg>
