<svg viewBox="0 0 512 384" xmlns="http://www.w3.org/2000/svg">
<path d="M102.68 235.73C103.48 227.8 97.28 223.03 96.28 219.86C97.28 224.62 104.48 230.97 105.48 235.73Z" fill="{{green_deep}}"/>
<path d="M105.08 235.73C106.48 225.58 107.67 219.48 107.67 215.42C108.67 221.51 107.88 229.64 107.88 235.73Z" fill="{{green_deep}}"/>
<path d="M107.48 235.73C109.48 226.62 114.99 221.16 115.99 217.51C116.99 222.98 111.28 230.27 110.28 235.73Z" fill="{{green_deep}}"/>
<path d="M193.25 242.46C194.05 236.72 189.26 233.28 188.26 230.98C189.26 234.43 195.05 239.02 196.05 242.46Z" fill="{{green_deep}}"/>
<path d="M194.45 242.46C195.55 233.01 193.18 227.34 192.68 223.56C193.68 229.23 196.75 236.79 197.25 242.46Z" fill="{{green_deep}}"/>
<path d="M195.65 242.46C197.05 232.8 195.14 227 195.14 223.14C196.14 228.94 198.45 236.67 198.45 242.46Z" fill="{{green_deep}}"/>
<path d="M196.85 242.46C198.55 235.94 199.67 232.03 200.17 229.42C201.17 233.33 200.15 238.55 199.65 242.46Z" fill="{{green_deep}}"/>
<path d="M198.05 242.46C200.05 236.61 203.44 233.1 204.44 230.76C205.44 234.27 201.85 238.95 200.85 242.46Z" fill="{{green_deep}}"/>
<path d="M303.85 238.82C304.65 229.83 300.93 224.43 299.93 220.83C300.93 226.23 305.65 233.43 306.65 238.82Z" fill="{{green_deep}}"/>
<path d="M305.45 238.82C306.65 231.29 303.64 226.76 303.3 223.75C304.3 228.27 307.92 234.3 308.25 238.82Z" fill="{{green_deep}}"/>
<path d="M307.05 238.82C308.65 231.71 308.68 227.44 309.02 224.6C310.02 228.87 310.19 234.56 309.85 238.82Z" fill="{{green_deep}}"/>
<path d="M308.65 238.82C310.65 233.07 313.33 229.62 314.33 227.32C315.33 230.77 312.45 235.37 311.45 238.82Z" fill="{{green_deep}}"/>
<path d="M414.65 237.65C415.45 229.07 408.28 223.92 407.28 220.49C408.28 225.64 416.45 232.5 417.45 237.65Z" fill="{{green_deep}}"/>
<path d="M416.25 237.65C417.45 231.16 417.46 227.27 417.13 224.67C418.13 228.56 418.71 233.76 419.05 237.65Z" fill="{{green_deep}}"/>
<path d="M417.85 237.65C419.45 230.35 419.63 225.97 419.97 223.05C420.97 227.43 420.98 233.27 420.65 237.65Z" fill="{{green_deep}}"/>
<path d="M419.45 237.65C421.45 226.97 426.23 220.56 427.23 216.29C428.23 222.7 423.25 231.24 422.25 237.65Z" fill="{{green_deep}}"/>
<rect x="133.72" y="233.27" width="2.2" height="5.96" rx="1.1" fill="{{sand}}"/>
<path d="M129.86 233.76C129.86 228.31 139.78 228.31 139.78 233.76Z" fill="{{accent_warm}}"/>
<rect x="197.7" y="234.84" width="2.2" height="4.87" rx="1.1" fill="{{sand}}"/>
<path d="M194.74 235.25C194.74 230.78 202.86 230.78 202.86 235.25Z" fill="{{earth_mid}}"/>
<rect x="238.37" y="242.45" width="2.2" height="3.72" rx="1.1" fill="{{sand}}"/>
<path d="M236.37 242.76C236.37 239.35 242.58 239.35 242.58 242.76Z" fill="{{accent_warm}}"/>
<rect x="299.95" y="236.9" width="2.2" height="5.16" rx="1.1" fill="{{sand}}"/>
<path d="M296.75 237.33C296.75 232.59 305.36 232.59 305.36 237.33Z" fill="{{earth_mid}}"/>
<ellipse cx="111.9" cy="243.66" rx="2.71" ry="1.73" fill="{{earth_mid}}" opacity="0.9"/>
<ellipse cx="130.06" cy="243.53" rx="3.69" ry="2.15" fill="{{earth_mid}}" opacity="0.9"/>
<ellipse cx="392.87" cy="246.07" rx="3.29" ry="2.33" fill="{{earth_mid}}" opacity="0.9"/>
<ellipse cx="323.25" cy="244.11" rx="4.4" ry="1.76" fill="{{earth_mid}}" opacity="0.9"/>
<ellipse cx="252.28" cy="245.1" rx="2.98" ry="2.29" fill="{{earth_mid}}" opacity="0.9"/>
<ellipse cx="294.16" cy="246.02" rx="4.47" ry="2.8" fill="{{earth_mid}}" opacity="0.9"/>
</svg>
