<svg viewBox="0 0 512 384" xmlns="http://www.w3.org/2000/svg">
<defs><linearGradient x1="0" y1="202" x2="0" y2="244" gradientUnits="userSpaceOnUse" id="soil-mid-g0"><stop offset="0" stop-color="{{green_mid}}"/><stop offset="1" stop-color="{{green_deep}}"/></linearGradient><linearGradient x1="0" y1="178.06" x2="0" y2="214.46" gradientUnits="userSpaceOnUse" id="soil-mid-g1"><stop offset="0" stop-color="{{green_mid}}"/><stop offset="1" stop-color="{{green_deep}}"/></linearGradient><linearGradient x1="0" y1="178.79" x2="0" y2="221.17" gradientUnits="userSpaceOnUse" id="soil-mid-g2"><stop offset="0" stop-color="{{green_mid}}"/><stop offset="1" stop-color="{{green_deep}}"/></linearGradient><linearGradient x1="0" y1="175.91" x2="0" y2="223.05" gradientUnits="userSpaceOnUse" id="soil-mid-g3"><stop offset="0" stop-color="{{green_mid}}"/><stop offset="1" stop-color="{{green_deep}}"/></linearGradient></defs>
<path d="M435.32 225.26C425.47 227.77 390.65 230.4 361.15 231.79C331.65 233.17 293.55 233.44 258.32 233.57C223.08 233.7 175.79 234 149.73 232.57C123.67 231.15 109.92 227.57 101.94 225.03C93.95 222.49 94.95 219.94 101.82 217.34C108.69 214.74 117.92 211.17 143.18 209.42C168.44 207.68 217.86 206.74 253.39 206.85C288.92 206.95 328.55 208.43 356.36 210.07C384.17 211.71 407.09 214.17 420.25 216.7C433.41 219.24 445.17 222.75 435.32 225.26Z" fill="url(#soil-mid-g0)"/>
<rect x="119.5" y="227.6" width="273" height="7" rx="3.5" fill="{{earth_mid}}" opacity="0.95"/>
<rect x="135.1" y="234.6" width="241.8" height="3" rx="1.5" fill="{{sand}}" opacity="0.9"/>
<rect x="146.8" y="237.6" width="218.4" height="5" rx="2.5" fill="{{earth_deep}}" opacity="0.95"/>
<circle cx="229.84" cy="236.85" r="1.53" fill="{{earth_deep}}" opacity="0.6"/>
<circle cx="348.42" cy="238.3" r="1.65" fill="{{earth_deep}}" opacity="0.6"/>
<circle cx="310.72" cy="236.34" r="2.43" fill="{{earth_deep}}" opacity="0.6"/>
<circle cx="281.69" cy="234.04" r="2.34" fill="{{earth_deep}}" opacity="0.6"/>
<circle cx="295.82" cy="238.23" r="2.74" fill="{{earth_deep}}" opacity="0.6"/>
<circle cx="273.54" cy="233.87" r="1.87" fill="{{earth_deep}}" opacity="0.6"/>
<path d="M168.69 201.26C169.58 205.05 165.93 211.21 160.5 213.77C155.07 216.32 143.84 216.29 136.12 216.6C128.4 216.9 121.47 216.99 114.18 215.6C106.9 214.2 95.41 211.67 92.42 208.24C89.43 204.8 93.32 199.14 96.25 194.97C99.17 190.81 103.18 185.12 109.96 183.25C116.73 181.38 129.35 182.47 136.88 183.76C144.42 185.05 149.86 188.07 155.16 190.99C160.47 193.9 167.8 197.46 168.69 201.26Z" fill="{{green_deep}}" opacity="0.66"/>
<path d="M158.64 196.26C158.32 200.34 159.36 205.59 154.92 208.1C150.49 210.61 139.76 210.66 132.02 211.32C124.29 211.98 115.61 213.42 108.51 212.05C101.41 210.67 93.05 206.9 89.41 203.06C85.76 199.21 83.79 193.02 86.63 188.95C89.47 184.89 98.57 180.82 106.44 178.67C114.3 176.52 125.44 175.23 133.84 176.05C142.23 176.88 152.69 180.24 156.83 183.61C160.96 186.98 158.95 192.17 158.64 196.26Z" fill="url(#soil-mid-g1)" opacity="0.82"/>
<path d="M133.03 188.98C132.49 190.95 129.92 192.62 126.65 194.01C123.37 195.4 117.09 197.68 113.35 197.32C109.62 196.96 106.23 193.82 104.23 191.85C102.22 189.88 99.61 186.99 101.32 185.48C103.03 183.97 109.71 183.36 114.47 182.81C119.22 182.25 126.76 181.13 129.86 182.15C132.95 183.18 133.56 187 133.03 188.98Z" fill="{{glow}}" opacity="0.14"/>
<path d="M312.22 204.98C311.3 209.35 304 213.41 298.33 216.87C292.65 220.32 286.06 224.66 278.18 225.71C270.3 226.76 258.85 225.36 251.04 223.17C243.23 220.97 234.72 216.86 231.32 212.55C227.91 208.23 227.8 202.02 230.59 197.28C233.38 192.53 240.09 186.36 248.05 184.09C256.02 181.83 269.07 182.57 278.38 183.67C287.68 184.76 298.24 187.11 303.88 190.66C309.52 194.22 313.15 200.61 312.22 204.98Z" fill="{{green_deep}}" opacity="0.66"/>
<path d="M305.14 199.98C306.26 204.65 307.89 212.51 302.56 215.47C297.24 218.44 282.94 216.84 273.18 217.75C263.41 218.66 251.71 222.63 243.96 220.95C236.21 219.27 228.15 212.18 226.67 207.67C225.2 203.16 231.32 197.83 235.14 193.9C238.96 189.97 242.94 187 249.6 184.1C256.26 181.2 267.4 175.96 275.1 176.52C282.8 177.08 290.79 183.54 295.79 187.45C300.8 191.36 304.01 195.31 305.14 199.98Z" fill="url(#soil-mid-g2)" opacity="0.82"/>
<path d="M275.62 191.5C275.94 193.47 271.92 196.53 268.12 197.96C264.32 199.39 257.01 200.62 252.8 200.07C248.59 199.52 245.13 196.75 242.88 194.66C240.63 192.57 237.57 189.36 239.29 187.55C241.02 185.73 248.74 184.01 253.21 183.78C257.69 183.56 262.42 184.9 266.16 186.19C269.89 187.48 275.29 189.54 275.62 191.5Z" fill="{{glow}}" opacity="0.14"/>
<path d="M432.15 204.48C431.71 209.23 424.67 214.61 418.99 218.06C413.31 221.51 405.64 224.27 398.08 225.18C390.53 226.09 379.93 225.83 373.64 223.53C367.36 221.23 362.96 215.79 360.36 211.38C357.76 206.97 356.36 201.95 358.05 197.08C359.73 192.21 363.59 185.1 370.48 182.15C377.37 179.2 390.85 178.15 399.38 179.38C407.9 180.62 416.18 185.39 421.64 189.57C427.1 193.76 432.59 199.73 432.15 204.48Z" fill="{{green_deep}}" opacity="0.66"/>
<path d="M429.36 199.48C430.25 204.51 426.46 212.09 420.7 215.93C414.93 219.76 403.4 221.9 394.76 222.47C386.11 223.05 376.74 221.72 368.83 219.37C360.93 217.01 350.67 213.09 347.34 208.35C344 203.61 345.28 195.76 348.84 190.94C352.4 186.12 361.15 181.43 368.68 179.44C376.21 177.44 386.25 177.93 394.03 178.98C401.8 180.03 409.45 182.31 415.34 185.73C421.23 189.15 428.46 194.45 429.36 199.48Z" fill="url(#soil-mid-g3)" opacity="0.82"/>
<path d="M398.49 190.05C398.07 192.55 392.18 195.1 388.11 196.7C384.04 198.3 378.55 200.03 374.05 199.65C369.55 199.27 362.59 196.58 361.12 194.43C359.64 192.27 363.01 189 365.19 186.73C367.37 184.45 369.95 181.6 374.18 180.77C378.42 179.94 386.55 180.2 390.6 181.74C394.66 183.29 398.91 187.56 398.49 190.05Z" fill="{{glow}}" opacity="0.14"/>
</svg>
