<svg viewBox="0 0 128 128" xmlns="http://www.w3.org/2000/svg">
<defs><radialGradient cx="64" cy="66" r="22" gradientUnits="userSpaceOnUse" id="sanctuary-elsewhere-unknown-g0"><stop offset="0" stop-color="{{glow}}" stop-opacity="0.5"/><stop offset="1" stop-color="{{glow}}" stop-opacity="0"/></radialGradient><linearGradient x1="0" y1="53" x2="0" y2="79" gradientUnits="userSpaceOnUse" id="sanctuary-elsewhere-unknown-g1"><stop offset="0" stop-color="{{cloud}}"/><stop offset="1" stop-color="{{glow}}"/></linearGradient></defs>
<ellipse cx="64" cy="121.5" rx="9" ry="1.98" fill="{{earth_deep}}" opacity="0.1"/>
<circle cx="64" cy="66" r="22" fill="url(#sanctuary-elsewhere-unknown-g0)"/>
<path d="M61 82C52 92 66 98 60 108C70 99 58 93 66 83Z" fill="{{cloud}}" opacity="0.55"/>
<path d="M76.09 66C76.17 68.66 74.34 72.32 72.62 74.21C70.9 76.11 68.09 77 65.77 77.39C63.44 77.77 60.77 77.67 58.65 76.53C56.53 75.39 53.91 73.02 53.04 70.53C52.17 68.05 52.58 64.28 53.45 61.64C54.32 59 56.17 56.05 58.26 54.7C60.34 53.34 63.63 52.9 65.94 53.49C68.26 54.08 70.45 56.15 72.15 58.23C73.84 60.32 76.01 63.34 76.09 66Z" fill="url(#sanctuary-elsewhere-unknown-g1)"/>
<circle cx="60.6" cy="64" r="1.7" fill="{{earth_deep}}" opacity="0.8"/>
<circle cx="67.4" cy="64" r="1.7" fill="{{earth_deep}}" opacity="0.8"/>
<circle cx="48" cy="54" r="1.6" fill="{{glow}}" opacity="0.8"/>
<circle cx="79" cy="60" r="1.3" fill="{{glow}}" opacity="0.8"/>
<circle cx="74" cy="82" r="1.1" fill="{{glow}}" opacity="0.8"/>
</svg>
