<svg viewBox="0 0 128 128" xmlns="http://www.w3.org/2000/svg">
<defs><linearGradient x1="0" y1="44" x2="0" y2="72" gradientUnits="userSpaceOnUse" id="sanctuary-meadow-monarch-g0"><stop offset="0" stop-color="{{accent_warm}}"/><stop offset="1" stop-color="{{glow}}"/></linearGradient></defs>
<ellipse cx="64" cy="121.5" rx="9" ry="1.98" fill="{{earth_deep}}" opacity="0.12"/>
<path d="M58.61 45.75C62.12 47.87 64.07 53.2 64.24 56.72C64.4 60.23 62.47 64.36 59.59 66.84C56.71 69.32 51.22 71.83 46.96 71.62C42.7 71.4 36.31 68.59 34.01 65.54C31.7 62.49 31.59 56.9 33.12 53.31C34.65 49.71 38.94 45.23 43.19 43.97C47.44 42.71 55.11 43.62 58.61 45.75Z" fill="{{earth_deep}}"/>
<path d="M57.4 47.53C61.03 49.35 65.25 53.5 65.56 56.64C65.86 59.78 62.29 64.21 59.23 66.35C56.18 68.49 51.24 69.72 47.24 69.46C43.25 69.19 37.44 67.38 35.26 64.76C33.07 62.14 32.73 56.88 34.16 53.71C35.58 50.54 39.93 46.77 43.81 45.74C47.68 44.71 53.78 45.71 57.4 47.53Z" fill="url(#sanctuary-meadow-monarch-g0)"/>
<path d="M48.17 65.36C50.6 64.33 55.05 65.3 57.68 66.56C60.31 67.82 63.12 70.31 63.94 72.92C64.76 75.54 64.44 80.37 62.58 82.26C60.73 84.16 55.86 84.48 52.8 84.28C49.75 84.09 45.87 83.04 44.25 81.12C42.64 79.2 42.45 75.38 43.11 72.75C43.76 70.13 45.74 66.4 48.17 65.36Z" fill="{{earth_deep}}"/>
<path d="M49.4 67.93C51.69 66.99 55.24 66.39 57.34 67.29C59.44 68.18 61.33 70.99 62.01 73.32C62.68 75.65 62.92 79.38 61.39 81.27C59.85 83.15 55.42 84.82 52.79 84.63C50.16 84.44 47.11 82.06 45.59 80.11C44.06 78.15 43 74.93 43.63 72.9C44.27 70.87 47.12 68.86 49.4 67.93Z" fill="{{accent_warm}}" fill-opacity="0.92"/>
<circle cx="42" cy="52" r="1.6" fill="{{cloud}}"/>
<circle cx="55" cy="80" r="1.3" fill="{{cloud}}"/>
<path d="M88.61 70.25C85.23 72.01 78.42 71.12 74.08 69.89C69.73 68.66 64.13 66.06 62.53 62.86C60.93 59.67 62.09 53.84 64.48 50.7C66.88 47.55 72.67 44.28 76.9 43.98C81.13 43.69 86.97 46.37 89.88 48.92C92.79 51.47 94.57 55.74 94.35 59.29C94.14 62.84 91.99 68.48 88.61 70.25Z" fill="{{earth_deep}}"/>
<path d="M86.27 67.06C83.03 68.77 77.85 70.25 74.15 69.46C70.44 68.67 65.42 65.29 64.06 62.31C62.7 59.34 63.83 54.53 65.98 51.6C68.13 48.66 73.01 45.08 76.96 44.69C80.91 44.31 86.91 46.87 89.68 49.29C92.45 51.7 94.14 56.24 93.57 59.2C93.01 62.16 89.51 65.35 86.27 67.06Z" fill="url(#sanctuary-meadow-monarch-g0)"/>
<path d="M70.44 84.1C67.7 83.1 64.25 80.32 63.36 77.65C62.46 74.97 63.16 70.31 65.06 68.05C66.96 65.78 71.49 64.11 74.76 64.05C78.04 63.98 82.7 65.45 84.7 67.65C86.7 69.84 87.57 74.56 86.76 77.23C85.94 79.9 82.51 82.5 79.79 83.65C77.07 84.79 73.18 85.1 70.44 84.1Z" fill="{{earth_deep}}"/>
<path d="M70.92 83.03C68.66 82.22 65.95 79.36 65.38 77.16C64.8 74.95 65.91 71.68 67.48 69.82C69.05 67.95 72.3 66.02 74.8 65.95C77.3 65.88 80.84 67.59 82.49 69.4C84.14 71.22 85.3 74.72 84.7 76.81C84.11 78.91 81.23 80.96 78.93 81.99C76.63 83.03 73.18 83.83 70.92 83.03Z" fill="{{accent_warm}}" fill-opacity="0.92"/>
<circle cx="86" cy="52" r="1.6" fill="{{cloud}}"/>
<circle cx="73" cy="80" r="1.3" fill="{{cloud}}"/>
<ellipse cx="64" cy="66" rx="2.6" ry="11" fill="{{bark}}"/>
<circle cx="64" cy="53" r="3" fill="{{bark}}"/>
<path d="M63 51C60 44 57 42 56 41C57.6 43.6 60.6 46 62.2 51.4Z" fill="{{bark}}"/>
<path d="M65 51C68 44 71 42 72 41C70.4 43.6 67.4 46 65.8 51.4Z" fill="{{bark}}"/>
</svg>
