<svg viewBox="0 0 128 128" xmlns="http://www.w3.org/2000/svg">
<defs><linearGradient x1="0" y1="44" x2="0" y2="72" gradientUnits="userSpaceOnUse" id="sanctuary-meadow-butterfly-g0"><stop offset="0" stop-color="{{accent_cool}}"/><stop offset="1" stop-color="{{water}}"/></linearGradient></defs>
<ellipse cx="64" cy="121.5" rx="9" ry="1.98" fill="{{earth_deep}}" opacity="0.12"/>
<path d="M58.36 46.08C62.03 47.84 65.85 53.1 66.06 56.57C66.27 60.03 62.84 64.17 59.62 66.87C56.41 69.56 51.05 72.96 46.79 72.73C42.54 72.5 36.44 68.75 34.1 65.49C31.76 62.24 31.11 56.45 32.77 53.21C34.42 49.96 39.77 47.19 44.03 46.01C48.3 44.82 54.68 44.32 58.36 46.08Z" fill="{{green_deep}}"/>
<path d="M57.86 46.96C61.31 48.56 64.94 53.52 65.08 56.68C65.22 59.84 61.67 63.83 58.7 65.92C55.74 68 50.98 69.49 47.29 69.19C43.59 68.89 38.64 66.67 36.55 64.12C34.47 61.57 33.48 56.74 34.78 53.89C36.08 51.05 40.52 48.21 44.36 47.06C48.21 45.9 54.41 45.36 57.86 46.96Z" fill="url(#sanctuary-meadow-butterfly-g0)"/>
<path d="M48.73 66.49C51.52 65.19 56.07 63.64 58.71 64.7C61.35 65.75 64.01 69.95 64.56 72.81C65.11 75.66 63.99 79.77 62.03 81.84C60.06 83.91 55.79 85.29 52.78 85.2C49.77 85.11 45.78 83.42 43.99 81.3C42.19 79.19 41.21 74.97 42 72.5C42.79 70.03 45.95 67.79 48.73 66.49Z" fill="{{green_deep}}"/>
<path d="M49.16 67.45C51.75 66.53 55.18 66.09 57.48 67.04C59.77 67.99 62.45 70.9 62.93 73.14C63.4 75.38 62.02 78.8 60.34 80.48C58.65 82.16 55.19 83.33 52.82 83.21C50.45 83.09 47.92 81.53 46.11 79.75C44.29 77.97 41.44 74.57 41.95 72.52C42.46 70.47 46.57 68.36 49.16 67.45Z" fill="{{accent_cool}}" fill-opacity="0.92"/>
<circle cx="49" cy="58" r="2.4" fill="{{glow}}" opacity="0.85"/>
<path d="M87.06 68.27C83.19 70.36 77.13 72.91 73.22 71.96C69.31 71 64.96 66.03 63.61 62.54C62.27 59.06 62.9 53.9 65.14 51.03C67.39 48.16 72.73 45.87 77.1 45.31C81.47 44.75 88.15 45.32 91.37 47.68C94.6 50.04 97.17 56.03 96.45 59.47C95.74 62.9 90.94 66.19 87.06 68.27Z" fill="{{green_deep}}"/>
<path d="M87.44 68.52C84.29 70.15 77.9 70.1 74.35 68.97C70.81 67.83 67.34 64.49 66.17 61.7C65.01 58.92 65.55 55.11 67.35 52.27C69.15 49.44 73.12 45.29 76.96 44.7C80.8 44.1 87.67 46.3 90.39 48.71C93.1 51.12 93.74 55.87 93.24 59.17C92.75 62.47 90.59 66.89 87.44 68.52Z" fill="url(#sanctuary-meadow-butterfly-g0)"/>
<path d="M69.86 85.25C67.1 84.08 64.29 80.24 63.76 77.56C63.22 74.87 64.82 71.43 66.65 69.16C68.48 66.89 72.03 63.98 74.76 63.93C77.5 63.89 80.97 66.67 83.05 68.9C85.13 71.13 87.68 74.7 87.22 77.32C86.76 79.93 83.2 83.26 80.31 84.58C77.42 85.9 72.62 86.42 69.86 85.25Z" fill="{{green_deep}}"/>
<path d="M71 82.87C68.55 81.83 65.71 79.46 65.05 77.23C64.39 75 65.39 71.16 67.02 69.5C68.65 67.83 72.38 67.15 74.83 67.23C77.28 67.31 80.19 68.39 81.74 69.97C83.28 71.54 84.44 74.46 84.11 76.7C83.77 78.95 81.92 82.39 79.73 83.42C77.55 84.45 73.45 83.9 71 82.87Z" fill="{{accent_cool}}" fill-opacity="0.92"/>
<circle cx="79" cy="58" r="2.4" fill="{{glow}}" opacity="0.85"/>
<ellipse cx="64" cy="66" rx="2.6" ry="11" fill="{{bark}}"/>
<circle cx="64" cy="53" r="3" fill="{{bark}}"/>
<path d="M63 51C60 44 57 42 56 41C57.6 43.6 60.6 46 62.2 51.4Z" fill="{{bark}}"/>
<path d="M65 51C68 44 71 42 72 41C70.4 43.6 67.4 46 65.8 51.4Z" fill="{{bark}}"/>
</svg>
