<svg viewBox="0 0 128 128" xmlns="http://www.w3.org/2000/svg">
<defs><linearGradient x1="0" y1="40" x2="0" y2="52" gradientUnits="userSpaceOnUse" id="sanctuary-meadow-pollination-moment-g0"><stop offset="0" stop-color="{{glow}}"/><stop offset="1" stop-color="{{accent_warm}}"/></linearGradient></defs>
<ellipse cx="64" cy="121.5" rx="15" ry="3.3" fill="{{earth_deep}}" opacity="0.16"/>
<path d="M52.2 124C52.2 101 51.28 87.2 52 78C52.72 89.5 55.8 103.3 55.8 124Z" fill="{{green_deep}}"/>
<path d="M50.6 108C50.6 100 35.04 95.2 36 92C36.96 96 55.4 100.8 55.4 108Z" fill="{{green_mid}}"/>
<circle cx="52" cy="59.5" r="6.63" fill="{{accent_cool}}"/>
<circle cx="60.08" cy="65.37" r="6.63" fill="{{accent_cool}}"/>
<circle cx="57" cy="74.88" r="6.63" fill="{{accent_cool}}"/>
<circle cx="47" cy="74.88" r="6.63" fill="{{accent_cool}}"/>
<circle cx="43.92" cy="65.37" r="6.63" fill="{{accent_cool}}"/>
<circle cx="52" cy="68" r="5.27" fill="{{glow}}"/>
<ellipse cx="81" cy="39" rx="6" ry="4" fill="{{cloud}}" opacity="0.85"/>
<ellipse cx="88" cy="38.4" rx="5" ry="3.4" fill="{{cloud}}" opacity="0.75"/>
<path d="M94.03 46C93.97 47.86 92.81 50.05 91.14 51.44C89.47 52.83 86.38 54.35 84 54.34C81.62 54.34 78.56 52.82 76.88 51.42C75.21 50.03 74.06 47.89 73.95 46C73.85 44.11 74.59 41.42 76.26 40.1C77.94 38.79 81.46 38.1 84 38.13C86.54 38.16 89.82 38.98 91.5 40.29C93.17 41.6 94.09 44.14 94.03 46Z" fill="{{earth_deep}}"/>
<path d="M92.67 46C92.7 47.42 91.57 49.29 90.13 50.33C88.68 51.37 86.02 52.26 84 52.24C81.98 52.22 79.53 51.25 78.04 50.21C76.54 49.17 75.08 47.44 75.03 46C74.99 44.56 76.27 42.57 77.77 41.6C79.26 40.63 81.97 40.13 84 40.16C86.03 40.19 88.53 40.81 89.97 41.78C91.42 42.76 92.64 44.58 92.67 46Z" fill="url(#sanctuary-meadow-pollination-moment-g0)"/>
<ellipse cx="82" cy="46" rx="1.6" ry="5.6" fill="{{earth_deep}}"/>
<ellipse cx="87" cy="46" rx="1.4" ry="5" fill="{{earth_deep}}"/>
<circle cx="72" cy="56" r="1.3" fill="{{glow}}" opacity="0.7"/>
<circle cx="65" cy="61.5" r="1.3" fill="{{glow}}" opacity="0.55"/>
<circle cx="58" cy="67" r="1.3" fill="{{glow}}" opacity="0.4"/>
</svg>
