<svg viewBox="0 0 128 128" xmlns="http://www.w3.org/2000/svg">
<defs><linearGradient x1="0" y1="60" x2="0" y2="80" gradientUnits="userSpaceOnUse" id="sanctuary-meadow-hummingbird-g0"><stop offset="0" stop-color="{{green_mid}}"/><stop offset="1" stop-color="{{green_deep}}"/></linearGradient></defs>
<ellipse cx="64" cy="121.5" rx="8" ry="1.76" fill="{{earth_deep}}" opacity="0.12"/>
<path d="M64.41 60.37C63.29 62.91 60.95 64.26 59.22 63.92C57.5 63.57 54.9 61.43 54.04 58.29C53.18 55.14 53.45 48.96 54.07 45.04C54.7 41.12 56.16 36.14 57.77 34.75C59.39 33.37 62.4 34.41 63.77 36.73C65.13 39.05 65.84 44.73 65.95 48.67C66.05 52.61 65.53 57.83 64.41 60.37Z" fill="{{cloud}}" opacity="0.75"/>
<path d="M78.91 70C78.86 72.77 76.73 76.14 74.25 78.2C71.76 80.25 67.46 82.3 64 82.34C60.54 82.37 55.95 80.46 53.49 78.4C51.04 76.35 49.32 72.83 49.29 70C49.26 67.17 50.86 63.33 53.32 61.45C55.77 59.58 60.46 58.71 64 58.73C67.54 58.75 72.05 59.7 74.53 61.57C77.02 63.45 78.96 67.23 78.91 70Z" fill="{{green_deep}}"/>
<path d="M76.57 70C76.72 72.29 75.48 75.54 73.39 77.22C71.29 78.9 67.06 80.13 64 80.08C60.94 80.03 57.13 78.59 55.02 76.91C52.9 75.23 51.28 72.27 51.33 70C51.37 67.73 53.18 64.87 55.3 63.3C57.41 61.74 61.13 60.57 64 60.6C66.87 60.62 70.4 61.9 72.49 63.47C74.59 65.03 76.42 67.71 76.57 70Z" fill="url(#sanctuary-meadow-hummingbird-g0)"/>
<circle cx="74" cy="62" r="6.5" fill="{{green_mid}}"/>
<path d="M79 61L98 63.6L79 64Z" fill="{{earth_deep}}"/>
<circle cx="76" cy="60" r="1.4" fill="{{earth_deep}}"/>
<path d="M75.34 71C75.38 72.03 74.55 73.74 73.43 74.27C72.31 74.81 69.7 74.77 68.6 74.23C67.51 73.68 66.82 72 66.87 71C66.93 70 67.9 68.72 68.94 68.23C69.99 67.75 72.1 67.63 73.16 68.09C74.23 68.55 75.29 69.97 75.34 71Z" fill="{{accent_warm}}"/>
<path d="M53 72L38 84L46 85L56 77Z" fill="{{green_deep}}"/>
</svg>
