<svg viewBox="0 0 128 128" xmlns="http://www.w3.org/2000/svg">
<defs><linearGradient x1="0" y1="92" x2="0" y2="122" gradientUnits="userSpaceOnUse" id="sanctuary-pond-bullfrog-g0"><stop offset="0" stop-color="{{green_mid}}"/><stop offset="1" stop-color="{{green_deep}}"/></linearGradient></defs>
<ellipse cx="64" cy="121.5" rx="26" ry="5.72" fill="{{earth_deep}}" opacity="0.16"/>
<path d="M50.18 120C50.16 121.08 48.86 122.56 47.21 123.18C45.55 123.79 41.93 124.23 40.26 123.7C38.59 123.17 37.08 121.13 37.19 120C37.3 118.87 39.21 117.48 40.9 116.93C42.59 116.38 45.79 116.18 47.34 116.69C48.89 117.2 50.2 118.92 50.18 120Z" fill="{{green_deep}}"/>
<path d="M91.62 120C91.64 121.26 89.74 123.23 87.87 123.83C85.99 124.42 82.33 124.21 80.39 123.57C78.45 122.93 76.19 121.13 76.25 120C76.32 118.87 78.85 117.42 80.77 116.8C82.69 116.18 85.94 115.75 87.75 116.28C89.56 116.82 91.61 118.74 91.62 120Z" fill="{{green_deep}}"/>
<path d="M86.68 107C86.67 110.67 85.61 115.32 82.49 117.99C79.37 120.66 73.04 122.4 67.98 123C62.92 123.6 56.57 123.27 52.12 121.58C47.66 119.89 43.09 116.28 41.26 112.86C39.43 109.45 39.28 104.47 41.12 101.1C42.97 97.74 47.79 94.54 52.32 92.67C56.84 90.79 63.23 89.29 68.27 89.84C73.31 90.39 79.48 93.12 82.55 95.98C85.61 98.84 86.69 103.33 86.68 107Z" fill="{{green_deep}}"/>
<path d="M85.01 107C85.16 110.2 84.1 114.49 81.21 116.85C78.32 119.21 72.35 120.64 67.66 121.15C62.97 121.66 56.93 121.46 53.07 119.9C49.22 118.35 46.18 114.84 44.53 111.83C42.88 108.82 41.76 104.79 43.19 101.84C44.62 98.88 48.95 95.87 53.09 94.12C57.24 92.37 63.51 90.75 68.05 91.34C72.59 91.93 77.5 95.05 80.32 97.66C83.15 100.27 84.86 103.8 85.01 107Z" fill="url(#sanctuary-pond-bullfrog-g0)"/>
<path d="M76.7 113.75C76.81 115.37 75.5 117.75 72.86 118.8C70.21 119.84 64.38 120.41 60.85 120.02C57.32 119.63 53.09 117.92 51.66 116.45C50.24 114.98 50.73 112.61 52.3 111.19C53.87 109.77 57.76 108.28 61.07 107.92C64.39 107.57 69.6 108.11 72.2 109.08C74.8 110.05 76.59 112.13 76.7 113.75Z" fill="{{glow}}" opacity="0.35"/>
<circle cx="64" cy="116.3" r="6.5" fill="{{accent_warm}}" opacity="0.75"/>
<circle cx="51.9" cy="93" r="5.4" fill="{{green_mid}}"/>
<circle cx="51.9" cy="92" r="3" fill="{{cloud}}"/>
<circle cx="51.9" cy="92" r="1.4" fill="{{earth_deep}}"/>
<circle cx="76.1" cy="93" r="5.4" fill="{{green_mid}}"/>
<circle cx="76.1" cy="92" r="3" fill="{{cloud}}"/>
<circle cx="76.1" cy="92" r="1.4" fill="{{earth_deep}}"/>
</svg>
