<svg viewBox="0 0 128 128" xmlns="http://www.w3.org/2000/svg">
<defs><linearGradient x1="0" y1="90" x2="0" y2="118" gradientUnits="userSpaceOnUse" id="sanctuary-pond-mollusca-g0"><stop offset="0" stop-color="{{bark}}"/><stop offset="1" stop-color="{{earth_deep}}"/></linearGradient></defs>
<ellipse cx="64" cy="121.5" rx="14" ry="3.08" fill="{{earth_deep}}" opacity="0.16"/>
<path d="M80.42 119C80.64 120.36 80.58 122.31 77.51 123.27C74.44 124.22 66.76 124.83 62 124.72C57.24 124.6 52.32 123.54 48.94 122.59C45.56 121.64 42.01 120.28 41.72 119C41.43 117.72 43.8 115.77 47.18 114.93C50.56 114.09 57.16 113.93 62 113.96C66.84 113.99 73.13 114.26 76.19 115.1C79.26 115.94 80.2 117.64 80.42 119Z" fill="{{sand}}"/>
<circle cx="80" cy="112" r="5" fill="{{sand}}"/>
<path d="M78 108C76 102 75 100 74 99C74.4 101.4 75.6 105 76.6 109Z" fill="{{sand}}"/>
<circle cx="74" cy="99" r="1.2" fill="{{earth_deep}}"/>
<path d="M82 108C84 102 85 100 86 99C85.6 101.4 84.4 105 83.4 109Z" fill="{{sand}}"/>
<circle cx="86" cy="99" r="1.2" fill="{{earth_deep}}"/>
<path d="M75.29 104C75.32 107.7 72.77 112.52 69.89 115.19C67.01 117.86 61.95 120.03 58 120.02C54.05 120.01 49.09 117.8 46.18 115.12C43.27 112.45 40.51 107.67 40.56 104C40.6 100.33 43.54 95.78 46.44 93.12C49.35 90.47 54.13 88.11 58 88.09C61.87 88.08 66.8 90.36 69.68 93.01C72.56 95.66 75.25 100.3 75.29 104Z" fill="{{earth_deep}}"/>
<path d="M72.74 104C72.74 107.27 70.95 111.39 68.5 113.8C66.04 116.2 61.58 118.36 58 118.44C54.42 118.52 49.46 116.68 46.99 114.27C44.53 111.87 43.1 107.32 43.22 104C43.33 100.68 45.22 96.8 47.68 94.37C50.15 91.94 54.53 89.44 58 89.41C61.47 89.39 66.04 91.77 68.5 94.2C70.95 96.64 72.74 100.73 72.74 104Z" fill="url(#sanctuary-pond-mollusca-g0)"/>
<circle cx="58" cy="104" r="9" fill="{{sand}}" opacity="0.9"/>
<circle cx="60" cy="102" r="5" fill="{{earth_mid}}"/>
<circle cx="61.5" cy="100.5" r="2.2" fill="{{earth_deep}}"/>
</svg>
