<svg viewBox="0 0 128 128" xmlns="http://www.w3.org/2000/svg">
<defs><linearGradient x1="0" y1="50" x2="0" y2="78" gradientUnits="userSpaceOnUse" id="sanctuary-pond-dragonfly-g0"><stop offset="0" stop-color="{{accent_cool}}"/><stop offset="1" stop-color="{{water}}"/></linearGradient></defs>
<ellipse cx="64" cy="121.5" rx="8" ry="1.76" fill="{{earth_deep}}" opacity="0.12"/>
<path d="M54.5 124C54.5 91 59.4 71.2 60 58C60.6 74.5 57.5 94.3 57.5 124Z" fill="{{green_deep}}"/>
<ellipse cx="47" cy="51" rx="15" ry="4" fill="{{cloud}}" opacity="0.6" transform="rotate(12 47 51)"/>
<ellipse cx="49" cy="57" rx="13" ry="3.4" fill="{{cloud}}" opacity="0.5" transform="rotate(-8 49 57)"/>
<ellipse cx="77" cy="51" rx="15" ry="4" fill="{{cloud}}" opacity="0.6" transform="rotate(-12 77 51)"/>
<ellipse cx="75" cy="57" rx="13" ry="3.4" fill="{{cloud}}" opacity="0.5" transform="rotate(8 75 57)"/>
<ellipse cx="62" cy="64" rx="2.2" ry="14" fill="url(#sanctuary-pond-dragonfly-g0)"/>
<circle cx="62" cy="48" r="3.6" fill="{{accent_cool}}"/>
<circle cx="59.6" cy="47" r="1.8" fill="{{earth_deep}}"/>
<circle cx="64.4" cy="47" r="1.8" fill="{{earth_deep}}"/>
</svg>
