<svg viewBox="0 0 128 128" xmlns="http://www.w3.org/2000/svg">
<defs><linearGradient x1="0" y1="86" x2="0" y2="110" gradientUnits="userSpaceOnUse" id="sanctuary-pond-actinopterygii-g0"><stop offset="0" stop-color="{{accent_cool}}"/><stop offset="1" stop-color="{{water}}"/></linearGradient></defs>
<ellipse cx="64" cy="118" rx="26" ry="5" fill="{{water}}" opacity="0.5"/>
<path d="M48 98L34 87L37 98L34 109Z" fill="{{accent_cool}}"/>
<path d="M87.63 98C87.8 100.96 86.1 104.85 83.13 107.15C80.16 109.44 74.51 111.29 69.82 111.79C65.13 112.29 58.94 111.66 54.99 110.13C51.04 108.6 47.65 105.41 46.11 102.61C44.58 99.8 44.37 96.17 45.79 93.32C47.21 90.47 50.61 87.11 54.65 85.49C58.68 83.86 65.42 82.93 70 83.58C74.57 84.23 79.18 86.99 82.12 89.39C85.06 91.79 87.46 95.04 87.63 98Z" fill="{{green_deep}}"/>
<path d="M85.23 98C85.05 100.56 83.35 103.49 80.71 105.41C78.07 107.32 73.44 109.05 69.38 109.49C65.31 109.93 59.88 109.31 56.33 108.05C52.79 106.78 49.76 104.3 48.1 101.91C46.44 99.52 45.11 96.16 46.37 93.71C47.63 91.27 51.81 88.5 55.66 87.25C59.51 86 65.1 85.75 69.46 86.21C73.83 86.67 79.2 88.07 81.83 90.03C84.45 92 85.42 95.44 85.23 98Z" fill="url(#sanctuary-pond-actinopterygii-g0)"/>
<path d="M71.73 96C71.75 98.42 70.61 102.24 69.18 103.34C67.75 104.44 64.68 103.81 63.15 102.59C61.61 101.37 59.98 98.21 59.97 96C59.96 93.79 61.59 90.53 63.11 89.33C64.64 88.14 67.66 87.74 69.1 88.85C70.53 89.96 71.72 93.58 71.73 96Z" fill="{{water}}" opacity="0.85"/>
<circle cx="79" cy="94" r="2.8" fill="{{cloud}}"/>
<circle cx="79.8" cy="94" r="1.4" fill="{{earth_deep}}"/>
<circle cx="90" cy="82" r="1.4" fill="{{cloud}}" opacity="0.7"/>
<circle cx="94" cy="73" r="2" fill="{{cloud}}" opacity="0.7"/>
<circle cx="98" cy="64" r="2.6" fill="{{cloud}}" opacity="0.7"/>
</svg>
