<svg viewBox="0 0 128 128" xmlns="http://www.w3.org/2000/svg">
<defs><linearGradient x1="0" y1="98" x2="0" y2="122" gradientUnits="userSpaceOnUse" id="sanctuary-pond-amphibia-g0"><stop offset="0" stop-color="{{green_mid}}"/><stop offset="1" stop-color="{{green_deep}}"/></linearGradient></defs>
<ellipse cx="64" cy="121.5" rx="21" ry="4.62" fill="{{earth_deep}}" opacity="0.16"/>
<path d="M56.05 120C56.07 121.18 54.38 123.02 52.63 123.6C50.88 124.17 47.26 124.02 45.54 123.42C43.82 122.83 42.34 121.14 42.34 120C42.34 118.86 43.86 117.17 45.56 116.59C47.25 116.01 50.76 115.96 52.5 116.53C54.25 117.1 56.03 118.82 56.05 120Z" fill="{{green_deep}}"/>
<path d="M86.6 120C86.59 121.17 84.35 122.88 82.5 123.46C80.64 124.04 77.35 124.07 75.47 123.49C73.6 122.91 71.32 121.22 71.26 120C71.21 118.78 73.25 116.77 75.14 116.18C77.02 115.59 80.67 115.82 82.58 116.45C84.49 117.09 86.62 118.83 86.6 120Z" fill="{{green_deep}}"/>
<path d="M83.1 110C83.15 113.06 81.62 117 78.98 119.26C76.33 121.52 71.29 123.11 67.24 123.54C63.19 123.98 58.3 123.31 54.69 121.88C51.08 120.45 46.92 117.71 45.56 114.95C44.2 112.18 44.99 108.11 46.52 105.31C48.05 102.51 51.24 99.7 54.72 98.15C58.19 96.6 63.34 95.57 67.34 96.03C71.34 96.48 76.09 98.57 78.72 100.9C81.35 103.23 83.06 106.94 83.1 110Z" fill="{{green_deep}}"/>
<path d="M81.67 110C81.63 112.58 79.43 115.76 76.96 117.67C74.49 119.59 70.49 120.97 66.87 121.48C63.25 121.98 58.39 121.93 55.24 120.7C52.1 119.48 49.08 116.55 48 114.11C46.92 111.67 47.47 108.46 48.75 106.08C50.03 103.7 52.64 101.16 55.68 99.82C58.71 98.49 63.39 97.69 66.98 98.08C70.57 98.47 74.77 100.18 77.22 102.17C79.67 104.15 81.72 107.42 81.67 110Z" fill="url(#sanctuary-pond-amphibia-g0)"/>
<path d="M74.92 115.4C74.89 116.71 72.77 118.51 70.58 119.28C68.38 120.06 64.45 120.33 61.75 120.04C59.04 119.76 55.42 118.69 54.36 117.59C53.29 116.49 54.12 114.54 55.37 113.44C56.62 112.35 59.3 111.34 61.87 111C64.43 110.66 68.58 110.68 70.76 111.41C72.93 112.14 74.95 114.09 74.92 115.4Z" fill="{{glow}}" opacity="0.35"/>
<circle cx="54.65" cy="99" r="4.6" fill="{{green_mid}}"/>
<circle cx="54.65" cy="98" r="2.6" fill="{{cloud}}"/>
<circle cx="54.65" cy="98" r="1.4" fill="{{earth_deep}}"/>
<circle cx="73.35" cy="99" r="4.6" fill="{{green_mid}}"/>
<circle cx="73.35" cy="98" r="2.6" fill="{{cloud}}"/>
<circle cx="73.35" cy="98" r="1.4" fill="{{earth_deep}}"/>
</svg>
