<svg viewBox="0 0 128 128" xmlns="http://www.w3.org/2000/svg">
<defs><linearGradient x1="0" y1="106" x2="0" y2="124" gradientUnits="userSpaceOnUse" id="sanctuary-soil-fungi-g0"><stop offset="0" stop-color="{{cloud}}"/><stop offset="1" stop-color="{{sand}}"/></linearGradient><linearGradient x1="0" y1="93.9" x2="0" y2="106" gradientUnits="userSpaceOnUse" id="sanctuary-soil-fungi-g1"><stop offset="0" stop-color="{{sand}}"/><stop offset="1" stop-color="{{earth_mid}}"/></linearGradient><linearGradient x1="0" y1="100" x2="0" y2="124" gradientUnits="userSpaceOnUse" id="sanctuary-soil-fungi-g2"><stop offset="0" stop-color="{{cloud}}"/><stop offset="1" stop-color="{{sand}}"/></linearGradient><linearGradient x1="0" y1="85.7" x2="0" y2="100" gradientUnits="userSpaceOnUse" id="sanctuary-soil-fungi-g3"><stop offset="0" stop-color="{{earth_mid}}"/><stop offset="1" stop-color="{{earth_mid}}"/></linearGradient><linearGradient x1="0" y1="113" x2="0" y2="124" gradientUnits="userSpaceOnUse" id="sanctuary-soil-fungi-g4"><stop offset="0" stop-color="{{cloud}}"/><stop offset="1" stop-color="{{sand}}"/></linearGradient><linearGradient x1="0" y1="104.2" x2="0" y2="113" gradientUnits="userSpaceOnUse" id="sanctuary-soil-fungi-g5"><stop offset="0" stop-color="{{sand}}"/><stop offset="1" stop-color="{{earth_mid}}"/></linearGradient></defs>
<ellipse cx="64" cy="121.5" rx="17" ry="3.74" fill="{{earth_deep}}" opacity="0.16"/>
<rect x="49.36" y="106" width="5.28" height="18" rx="2.64" fill="url(#sanctuary-soil-fungi-g0)"/>
<path d="M63.63 110.18C62.49 111.86 59.22 113.39 56.46 114.11C53.7 114.83 49.65 115.22 47.08 114.52C44.52 113.81 42.06 111.63 41.04 109.88C40.02 108.12 39.91 105.69 40.96 103.98C42.02 102.27 44.71 100.34 47.36 99.6C50.01 98.86 54.22 98.8 56.87 99.54C59.53 100.28 62.18 102.26 63.3 104.03C64.43 105.81 64.77 108.5 63.63 110.18Z" fill="{{earth_deep}}" opacity="0.9"/>
<path d="M41 106C42.1 92.8 61.9 92.8 63 106Z" fill="url(#sanctuary-soil-fungi-g1)"/>
<circle cx="47.6" cy="100.5" r="1.54" fill="{{glow}}" opacity="0.7"/>
<rect x="71.88" y="100" width="6.24" height="24" rx="3.12" fill="url(#sanctuary-soil-fungi-g2)"/>
<path d="M88.55 104.68C87.27 106.69 83.68 108.76 80.44 109.63C77.21 110.5 72.25 110.75 69.16 109.88C66.07 109.01 63.06 106.47 61.91 104.42C60.76 102.36 61.02 99.6 62.26 97.54C63.5 95.47 66.23 92.93 69.33 92.02C72.43 91.11 77.73 91.16 80.86 92.09C83.99 93.01 86.84 95.48 88.12 97.58C89.4 99.68 89.83 102.68 88.55 104.68Z" fill="{{earth_deep}}" opacity="0.9"/>
<path d="M62 100C63.3 84.4 86.7 84.4 88 100Z" fill="url(#sanctuary-soil-fungi-g3)"/>
<circle cx="69.8" cy="93.5" r="1.82" fill="{{glow}}" opacity="0.7"/>
<rect x="63.08" y="113" width="3.84" height="11" rx="1.92" fill="url(#sanctuary-soil-fungi-g4)"/>
<path d="M73.92 116.47C73 117.78 70.46 118.98 68.39 119.47C66.32 119.97 63.47 119.99 61.48 119.46C59.49 118.92 57.36 117.59 56.47 116.27C55.57 114.95 55.26 112.83 56.11 111.54C56.97 110.24 59.49 109.08 61.6 108.51C63.72 107.94 66.74 107.59 68.8 108.11C70.85 108.63 73.09 110.23 73.94 111.62C74.8 113.02 74.85 115.16 73.92 116.47Z" fill="{{earth_deep}}" opacity="0.9"/>
<path d="M57 113C57.8 103.4 72.2 103.4 73 113Z" fill="url(#sanctuary-soil-fungi-g5)"/>
<circle cx="61.8" cy="109" r="1.12" fill="{{glow}}" opacity="0.7"/>
</svg>
