<svg viewBox="0 0 128 128" xmlns="http://www.w3.org/2000/svg">
<defs><linearGradient x1="0" y1="102" x2="0" y2="124" gradientUnits="userSpaceOnUse" id="sanctuary-soil-fungi-on-the-log-moment-g0"><stop offset="0" stop-color="{{bark}}"/><stop offset="1" stop-color="{{earth_deep}}"/></linearGradient><linearGradient x1="0" y1="94" x2="0" y2="104" gradientUnits="userSpaceOnUse" id="sanctuary-soil-fungi-on-the-log-moment-g1"><stop offset="0" stop-color="{{sand}}"/><stop offset="1" stop-color="{{earth_mid}}"/></linearGradient><linearGradient x1="0" y1="94" x2="0" y2="104" gradientUnits="userSpaceOnUse" id="sanctuary-soil-fungi-on-the-log-moment-g2"><stop offset="0" stop-color="{{accent_warm}}"/><stop offset="1" stop-color="{{earth_mid}}"/></linearGradient></defs>
<ellipse cx="64" cy="121.5" rx="30" ry="6.6" fill="{{earth_deep}}" opacity="0.16"/>
<rect x="34" y="102" width="60" height="22" rx="10" fill="url(#sanctuary-soil-fungi-on-the-log-moment-g0)"/>
<ellipse cx="94" cy="113" rx="6" ry="11" fill="{{sand}}"/>
<ellipse cx="94" cy="113" rx="3.4" ry="6.6" fill="{{earth_mid}}"/>
<ellipse cx="94" cy="113" rx="1.4" ry="3" fill="{{earth_deep}}"/>
<path d="M36.3 102A7.7 7.7 0 0 1 51.7 102Z" fill="{{earth_deep}}" opacity="0.9"/>
<path d="M37.5 102A6.5 6.5 0 0 1 50.5 102Z" fill="url(#sanctuary-soil-fungi-on-the-log-moment-g1)"/>
<path d="M51.1 101.4A6.9 6.9 0 0 1 64.9 101.4Z" fill="{{earth_deep}}" opacity="0.9"/>
<path d="M52.3 101.4A5.7 5.7 0 0 1 63.7 101.4Z" fill="url(#sanctuary-soil-fungi-on-the-log-moment-g2)"/>
<path d="M65.9 100.8A6.1 6.1 0 0 1 78.1 100.8Z" fill="{{earth_deep}}" opacity="0.9"/>
<path d="M67.1 100.8A4.9 4.9 0 0 1 76.9 100.8Z" fill="url(#sanctuary-soil-fungi-on-the-log-moment-g1)"/>
<path d="M44.35 104C44.51 104.9 43.12 106.71 41.6 107.12C40.07 107.52 36.63 106.95 35.19 106.43C33.75 105.91 33.06 104.89 32.96 104C32.87 103.11 33.33 101.44 34.61 101.06C35.89 100.69 39 101.24 40.62 101.73C42.24 102.22 44.18 103.1 44.35 104Z" fill="{{green_mid}}" opacity="0.8"/>
</svg>
