<svg viewBox="0 0 128 128" xmlns="http://www.w3.org/2000/svg">
<path d="M93.12 120C93.15 121.04 87.61 122.32 83.53 123.15C79.44 123.98 73.78 124.88 68.59 125C63.39 125.13 57.59 124.4 52.35 123.88C47.11 123.36 39.2 122.81 37.15 121.88C35.09 120.95 37.61 119.33 40 118.32C42.4 117.31 46.72 116.44 51.52 115.84C56.32 115.25 63.51 114.58 68.81 114.75C74.11 114.92 79.27 116.01 83.32 116.88C87.38 117.76 93.08 118.96 93.12 120Z" fill="{{earth_mid}}"/>
<circle cx="40" cy="106.35" r="5.84" fill="{{earth_deep}}"/>
<circle cx="49.6" cy="101.61" r="6.64" fill="{{earth_deep}}"/>
<circle cx="59.2" cy="110.12" r="7.44" fill="{{earth_deep}}"/>
<circle cx="68.8" cy="119.02" r="6.96" fill="{{earth_deep}}"/>
<circle cx="78.4" cy="114.9" r="6.16" fill="{{earth_deep}}"/>
<circle cx="88" cy="102.35" r="5.36" fill="{{earth_deep}}"/>
<circle cx="40" cy="106.35" r="4.64" fill="{{accent_warm}}"/>
<circle cx="49.6" cy="101.61" r="5.44" fill="{{accent_warm}}"/>
<circle cx="59.2" cy="110.12" r="6.24" fill="{{accent_warm}}"/>
<circle cx="68.8" cy="119.02" r="5.76" fill="{{accent_warm}}"/>
<circle cx="78.4" cy="114.9" r="4.96" fill="{{accent_warm}}"/>
<circle cx="88" cy="102.35" r="4.16" fill="{{accent_warm}}"/>
<circle cx="88" cy="101.35" r="1" fill="{{earth_deep}}"/>
<path d="M54.56 101.61C54.55 102.85 53.26 104.64 52.01 105.28C50.77 105.92 48.35 106.06 47.08 105.44C45.82 104.83 44.39 102.84 44.42 101.61C44.45 100.37 45.99 98.68 47.26 98.05C48.54 97.41 50.87 97.22 52.09 97.81C53.3 98.41 54.57 100.36 54.56 101.61Z" fill="{{glow}}" opacity="0.25"/>
</svg>
