<svg viewBox="0 0 128 128" xmlns="http://www.w3.org/2000/svg">
<defs><linearGradient x1="0" y1="83" x2="0" y2="113" gradientUnits="userSpaceOnUse" id="sanctuary-urban-raccoon-g0"><stop offset="0" stop-color="{{earth_mid}}"/><stop offset="1" stop-color="{{earth_deep}}"/></linearGradient></defs>
<ellipse cx="64" cy="121.5" rx="17" ry="3.74" fill="{{earth_deep}}" opacity="0.16"/>
<circle cx="80" cy="118" r="7" fill="{{earth_deep}}"/>
<circle cx="90" cy="110" r="6.2" fill="{{sand}}"/>
<circle cx="93" cy="98" r="5.4" fill="{{earth_deep}}"/>
<circle cx="90" cy="88" r="4.6" fill="{{sand}}"/>
<path d="M81.65 98C81.46 101.59 78.52 105.64 75.78 108.35C73.04 111.06 69.02 113.63 65.21 114.26C61.39 114.9 56.24 113.93 52.88 112.14C49.51 110.35 46.38 106.82 45.03 103.53C43.68 100.23 43.44 95.63 44.77 92.39C46.1 89.14 49.58 85.89 53 84.06C56.42 82.22 61.29 80.91 65.28 81.36C69.27 81.81 74.21 84.01 76.94 86.78C79.67 89.55 81.85 94.41 81.65 98Z" fill="{{earth_deep}}"/>
<path d="M78.65 98C78.51 101.13 76.56 104.67 74.26 107.08C71.97 109.49 68.26 111.97 64.89 112.47C61.53 112.98 57.25 111.68 54.06 110.13C50.87 108.59 47.12 106.12 45.73 103.22C44.35 100.33 44.45 95.82 45.75 92.78C47.04 89.74 50.29 86.55 53.49 84.99C56.68 83.43 61.31 82.87 64.91 83.42C68.52 83.97 72.82 85.86 75.11 88.29C77.4 90.73 78.8 94.87 78.65 98Z" fill="url(#sanctuary-urban-raccoon-g0)"/>
<path d="M57 74L51 67L50.4 75.6Z" fill="{{earth_deep}}"/>
<path d="M67 74L73 67L73.6 75.6Z" fill="{{earth_deep}}"/>
<path d="M73.3 82C73.36 84.08 71.71 86.96 69.82 88.4C67.94 89.84 64.61 90.64 62 90.64C59.39 90.65 56.04 89.86 54.15 88.42C52.27 86.98 50.62 84.1 50.67 82C50.72 79.9 52.54 77.26 54.43 75.81C56.32 74.36 59.5 73.3 62 73.31C64.5 73.33 67.56 74.46 69.45 75.91C71.33 77.35 73.23 79.92 73.3 82Z" fill="{{cloud}}"/>
<ellipse cx="62" cy="80.4" rx="10.4" ry="3.6" fill="{{earth_deep}}"/>
<circle cx="57.4" cy="80.4" r="1.5" fill="{{cloud}}"/>
<circle cx="66.6" cy="80.4" r="1.5" fill="{{cloud}}"/>
<circle cx="62" cy="86" r="1.8" fill="{{earth_deep}}"/>
</svg>
