<svg viewBox="0 0 128 128" xmlns="http://www.w3.org/2000/svg">
<defs><linearGradient x1="0" y1="88" x2="0" y2="112" gradientUnits="userSpaceOnUse" id="sanctuary-urban-aves-g0"><stop offset="0" stop-color="{{cloud}}"/><stop offset="1" stop-color="{{earth_mid}}"/></linearGradient></defs>
<ellipse cx="64" cy="121.5" rx="13" ry="2.86" fill="{{earth_deep}}" opacity="0.16"/>
<rect x="59" y="117" width="2" height="7" rx="1" fill="{{accent_warm}}"/>
<rect x="67" y="117" width="2" height="7" rx="1" fill="{{accent_warm}}"/>
<path d="M80.9 100C80.87 102.95 79.02 106.41 76.71 108.78C74.4 111.15 70.64 113.57 67.04 114.22C63.45 114.87 58.4 114.22 55.11 112.68C51.82 111.14 48.56 107.93 47.32 105C46.08 102.07 46.26 97.9 47.67 95.1C49.07 92.31 52.53 89.66 55.73 88.21C58.94 86.76 63.38 85.91 66.91 86.39C70.45 86.86 74.61 88.79 76.94 91.06C79.27 93.32 80.94 97.05 80.9 100Z" fill="{{earth_deep}}"/>
<path d="M79.8 100C79.75 102.47 77.1 105.42 74.89 107.31C72.67 109.2 69.58 110.81 66.5 111.35C63.42 111.88 59.22 111.69 56.43 110.5C53.63 109.3 50.77 106.58 49.71 104.16C48.66 101.74 48.96 98.36 50.11 95.95C51.25 93.55 53.82 91.15 56.6 89.74C59.37 88.34 63.66 87.06 66.75 87.52C69.84 87.99 72.98 90.43 75.16 92.51C77.33 94.59 79.84 97.53 79.8 100Z" fill="url(#sanctuary-urban-aves-g0)"/>
<path d="M68.33 101C68.32 102.59 66.1 104.69 64.22 105.73C62.34 106.77 59.22 107.56 57.03 107.24C54.84 106.91 52.04 105.26 51.06 103.76C50.08 102.27 50.17 99.79 51.15 98.27C52.14 96.75 54.8 94.99 56.99 94.65C59.18 94.31 62.4 95.15 64.29 96.21C66.18 97.27 68.34 99.41 68.33 101Z" fill="{{earth_mid}}" opacity="0.9"/>
<path d="M50 103L39 109L51 109.4Z" fill="{{earth_deep}}"/>
<circle cx="75" cy="90" r="6" fill="{{accent_cool}}"/>
<circle cx="75" cy="90" r="6" fill="{{cloud}}" opacity="0.35"/>
<circle cx="77" cy="88.6" r="1.3" fill="{{earth_deep}}"/>
<path d="M80.4 90L85 91.4L80 92.4Z" fill="{{accent_warm}}"/>
</svg>
