<svg viewBox="0 0 128 128" xmlns="http://www.w3.org/2000/svg">
<defs><linearGradient x1="0" y1="88" x2="0" y2="108" gradientUnits="userSpaceOnUse" id="sanctuary-woodland-aves-g0"><stop offset="0" stop-color="{{accent_cool}}"/><stop offset="1" stop-color="{{green_deep}}"/></linearGradient></defs>
<ellipse cx="64" cy="121.5" rx="14" ry="3.08" fill="{{earth_deep}}" opacity="0.12"/>
<path d="M38 122C54 116 76 116 90 112C76 119.4 54 119.4 38 125Z" fill="{{bark}}"/>
<path d="M56 102L42 112L54 111Z" fill="{{green_deep}}"/>
<path d="M77.79 98C77.94 100.8 76.57 104.73 74.27 106.8C71.97 108.87 67.31 110.51 64 110.41C60.69 110.32 56.7 108.3 54.4 106.23C52.1 104.16 50.3 100.83 50.2 98C50.09 95.17 51.48 91.3 53.78 89.24C56.08 87.18 60.74 85.54 64 85.67C67.26 85.79 71.05 87.93 73.35 89.98C75.65 92.04 77.64 95.2 77.79 98Z" fill="{{green_deep}}"/>
<path d="M75.64 98C75.57 100.31 74.06 103.1 72.12 104.77C70.18 106.44 66.79 107.95 64 108.01C61.21 108.08 57.27 106.83 55.4 105.16C53.53 103.5 52.71 100.31 52.8 98C52.89 95.69 54.07 92.89 55.94 91.28C57.8 89.68 61.24 88.44 64 88.37C66.76 88.31 70.59 89.29 72.53 90.89C74.47 92.5 75.71 95.69 75.64 98Z" fill="url(#sanctuary-woodland-aves-g0)"/>
<path d="M72.5 101C72.47 102.5 71.82 104.46 70.47 105.4C69.11 106.34 66.17 106.98 64.36 106.65C62.55 106.32 60.31 104.73 59.6 103.42C58.9 102.11 59.33 100.12 60.13 98.78C60.92 97.44 62.62 95.78 64.37 95.39C66.12 95 69.29 95.49 70.64 96.43C71.99 97.36 72.53 99.5 72.5 101Z" fill="{{glow}}" opacity="0.5"/>
<circle cx="72" cy="89" r="5.4" fill="{{accent_cool}}"/>
<circle cx="73.6" cy="87.6" r="1.2" fill="{{earth_deep}}"/>
<path d="M77 89L82 90.4L76.6 91.6Z" fill="{{accent_warm}}"/>
</svg>
