<svg viewBox="0 0 128 128" xmlns="http://www.w3.org/2000/svg">
<defs><linearGradient x1="0" y1="77" x2="0" y2="99" gradientUnits="userSpaceOnUse" id="sanctuary-woodland-white-tailed-deer-g0"><stop offset="0" stop-color="{{sand}}"/><stop offset="1" stop-color="{{earth_mid}}"/></linearGradient></defs>
<ellipse cx="64" cy="121.5" rx="20" ry="4.4" fill="{{earth_deep}}" opacity="0.16"/>
<path d="M50 96L47.6 124L50.4 124L54 96Z" fill="{{bark}}"/>
<path d="M58 96L59.8 124L62.6 124L62 96Z" fill="{{bark}}"/>
<path d="M68 96L67.4 124L70.2 124L72 96Z" fill="{{bark}}"/>
<path d="M75 96L78.6 124L81.4 124L79 96Z" fill="{{bark}}"/>
<path d="M85.09 88C85 90.76 83.32 93.98 80.46 96.16C77.6 98.34 72.39 100.67 67.91 101.09C63.42 101.52 57.65 100.15 53.54 98.71C49.42 97.27 44.76 94.96 43.22 92.47C41.69 89.98 42.68 86.37 44.33 83.77C45.98 81.17 49.22 78.29 53.13 76.87C57.04 75.46 63.15 74.85 67.79 75.3C72.43 75.76 78.08 77.47 80.96 79.59C83.84 81.71 85.17 85.24 85.09 88Z" fill="{{bark}}"/>
<path d="M85.03 88C85.26 90.33 82.85 93.63 79.89 95.33C76.93 97.03 71.52 97.89 67.27 98.2C63.02 98.5 57.98 98.26 54.37 97.18C50.76 96.09 47.28 93.86 45.62 91.68C43.96 89.5 43.06 86.33 44.41 84.08C45.75 81.83 49.85 79.34 53.7 78.19C57.54 77.03 63.35 76.63 67.48 77.15C71.61 77.68 75.54 79.52 78.47 81.32C81.39 83.13 84.79 85.67 85.03 88Z" fill="url(#sanctuary-woodland-white-tailed-deer-g0)"/>
<path d="M48.61 82C48.64 83.68 48.14 86.48 47.21 87.26C46.28 88.04 44.08 87.58 43.03 86.7C41.97 85.82 40.83 83.5 40.86 82C40.89 80.5 42.18 78.53 43.2 77.72C44.23 76.92 46.12 76.47 47.02 77.19C47.92 77.9 48.57 80.32 48.61 82Z" fill="{{cloud}}"/>
<path d="M77 84C81 74 83 66 85 61L91 63C89 74 87 82 86 90Z" fill="{{earth_mid}}"/>
<path d="M95.17 60C95.18 61.33 94.42 63.27 93.17 64.02C91.92 64.78 89.26 64.89 87.65 64.55C86.04 64.22 84.35 63.17 83.54 62.02C82.72 60.88 82.11 58.89 82.77 57.69C83.42 56.49 85.74 55.09 87.46 54.81C89.19 54.54 91.82 55.17 93.11 56.04C94.39 56.9 95.16 58.67 95.17 60Z" fill="{{earth_mid}}"/>
<path d="M93 58L99 59L94 61.6Z" fill="{{sand}}"/>
<path d="M84 56L81 48L86 55Z" fill="{{bark}}"/>
<path d="M89 56L86 48L91 55Z" fill="{{bark}}"/>
<circle cx="91" cy="58.6" r="1.2" fill="{{earth_deep}}"/>
<circle cx="95" cy="60" r="1.1" fill="{{earth_deep}}"/>
</svg>
