<svg viewBox="0 0 128 128" xmlns="http://www.w3.org/2000/svg">
<defs><linearGradient x1="0" y1="78" x2="0" y2="124" gradientUnits="userSpaceOnUse" id="sanctuary-woodland-mammalia-g0"><stop offset="0" stop-color="{{accent_warm}}"/><stop offset="1" stop-color="{{bark}}"/></linearGradient><linearGradient x1="0" y1="89" x2="0" y2="115" gradientUnits="userSpaceOnUse" id="sanctuary-woodland-mammalia-g1"><stop offset="0" stop-color="{{accent_warm}}"/><stop offset="1" stop-color="{{bark}}"/></linearGradient></defs>
<ellipse cx="64" cy="121.5" rx="13" ry="2.86" fill="{{earth_deep}}" opacity="0.16"/>
<path d="M54 120C34 114 34 82 50 78C42 86 44 104 56 112Z" fill="url(#sanctuary-woodland-mammalia-g0)"/>
<path d="M80.19 102C80.24 105.42 78.09 109.89 75.73 112.42C73.36 114.96 69.35 117.1 66 117.21C62.65 117.32 58.04 115.62 55.65 113.08C53.27 110.55 51.6 105.58 51.7 102C51.81 98.42 53.91 94.08 56.3 91.6C58.68 89.12 62.81 87.07 66 87.12C69.19 87.17 73.07 89.41 75.44 91.89C77.8 94.37 80.14 98.58 80.19 102Z" fill="{{bark}}"/>
<path d="M78.39 102C78.38 105.03 76.43 108.99 74.37 111.06C72.3 113.14 68.86 114.39 66 114.47C63.14 114.55 59.15 113.63 57.18 111.55C55.21 109.48 54.17 105.2 54.16 102C54.15 98.8 55.13 94.6 57.11 92.37C59.08 90.14 63.11 88.53 66 88.62C68.89 88.7 72.36 90.64 74.43 92.87C76.5 95.1 78.4 98.97 78.39 102Z" fill="url(#sanctuary-woodland-mammalia-g1)"/>
<path d="M72.82 107C72.85 108.52 71.39 110.75 70.03 111.66C68.67 112.58 66.32 112.84 64.64 112.51C62.96 112.18 60.76 111.06 59.96 109.69C59.15 108.31 59.03 105.65 59.8 104.25C60.58 102.85 62.91 101.58 64.59 101.29C66.27 101 68.49 101.57 69.87 102.52C71.24 103.48 72.8 105.48 72.82 107Z" fill="{{cloud}}" opacity="0.6"/>
<circle cx="73" cy="90" r="6.4" fill="{{accent_warm}}"/>
<path d="M69 85L68 79L72.4 83Z" fill="{{bark}}"/>
<circle cx="75.4" cy="88.6" r="1.3" fill="{{earth_deep}}"/>
<circle cx="72" cy="104" r="3" fill="{{sand}}"/>
</svg>
