<svg viewBox="0 0 128 128" xmlns="http://www.w3.org/2000/svg">
<defs><linearGradient x1="0" y1="84" x2="0" y2="116" gradientUnits="userSpaceOnUse" id="sanctuary-woodland-red-fox-g0"><stop offset="0" stop-color="{{accent_warm}}"/><stop offset="1" stop-color="{{bark}}"/></linearGradient></defs>
<ellipse cx="64" cy="121.5" rx="16" ry="3.52" fill="{{earth_deep}}" opacity="0.16"/>
<path d="M72 120C94 122 98 106 88 100C94 110 88 118 72 116Z" fill="{{accent_warm}}"/>
<circle cx="90" cy="101" r="4.4" fill="{{cloud}}"/>
<path d="M77.74 100C77.66 103.91 76.37 108.63 74.19 111.51C72.02 114.39 68 116.71 64.7 117.25C61.41 117.79 57.25 116.65 54.43 114.75C51.61 112.85 49.11 109.36 47.76 105.83C46.42 102.3 45.31 97.17 46.34 93.59C47.37 90 50.88 86.18 53.95 84.31C57.02 82.45 61.31 81.75 64.76 82.38C68.21 83 72.48 85.12 74.65 88.06C76.81 91 77.81 96.09 77.74 100Z" fill="{{bark}}"/>
<path d="M75.87 100C75.96 103.28 74.41 107.27 72.54 110.1C70.66 112.93 67.49 116.46 64.62 116.97C61.75 117.49 57.86 115.15 55.34 113.19C52.81 111.23 50.54 108.31 49.48 105.21C48.41 102.11 47.94 97.57 48.95 94.57C49.97 91.58 52.96 89.06 55.56 87.25C58.15 85.43 61.78 83.15 64.52 83.68C67.25 84.21 70.08 87.72 71.97 90.44C73.86 93.16 75.77 96.72 75.87 100Z" fill="url(#sanctuary-woodland-red-fox-g0)"/>
<path d="M67.86 108C67.86 109.75 66.59 112.18 65.2 113.27C63.81 114.36 61.25 114.91 59.51 114.53C57.76 114.16 55.48 112.59 54.73 111.02C53.98 109.45 54.21 106.71 55 105.11C55.8 103.51 57.8 101.82 59.5 101.43C61.2 101.03 63.8 101.65 65.19 102.74C66.58 103.84 67.86 106.25 67.86 108Z" fill="{{cloud}}" opacity="0.75"/>
<path d="M58.6 76L53 67L52 77.6Z" fill="{{accent_warm}}"/>
<path d="M56.6 75L53.6 69.6L53 76Z" fill="{{earth_deep}}"/>
<path d="M65.4 76L71 67L72 77.6Z" fill="{{accent_warm}}"/>
<path d="M67.4 75L70.4 69.6L71 76Z" fill="{{earth_deep}}"/>
<path d="M71.68 82C71.7 83.97 70.68 86.66 69.07 87.95C67.45 89.24 64.3 89.77 62 89.72C59.7 89.68 56.9 88.97 55.25 87.69C53.6 86.4 52.17 83.94 52.12 82C52.07 80.06 53.29 77.46 54.94 76.05C56.59 74.64 59.66 73.53 62 73.55C64.34 73.56 67.35 74.73 68.96 76.14C70.58 77.55 71.67 80.03 71.68 82Z" fill="{{accent_warm}}"/>
<path d="M58 84C60 89 64 89 66 84Z" fill="{{cloud}}"/>
<circle cx="62" cy="87" r="1.6" fill="{{earth_deep}}"/>
<circle cx="58" cy="81" r="1.3" fill="{{earth_deep}}"/>
<circle cx="66" cy="81" r="1.3" fill="{{earth_deep}}"/>
</svg>
