<svg viewBox="0 0 128 128" xmlns="http://www.w3.org/2000/svg">
<defs><linearGradient x1="0" y1="101" x2="0" y2="125" gradientUnits="userSpaceOnUse" id="bush-large-g0"><stop offset="0" stop-color="{{green_mid}}"/><stop offset="1" stop-color="{{green_deep}}"/></linearGradient><linearGradient x1="0" y1="91" x2="0" y2="125" gradientUnits="userSpaceOnUse" id="bush-large-g1"><stop offset="0" stop-color="{{green_mid}}"/><stop offset="1" stop-color="{{green_deep}}"/></linearGradient></defs>
<ellipse cx="64" cy="121.5" rx="22" ry="4.84" fill="{{earth_deep}}" opacity="0.16"/>
<path d="M63.59 116C63.93 118.53 63.72 122.14 61.96 124.32C60.21 126.49 56.04 128.91 53.08 129.04C50.13 129.18 46.96 126.6 44.25 125.13C41.54 123.67 38.18 122.51 36.81 120.24C35.43 117.97 34.91 113.97 36 111.51C37.08 109.04 40.54 106.43 43.3 105.45C46.05 104.47 49.76 105.01 52.53 105.63C55.3 106.25 58.08 107.43 59.92 109.15C61.76 110.88 63.25 113.47 63.59 116Z" fill="{{green_deep}}"/>
<path d="M60.18 113C60.37 115.43 60.37 118.94 58.7 120.7C57.04 122.46 53.21 122.99 50.17 123.57C47.14 124.15 43.29 125.16 40.48 124.16C37.67 123.16 34.01 120.05 33.32 117.58C32.63 115.11 35.11 111.96 36.32 109.35C37.52 106.75 38.16 103.45 40.54 101.93C42.93 100.4 47.79 99.52 50.63 100.22C53.47 100.91 56.01 103.96 57.6 106.09C59.19 108.22 60 110.57 60.18 113Z" fill="url(#bush-large-g0)"/>
<path d="M49.55 107.96C49.64 109.17 49.18 111.21 48.02 111.85C46.86 112.48 44.16 112.13 42.61 111.79C41.06 111.44 39.53 110.77 38.7 109.76C37.87 108.76 36.99 106.76 37.63 105.78C38.26 104.79 40.88 104.07 42.53 103.86C44.17 103.66 46.31 103.88 47.48 104.57C48.65 105.25 49.46 106.75 49.55 107.96Z" fill="{{glow}}" opacity="0.16"/>
<path d="M80.28 111C80.1 114.4 77.81 117.97 75.89 120.67C73.98 123.38 71.41 126.59 68.76 127.23C66.1 127.88 62.66 126.21 59.97 124.52C57.28 122.83 53.78 120.35 52.59 117.1C51.41 113.85 51.65 108.29 52.88 105.03C54.12 101.77 57.36 99.26 60 97.55C62.65 95.83 65.94 94.29 68.76 94.74C71.59 95.19 75.03 97.54 76.95 100.25C78.86 102.97 80.45 107.6 80.28 111Z" fill="{{green_deep}}"/>
<path d="M77.76 108C77.73 112.11 77.89 117.52 75.98 120.21C74.08 122.9 69.34 124.04 66.34 124.11C63.34 124.19 60.75 122.28 57.99 120.64C55.23 119.01 51.04 117.39 49.78 114.29C48.52 111.18 49.19 105.43 50.42 102C51.66 98.57 54.56 95.3 57.2 93.7C59.84 92.1 63.1 92.07 66.27 92.38C69.43 92.69 74.28 92.97 76.19 95.58C78.11 98.18 77.8 103.89 77.76 108Z" fill="url(#bush-large-g1)"/>
<path d="M64.88 100.86C64.88 102.67 64.99 105.47 63.96 106.29C62.93 107.12 60.36 106.23 58.72 105.8C57.08 105.37 54.95 105.04 54.12 103.71C53.28 102.37 52.92 99.13 53.68 97.79C54.44 96.46 56.96 96.11 58.67 95.71C60.39 95.32 62.95 94.55 63.98 95.4C65.02 96.26 64.89 99.05 64.88 100.86Z" fill="{{glow}}" opacity="0.16"/>
<path d="M94.78 116C94.73 118.4 93.91 121.06 92.26 123.09C90.62 125.13 87.71 127.7 84.91 128.22C82.12 128.74 78.36 127.51 75.51 126.23C72.65 124.96 68.61 122.88 67.79 120.56C66.98 118.24 69.25 114.68 70.6 112.32C71.96 109.96 73.6 107.64 75.94 106.41C78.29 105.18 81.9 104.56 84.68 104.94C87.45 105.31 90.91 106.83 92.59 108.67C94.28 110.51 94.84 113.6 94.78 116Z" fill="{{green_deep}}"/>
<path d="M93.45 113C93.33 115.28 90.96 117.51 89.15 119.58C87.33 121.65 85.09 125.02 82.55 125.42C80.02 125.81 76.38 123.41 73.96 121.96C71.55 120.52 69.52 118.99 68.06 116.73C66.59 114.46 64.28 110.65 65.15 108.37C66.02 106.08 70.35 104.45 73.28 103.02C76.21 101.6 79.94 99.33 82.71 99.81C85.48 100.29 88.1 103.69 89.89 105.89C91.68 108.09 93.57 110.72 93.45 113Z" fill="url(#bush-large-g0)"/>
<path d="M80.74 107.96C80.81 109.18 81.04 111.14 80 111.83C78.96 112.52 76.18 112.42 74.51 112.12C72.83 111.82 70.72 111.08 69.94 110.03C69.17 108.99 69.13 107.01 69.86 105.86C70.59 104.71 72.69 103.36 74.3 103.13C75.91 102.91 78.47 103.7 79.55 104.51C80.62 105.31 80.66 106.74 80.74 107.96Z" fill="{{glow}}" opacity="0.16"/>
<circle cx="72.35" cy="108.43" r="1.7" fill="{{accent_cool}}"/>
<circle cx="46.48" cy="108.66" r="1.7" fill="{{accent_cool}}"/>
<circle cx="67.25" cy="108.05" r="1.7" fill="{{accent_cool}}"/>
<circle cx="72.23" cy="106.79" r="1.7" fill="{{accent_cool}}"/>
<circle cx="80.95" cy="106.67" r="1.7" fill="{{accent_cool}}"/>
</svg>
