<svg viewBox="0 0 128 128" xmlns="http://www.w3.org/2000/svg">
<defs><linearGradient x1="0" y1="101" x2="0" y2="125" gradientUnits="userSpaceOnUse" id="bush-g0"><stop offset="0" stop-color="{{green_mid}}"/><stop offset="1" stop-color="{{green_deep}}"/></linearGradient><linearGradient x1="0" y1="91" x2="0" y2="125" gradientUnits="userSpaceOnUse" id="bush-g1"><stop offset="0" stop-color="{{green_mid}}"/><stop offset="1" stop-color="{{green_deep}}"/></linearGradient></defs>
<ellipse cx="64" cy="121.5" rx="17" ry="3.74" fill="{{earth_deep}}" opacity="0.16"/>
<path d="M70.32 116C70.45 118.83 70.58 123.02 68.62 124.79C66.67 126.56 61.7 126.51 58.59 126.65C55.48 126.78 52.25 126.76 49.94 125.59C47.62 124.43 45.97 121.99 44.69 119.65C43.41 117.32 41.5 113.96 42.26 111.59C43.02 109.22 46.54 106.5 49.27 105.41C52 104.32 55.56 104.65 58.65 105.05C61.74 105.44 65.87 105.96 67.82 107.79C69.76 109.61 70.18 113.17 70.32 116Z" fill="{{green_deep}}"/>
<path d="M69.44 113C69.65 115.7 68.1 119.79 65.89 121.55C63.68 123.32 59.17 123.5 56.18 123.58C53.18 123.66 50.44 123.12 47.91 122.03C45.39 120.95 41.92 119.14 41.04 117.04C40.16 114.95 41.7 111.95 42.63 109.45C43.56 106.95 44.37 103.25 46.63 102.06C48.89 100.86 53.2 101.74 56.2 102.28C59.21 102.83 62.44 103.56 64.64 105.35C66.85 107.13 69.23 110.3 69.44 113Z" fill="url(#bush-g0)"/>
<path d="M54.64 107.96C54.63 109.22 54.9 110.98 53.87 111.71C52.84 112.43 50 112.62 48.45 112.31C46.9 111.99 45.12 110.8 44.59 109.8C44.06 108.81 44.58 107.25 45.27 106.36C45.96 105.46 47.26 104.81 48.71 104.44C50.15 104.08 52.95 103.56 53.93 104.15C54.92 104.74 54.65 106.7 54.64 107.96Z" fill="{{glow}}" opacity="0.16"/>
<path d="M90.91 111C91.06 114.87 90.2 119.98 88.23 123.06C86.26 126.13 82.26 128.93 79.08 129.45C75.9 129.97 71.99 128.22 69.18 126.2C66.36 124.17 62.91 120.68 62.17 117.29C61.42 113.9 63.59 109.5 64.72 105.84C65.85 102.17 66.62 97.01 68.94 95.31C71.26 93.61 75.56 94.88 78.63 95.64C81.7 96.39 85.3 97.29 87.34 99.85C89.39 102.41 90.77 107.13 90.91 111Z" fill="{{green_deep}}"/>
<path d="M89.25 108C89.38 111.72 87.52 117.03 85.34 119.56C83.17 122.09 79.34 122.46 76.2 123.16C73.06 123.85 69.2 125.24 66.52 123.73C63.84 122.23 60.88 117.64 60.13 114.13C59.38 110.62 60.81 106.08 62 102.7C63.18 99.31 64.88 95.46 67.25 93.81C69.62 92.16 73.32 92.23 76.21 92.8C79.09 93.37 82.4 94.69 84.57 97.23C86.75 99.76 89.12 104.28 89.25 108Z" fill="url(#bush-g1)"/>
<path d="M74.72 100.86C74.66 102.28 73.91 104 72.89 104.9C71.88 105.8 70.15 106.41 68.62 106.24C67.09 106.08 64.43 105.29 63.69 103.92C62.95 102.55 63.35 99.41 64.18 98.04C65.01 96.68 67.17 96.03 68.68 95.74C70.19 95.46 72.24 95.51 73.25 96.36C74.25 97.21 74.77 99.44 74.72 100.86Z" fill="{{glow}}" opacity="0.16"/>
</svg>
