<svg viewBox="0 0 128 128" xmlns="http://www.w3.org/2000/svg">
<defs><linearGradient x1="0" y1="108" x2="0" y2="124" gradientUnits="userSpaceOnUse" id="pine-round-g0"><stop offset="0" stop-color="{{bark}}"/><stop offset="1" stop-color="{{earth_deep}}"/></linearGradient><linearGradient x1="0" y1="102" x2="0" y2="133.33" gradientUnits="userSpaceOnUse" id="pine-round-g1"><stop offset="0" stop-color="{{green_mid}}"/><stop offset="1" stop-color="{{green_deep}}"/></linearGradient><linearGradient x1="0" y1="71" x2="0" y2="102.33" gradientUnits="userSpaceOnUse" id="pine-round-g2"><stop offset="0" stop-color="{{green_mid}}"/><stop offset="1" stop-color="{{green_deep}}"/></linearGradient><linearGradient x1="0" y1="40" x2="0" y2="71.33" gradientUnits="userSpaceOnUse" id="pine-round-g3"><stop offset="0" stop-color="{{green_mid}}"/><stop offset="1" stop-color="{{green_deep}}"/></linearGradient></defs>
<ellipse cx="64" cy="121.5" rx="20.8" ry="4.58" fill="{{earth_deep}}" opacity="0.16"/>
<path d="M58 124C59.8 116 61.48 116 61.96 108L66.04 108C66.52 116 68.2 116 70 124Z" fill="url(#pine-round-g0)"/>
<path d="M36.6 133.33C53.6 130.33 58.8 104 64 100.6C69.2 104 74.4 130.33 91.4 133.33Z" fill="{{green_deep}}"/>
<path d="M38 131.93C53.6 129.33 58.8 104 64 102C69.2 104 74.4 129.33 90 131.93Z" fill="url(#pine-round-g1)"/>
<path d="M44.14 102.33C56.62 99.33 60.31 73 64 69.6C67.69 73 71.38 99.33 83.86 102.33Z" fill="{{green_deep}}"/>
<path d="M45.54 100.93C56.62 98.33 60.31 73 64 71C67.69 73 71.38 98.33 82.46 100.93Z" fill="url(#pine-round-g2)"/>
<path d="M51.68 71.33C59.63 68.33 61.82 42 64 38.6C66.18 42 68.37 68.33 76.32 71.33Z" fill="{{green_deep}}"/>
<path d="M53.08 69.93C59.63 67.33 61.82 42 64 40C66.18 42 68.37 67.33 74.92 69.93Z" fill="url(#pine-round-g3)"/>
<path d="M59.91 56C59.99 56.98 59.12 58.75 57.91 59.24C56.7 59.73 53.9 59.47 52.67 58.93C51.44 58.39 50.48 56.94 50.51 56C50.55 55.06 51.72 53.75 52.87 53.31C54.02 52.86 56.25 52.88 57.43 53.33C58.6 53.78 59.83 55.02 59.91 56Z" fill="{{glow}}" opacity="0.18"/>
</svg>
