<svg viewBox="0 0 128 128" xmlns="http://www.w3.org/2000/svg">
<defs><linearGradient x1="0" y1="54" x2="0" y2="126" gradientUnits="userSpaceOnUse" id="rock-tall-b-g0"><stop offset="0" stop-color="{{earth_mid}}"/><stop offset="1" stop-color="{{earth_deep}}"/></linearGradient></defs>
<ellipse cx="64" cy="121.5" rx="25" ry="5.5" fill="{{earth_deep}}" opacity="0.18"/>
<path d="M84.57 112.28C81.54 119.34 75.75 126.75 70.78 128.42C65.82 130.08 59.26 126.12 54.76 122.28C50.26 118.44 45.94 112.26 43.76 105.37C41.58 98.48 40.67 88.71 41.69 80.94C42.71 73.18 45.83 64.06 49.87 58.78C53.92 53.51 60.93 48.43 65.97 49.29C71 50.16 76.25 57.83 80.09 63.97C83.92 70.1 88.23 78.05 88.98 86.11C89.73 94.16 87.6 105.23 84.57 112.28Z" fill="{{earth_deep}}"/>
<path d="M83.55 111.89C81.14 118.32 74.78 123.59 70.03 125.32C65.29 127.05 59.62 125.36 55.06 122.27C50.51 119.17 44.97 113.68 42.69 106.72C40.41 99.76 40.18 88.67 41.38 80.51C42.58 72.35 45.86 61.58 49.89 57.77C53.91 53.96 60.68 56.42 65.51 57.64C70.35 58.87 75.71 60.28 78.88 65.12C82.04 69.97 83.74 78.9 84.52 86.69C85.3 94.49 85.97 105.45 83.55 111.89Z" fill="url(#rock-tall-b-g0)"/>
<path d="M65.69 73.8C65.59 76.56 63.86 79.71 62.05 81.63C60.24 83.54 57.09 85.76 54.82 85.29C52.56 84.83 49.24 81.42 48.45 78.83C47.66 76.24 49.02 72.5 50.08 69.73C51.14 66.97 52.72 63.02 54.81 62.24C56.9 61.47 60.81 63.16 62.62 65.08C64.44 67.01 65.79 71.04 65.69 73.8Z" fill="{{glow}}" opacity="0.2"/>
<path d="M81.26 70.2C81.39 72.62 79.95 76.54 78.24 78.07C76.52 79.61 72.79 80.23 70.98 79.42C69.17 78.61 68.38 75.47 67.39 73.21C66.4 70.95 64.42 67.87 65.03 65.88C65.63 63.88 68.97 61.64 71.03 61.25C73.09 60.86 75.69 62.05 77.4 63.54C79.1 65.03 81.12 67.78 81.26 70.2Z" fill="{{green_mid}}" opacity="0.85"/>
</svg>
