<svg viewBox="0 0 128 128" xmlns="http://www.w3.org/2000/svg">
<defs><linearGradient x1="0" y1="100" x2="0" y2="126" gradientUnits="userSpaceOnUse" id="rock-small-a-g0"><stop offset="0" stop-color="{{earth_mid}}"/><stop offset="1" stop-color="{{earth_deep}}"/></linearGradient></defs>
<ellipse cx="64" cy="121.5" rx="21" ry="4.62" fill="{{earth_deep}}" opacity="0.18"/>
<path d="M79.72 121.06C77.39 123.87 73.8 127.36 69.74 128.4C65.68 129.44 59.15 128.86 55.35 127.32C51.55 125.77 48.9 122.16 46.97 119.13C45.04 116.09 42.89 112.19 43.76 109.11C44.63 106.03 48.57 102.44 52.19 100.64C55.81 98.84 61.14 98.08 65.5 98.31C69.86 98.54 75.33 99.79 78.35 102C81.38 104.2 83.45 108.37 83.68 111.55C83.9 114.73 82.04 118.26 79.72 121.06Z" fill="{{earth_deep}}"/>
<path d="M80.05 120.93C77.96 123.03 72.38 123.61 68.4 124.37C64.42 125.13 59.71 126.41 56.16 125.49C52.61 124.57 48.84 121.5 47.1 118.85C45.36 116.21 44.77 112.47 45.72 109.62C46.67 106.76 49.56 103.1 52.81 101.72C56.07 100.35 61.44 100.88 65.24 101.34C69.03 101.79 72.95 102.72 75.57 104.46C78.19 106.2 80.2 109.05 80.95 111.79C81.69 114.54 82.14 118.83 80.05 120.93Z" fill="url(#rock-small-a-g0)"/>
<path d="M66.05 107.15C66.18 108.22 64.92 109.91 63.32 110.6C61.73 111.29 58.46 111.59 56.49 111.31C54.52 111.02 52.39 109.92 51.48 108.91C50.57 107.91 50.21 106.28 51.04 105.27C51.86 104.26 54.5 103.02 56.42 102.84C58.35 102.66 60.97 103.49 62.57 104.21C64.18 104.93 65.93 106.08 66.05 107.15Z" fill="{{glow}}" opacity="0.2"/>
</svg>
