<svg viewBox="0 0 128 128" xmlns="http://www.w3.org/2000/svg">
<defs><linearGradient x1="0" y1="102" x2="0" y2="126" gradientUnits="userSpaceOnUse" id="rock-small-d-g0"><stop offset="0" stop-color="{{earth_mid}}"/><stop offset="1" stop-color="{{earth_deep}}"/></linearGradient></defs>
<ellipse cx="64" cy="121.5" rx="19" ry="4.18" fill="{{earth_deep}}" opacity="0.18"/>
<path d="M78.34 121.63C76.28 123.97 72.24 125.82 68.58 126.73C64.92 127.64 59.82 128.2 56.38 127.07C52.95 125.95 49.78 122.79 47.95 119.99C46.12 117.19 44.39 113.09 45.4 110.29C46.42 107.49 50.68 105.07 54.03 103.17C57.37 101.28 61.88 98.68 65.48 98.94C69.09 99.2 73.08 102.44 75.65 104.74C78.22 107.03 80.46 109.89 80.91 112.71C81.35 115.52 80.39 119.29 78.34 121.63Z" fill="{{earth_deep}}"/>
<path d="M77.42 120.89C75.77 123.12 71.96 125.6 68.59 126.32C65.23 127.04 60.16 126.49 57.23 125.21C54.29 123.94 52.19 121 50.97 118.69C49.76 116.37 49.37 113.75 49.95 111.3C50.52 108.85 51.86 105.7 54.42 103.98C56.99 102.25 61.97 100.63 65.33 100.95C68.69 101.27 72.4 103.88 74.6 105.88C76.79 107.87 78.04 110.43 78.51 112.93C78.98 115.43 79.08 118.66 77.42 120.89Z" fill="url(#rock-small-d-g0)"/>
<path d="M65.44 108.6C65.61 109.56 64.84 111.23 63.49 111.85C62.15 112.48 59.21 112.58 57.37 112.33C55.53 112.08 53.1 111.21 52.45 110.34C51.8 109.48 52.68 108.08 53.48 107.14C54.29 106.2 55.8 104.87 57.29 104.69C58.79 104.51 61.12 105.41 62.47 106.07C63.83 106.72 65.27 107.64 65.44 108.6Z" fill="{{glow}}" opacity="0.2"/>
<path d="M74.86 107.4C74.84 108.25 75.12 109.51 74.2 109.92C73.28 110.34 70.77 110.1 69.33 109.88C67.89 109.67 66.17 109.24 65.57 108.63C64.96 108.02 65.13 106.91 65.72 106.21C66.32 105.5 67.68 104.65 69.11 104.41C70.54 104.18 73.34 104.31 74.3 104.81C75.26 105.31 74.87 106.55 74.86 107.4Z" fill="{{green_mid}}" opacity="0.85"/>
</svg>
