<svg viewBox="0 0 128 128" xmlns="http://www.w3.org/2000/svg">
<defs><linearGradient x1="0" y1="74" x2="0" y2="126" gradientUnits="userSpaceOnUse" id="rock-large-c-g0"><stop offset="0" stop-color="{{earth_mid}}"/><stop offset="1" stop-color="{{earth_deep}}"/></linearGradient></defs>
<ellipse cx="64" cy="121.5" rx="35" ry="7.7" fill="{{earth_deep}}" opacity="0.18"/>
<path d="M93.82 116.8C90.05 121.87 80.89 126.09 73.44 127.8C65.99 129.51 55.89 129.64 49.11 127.07C42.32 124.49 35.7 118.02 32.71 112.36C29.73 106.69 29.05 98.67 31.19 93.07C33.33 87.48 39.65 82.28 45.55 78.79C51.45 75.31 59.64 71.87 66.59 72.15C73.53 72.42 82.32 76.24 87.22 80.45C92.13 84.66 94.92 91.35 96.02 97.4C97.12 103.46 97.58 111.73 93.82 116.8Z" fill="{{earth_deep}}"/>
<path d="M88.01 113.35C83.99 117.93 78.8 123.16 72.57 124.91C66.35 126.67 56.71 126.24 50.68 123.88C44.66 121.52 39.92 115.91 36.43 110.74C32.94 105.57 28.34 98.28 29.73 92.86C31.12 87.44 38.64 81.61 44.79 78.21C50.93 74.81 59.78 71.83 66.6 72.46C73.41 73.09 80.66 77.84 85.68 82C90.7 86.15 96.3 92.16 96.69 97.39C97.08 102.61 92.03 108.76 88.01 113.35Z" fill="url(#rock-large-c-g0)"/>
<path d="M68.6 88.3C68.57 90.36 64.65 93.35 61.77 94.42C58.9 95.49 54.49 95.2 51.36 94.71C48.22 94.22 44.39 93.07 42.97 91.47C41.55 89.86 41.59 87.08 42.84 85.1C44.09 83.11 47.29 80.05 50.48 79.54C53.67 79.03 58.94 80.57 61.96 82.03C64.98 83.49 68.63 86.24 68.6 88.3Z" fill="{{glow}}" opacity="0.2"/>
</svg>
