<svg viewBox="0 0 128 128" xmlns="http://www.w3.org/2000/svg">
<defs><linearGradient x1="0" y1="78" x2="0" y2="126" gradientUnits="userSpaceOnUse" id="rock-large-a-g0"><stop offset="0" stop-color="{{earth_mid}}"/><stop offset="1" stop-color="{{earth_deep}}"/></linearGradient></defs>
<ellipse cx="64" cy="121.5" rx="37" ry="8.14" fill="{{earth_deep}}" opacity="0.18"/>
<path d="M94.34 116.99C89.71 121.69 81.49 126 73.89 127.55C66.3 129.1 55.75 128.7 48.76 126.29C41.77 123.88 35.69 118.3 31.97 113.09C28.26 107.89 24.53 100.32 26.48 95.05C28.43 89.79 36.98 84.48 43.67 81.51C50.36 78.54 59.33 76.7 66.63 77.23C73.93 77.76 81.64 80.99 87.47 84.67C93.31 88.36 100.49 93.94 101.63 99.32C102.77 104.71 98.96 112.29 94.34 116.99Z" fill="{{earth_deep}}"/>
<path d="M89.6 114.36C85.91 118.72 80.03 124.46 73.49 125.95C66.94 127.44 56.81 125.62 50.33 123.29C43.85 120.96 37.45 116.42 34.61 111.95C31.77 107.47 31.7 101.37 33.28 96.44C34.85 91.51 38.49 85.64 44.07 82.36C49.64 79.08 59.09 76.59 66.74 76.74C74.39 76.89 85.17 79.41 89.98 83.26C94.79 87.1 95.68 94.62 95.62 99.8C95.55 104.99 93.29 110.01 89.6 114.36Z" fill="url(#rock-large-a-g0)"/>
<path d="M65.74 91.2C65.72 93.17 64.48 96.04 61.94 97.05C59.4 98.07 54.12 97.72 50.49 97.3C46.87 96.87 41.63 96 40.18 94.5C38.73 93 40.23 90.21 41.8 88.31C43.38 86.42 46.25 83.62 49.63 83.1C53.01 82.59 59.42 83.89 62.1 85.24C64.79 86.59 65.77 89.23 65.74 91.2Z" fill="{{glow}}" opacity="0.2"/>
<path d="M91.16 88.8C91.05 90.43 87.73 92.66 85.09 93.48C82.46 94.3 78.5 94.02 75.36 93.7C72.21 93.37 67.43 92.72 66.24 91.53C65.04 90.33 66.63 87.76 68.17 86.54C69.71 85.31 72.55 84.67 75.49 84.19C78.43 83.71 83.18 82.91 85.8 83.68C88.41 84.45 91.28 87.17 91.16 88.8Z" fill="{{green_mid}}" opacity="0.85"/>
</svg>
