<svg viewBox="0 0 128 128" xmlns="http://www.w3.org/2000/svg">
<defs><linearGradient x1="0" y1="46" x2="0" y2="124" gradientUnits="userSpaceOnUse" id="tree-thin-g0"><stop offset="0" stop-color="{{bark}}"/><stop offset="1" stop-color="{{earth_deep}}"/></linearGradient><linearGradient x1="0" y1="18" x2="0" y2="62" gradientUnits="userSpaceOnUse" id="tree-thin-g1"><stop offset="0" stop-color="{{green_mid}}"/><stop offset="1" stop-color="{{green_deep}}"/></linearGradient><linearGradient x1="0" y1="8" x2="0" y2="32" gradientUnits="userSpaceOnUse" id="tree-thin-g2"><stop offset="0" stop-color="{{green_mid}}"/><stop offset="1" stop-color="{{green_deep}}"/></linearGradient></defs>
<ellipse cx="64" cy="121.5" rx="12" ry="2.64" fill="{{earth_deep}}" opacity="0.16"/>
<path d="M59 124C60.5 85 61.9 54 62.3 46L65.7 46C66.1 54 67.5 85 69 124Z" fill="url(#tree-thin-g0)"/>
<path d="M82.36 43C82.34 47.9 80.48 53.72 78.3 57.64C76.11 61.56 72.5 65.67 69.23 66.51C65.95 67.35 61.46 65.34 58.66 62.67C55.86 59.99 53.68 55.11 52.42 50.46C51.15 45.82 49.92 39.07 51.07 34.82C52.22 30.57 56.35 26.93 59.3 24.97C62.26 23.01 65.62 22.52 68.8 23.06C71.98 23.6 76.13 24.91 78.4 28.24C80.66 31.56 82.38 38.1 82.36 43Z" fill="{{green_deep}}"/>
<path d="M79.56 40C79.58 44.21 76.41 48.56 74.31 52.69C72.21 56.82 69.89 63.86 66.98 64.77C64.07 65.69 59.97 60.9 56.84 58.18C53.72 55.45 49.35 52.69 48.22 48.42C47.1 44.15 48.71 37.17 50.08 32.57C51.45 27.97 53.64 23.63 56.45 20.82C59.26 18 63.96 14.6 66.92 15.7C69.88 16.8 72.1 23.39 74.21 27.44C76.32 31.49 79.55 35.79 79.56 40Z" fill="url(#tree-thin-g1)"/>
<path d="M64.96 30.76C64.93 32.92 64.67 35.77 63.52 37.1C62.37 38.42 59.72 39.16 58.06 38.7C56.4 38.25 54.11 36.15 53.57 34.35C53.03 32.56 54.07 29.81 54.82 27.93C55.58 26.04 56.61 23.66 58.1 23.03C59.58 22.39 62.57 22.83 63.71 24.12C64.86 25.41 65 28.6 64.96 30.76Z" fill="{{glow}}" opacity="0.16"/>
<path d="M78.72 23C78.46 25.57 76.68 27.77 75.27 29.92C73.87 32.07 72.19 35.5 70.3 35.91C68.4 36.32 65.82 33.82 63.89 32.37C61.96 30.93 59.39 29.42 58.72 27.23C58.04 25.04 59.11 21.82 59.84 19.26C60.56 16.71 61.32 13.37 63.06 11.9C64.79 10.42 67.95 9.98 70.25 10.41C72.55 10.85 75.43 12.41 76.84 14.5C78.25 16.6 78.98 20.43 78.72 23Z" fill="{{green_deep}}"/>
<path d="M74.63 20C74.69 22.39 74.44 25.28 73.31 27.36C72.18 29.45 69.78 32.25 67.84 32.52C65.9 32.8 63.33 30.5 61.67 29C60.01 27.51 58.89 25.81 57.87 23.55C56.85 21.29 55.05 17.78 55.56 15.44C56.08 13.1 58.96 10.52 60.96 9.52C62.96 8.52 65.56 8.84 67.55 9.42C69.55 10 71.77 11.24 72.95 13C74.13 14.76 74.56 17.61 74.63 20Z" fill="url(#tree-thin-g2)"/>
<path d="M67.16 14.96C67.18 16.19 66.77 17.98 65.91 18.71C65.05 19.45 63.16 19.67 62.02 19.36C60.89 19.06 59.61 17.97 59.09 16.89C58.58 15.82 58.44 14.07 58.91 12.94C59.39 11.8 60.77 10.35 61.92 10.08C63.07 9.82 64.92 10.54 65.8 11.35C66.67 12.17 67.14 13.73 67.16 14.96Z" fill="{{glow}}" opacity="0.16"/>
</svg>
