<svg viewBox="0 0 128 128" xmlns="http://www.w3.org/2000/svg">
<defs><linearGradient x1="0" y1="58" x2="0" y2="124" gradientUnits="userSpaceOnUse" id="tree-detailed-g0"><stop offset="0" stop-color="{{bark}}"/><stop offset="1" stop-color="{{earth_deep}}"/></linearGradient><linearGradient x1="0" y1="49" x2="0" y2="75" gradientUnits="userSpaceOnUse" id="tree-detailed-g1"><stop offset="0" stop-color="{{green_mid}}"/><stop offset="1" stop-color="{{green_deep}}"/></linearGradient><linearGradient x1="0" y1="46" x2="0" y2="70" gradientUnits="userSpaceOnUse" id="tree-detailed-g2"><stop offset="0" stop-color="{{green_mid}}"/><stop offset="1" stop-color="{{green_deep}}"/></linearGradient><linearGradient x1="0" y1="24" x2="0" y2="56" gradientUnits="userSpaceOnUse" id="tree-detailed-g3"><stop offset="0" stop-color="{{green_mid}}"/><stop offset="1" stop-color="{{green_deep}}"/></linearGradient><linearGradient x1="0" y1="15" x2="0" y2="33" gradientUnits="userSpaceOnUse" id="tree-detailed-g4"><stop offset="0" stop-color="{{green_mid}}"/><stop offset="1" stop-color="{{green_deep}}"/></linearGradient></defs>
<ellipse cx="64" cy="121.5" rx="20" ry="4.4" fill="{{earth_deep}}" opacity="0.16"/>
<path d="M56 124C58.4 91 60.64 66 61.28 58L66.72 58C67.36 66 69.6 91 72 124Z" fill="url(#tree-detailed-g0)"/>
<path d="M64 94C71 82 76 74 80 68L82 72C77 78 71 88 67 98Z" fill="{{bark}}"/>
<path d="M70.51 65C70.2 67.78 67.94 70.56 65.72 72.72C63.51 74.88 60.59 77.15 57.21 77.95C53.84 78.76 48.34 79.01 45.47 77.56C42.6 76.11 41.21 72.16 39.99 69.26C38.77 66.37 37.11 62.83 38.14 60.19C39.17 57.55 43.02 54.71 46.18 53.44C49.34 52.16 53.53 52.14 57.1 52.57C60.66 53 65.35 53.94 67.58 56.01C69.82 58.09 70.81 62.22 70.51 65Z" fill="{{green_deep}}"/>
<path d="M66.56 62C66.37 64.65 65.08 67.49 63.11 69.57C61.13 71.66 58.06 73.68 54.72 74.52C51.37 75.36 45.66 76.05 43.04 74.61C40.43 73.16 40.32 68.76 39.04 65.83C37.75 62.91 34.38 59.4 35.34 57.07C36.3 54.74 41.51 53.38 44.8 51.86C48.08 50.35 51.81 47.68 55.04 47.98C58.28 48.28 62.31 51.33 64.23 53.66C66.15 56 66.75 59.35 66.56 62Z" fill="url(#tree-detailed-g1)"/>
<path d="M53.51 56.54C53.7 57.74 53.15 59.97 51.89 60.63C50.62 61.29 47.8 60.82 45.9 60.52C43.99 60.21 41.26 59.8 40.46 58.8C39.67 57.8 40.22 55.54 41.13 54.5C42.04 53.47 44.3 52.76 45.9 52.59C47.51 52.41 49.47 52.79 50.74 53.45C52.01 54.11 53.32 55.34 53.51 56.54Z" fill="{{glow}}" opacity="0.16"/>
<path d="M95.77 61C96.24 63.61 97.19 67.55 95.44 69.76C93.7 71.96 88.64 74.07 85.31 74.21C81.98 74.35 78.29 72.12 75.47 70.6C72.66 69.07 69.69 67.38 68.41 65.07C67.14 62.77 66.81 59.26 67.82 56.75C68.83 54.25 71.58 51.45 74.48 50.03C77.38 48.61 82.18 47.57 85.21 48.25C88.24 48.93 90.9 51.99 92.66 54.11C94.42 56.24 95.31 58.39 95.77 61Z" fill="{{green_deep}}"/>
<path d="M94.16 58C94.34 60.39 93.11 63.36 91.24 65.54C89.36 67.72 85.85 70.84 82.89 71.09C79.92 71.35 76.24 68.57 73.47 67.05C70.7 65.53 67.77 64.26 66.27 62C64.76 59.73 63.27 55.69 64.44 53.47C65.61 51.25 70.23 49.88 73.26 48.67C76.29 47.45 79.8 45.74 82.61 46.16C85.43 46.58 88.23 49.21 90.15 51.18C92.08 53.16 93.98 55.61 94.16 58Z" fill="url(#tree-detailed-g2)"/>
<path d="M81.57 52.96C81.47 54.14 80.55 55.59 79.32 56.25C78.1 56.9 75.91 57.08 74.19 56.89C72.47 56.7 69.55 56.02 68.99 55.11C68.43 54.2 69.99 52.49 70.84 51.42C71.69 50.35 72.57 49.07 74.08 48.7C75.59 48.33 78.65 48.47 79.9 49.18C81.15 49.89 81.66 51.78 81.57 52.96Z" fill="{{glow}}" opacity="0.16"/>
<path d="M88 43C88.07 46.21 82.91 49.79 79.66 52.76C76.41 55.72 72.65 60.33 68.52 60.8C64.39 61.26 59.26 57.48 54.9 55.54C50.54 53.59 44.19 52.15 42.35 49.11C40.52 46.08 41.9 40.55 43.89 37.31C45.88 34.07 50.23 31.57 54.31 29.68C58.38 27.79 64.19 25.32 68.34 25.96C72.5 26.6 75.96 30.68 79.23 33.52C82.51 36.36 87.92 39.79 88 43Z" fill="{{green_deep}}"/>
<path d="M82.25 40C82.15 43.01 78.59 46.14 75.84 48.85C73.1 51.56 69.88 55.36 65.77 56.27C61.65 57.18 54.97 56.15 51.14 54.33C47.32 52.5 44.33 48.63 42.81 45.32C41.29 42.01 40.65 37.75 42.02 34.46C43.4 31.17 47.16 27.26 51.09 25.6C55.02 23.93 61.38 23.6 65.6 24.46C69.82 25.33 73.63 28.2 76.4 30.79C79.18 33.38 82.34 36.99 82.25 40Z" fill="url(#tree-detailed-g3)"/>
<path d="M65.43 33.28C65.47 34.87 63.58 37.19 61.63 38.13C59.67 39.08 55.91 39.38 53.72 38.95C51.53 38.52 49.51 36.91 48.5 35.55C47.48 34.18 46.72 31.99 47.62 30.74C48.51 29.48 51.57 28.37 53.86 28.02C56.16 27.67 59.46 27.74 61.39 28.62C63.32 29.49 65.4 31.69 65.43 33.28Z" fill="{{glow}}" opacity="0.16"/>
<path d="M83.96 27C83.88 28.98 82.25 31.32 80.36 32.79C78.47 34.25 75.49 35.3 72.63 35.77C69.78 36.24 65.6 36.54 63.25 35.58C60.89 34.62 59.24 31.9 58.52 29.99C57.8 28.08 58.15 26.05 58.94 24.11C59.72 22.17 60.89 19.48 63.21 18.38C65.52 17.27 69.88 17.08 72.82 17.51C75.76 17.93 78.99 19.35 80.84 20.93C82.7 22.52 84.04 25.02 83.96 27Z" fill="{{green_deep}}"/>
<path d="M81.35 24C81.56 25.93 80.47 28.79 78.59 30.15C76.71 31.51 73.05 31.76 70.08 32.17C67.12 32.59 63.13 33.5 60.79 32.64C58.45 31.78 56.96 28.98 56.05 27.01C55.14 25.04 54.43 22.63 55.32 20.81C56.21 18.98 58.93 16.95 61.4 16.08C63.87 15.22 67.48 15.2 70.14 15.61C72.8 16.02 75.48 17.17 77.35 18.57C79.22 19.96 81.14 22.07 81.35 24Z" fill="url(#tree-detailed-g4)"/>
<path d="M69.51 20.22C69.49 21.09 68.67 22.34 67.59 22.81C66.5 23.29 64.53 23.24 63 23.08C61.48 22.92 59.12 22.56 58.44 21.84C57.76 21.12 58.17 19.5 58.92 18.74C59.68 17.98 61.51 17.47 62.97 17.27C64.42 17.08 66.58 17.07 67.67 17.57C68.76 18.06 69.52 19.35 69.51 20.22Z" fill="{{glow}}" opacity="0.16"/>
<circle cx="56" cy="34" r="1.8" fill="{{accent_warm}}" opacity="0.9"/>
<circle cx="76" cy="48" r="1.6" fill="{{accent_warm}}" opacity="0.9"/>
</svg>
