<svg viewBox="0 0 128 128" xmlns="http://www.w3.org/2000/svg">
<defs><linearGradient x1="0" y1="56" x2="0" y2="124" gradientUnits="userSpaceOnUse" id="tree-default-g0"><stop offset="0" stop-color="{{bark}}"/><stop offset="1" stop-color="{{earth_deep}}"/></linearGradient><linearGradient x1="0" y1="38" x2="0" y2="66" gradientUnits="userSpaceOnUse" id="tree-default-g1"><stop offset="0" stop-color="{{green_mid}}"/><stop offset="1" stop-color="{{green_deep}}"/></linearGradient><linearGradient x1="0" y1="22" x2="0" y2="54" gradientUnits="userSpaceOnUse" id="tree-default-g2"><stop offset="0" stop-color="{{green_mid}}"/><stop offset="1" stop-color="{{green_deep}}"/></linearGradient></defs>
<ellipse cx="64" cy="121.5" rx="18" ry="3.96" fill="{{earth_deep}}" opacity="0.16"/>
<path d="M57 124C59.1 90 61.06 64 61.62 56L66.38 56C66.94 64 68.9 90 71 124Z" fill="url(#tree-default-g0)"/>
<path d="M73.18 55C73.1 58.28 74.45 62.66 72.42 64.69C70.4 66.72 64.73 66.8 61 67.16C57.28 67.52 53.13 68.11 50.09 66.86C47.04 65.61 44 62.45 42.76 59.69C41.52 56.92 41.48 53.11 42.65 50.28C43.82 47.45 46.65 44.29 49.78 42.71C52.91 41.12 57.59 40.39 61.45 40.77C65.3 41.15 70.94 42.61 72.89 44.98C74.85 47.35 73.26 51.72 73.18 55Z" fill="{{green_deep}}"/>
<path d="M70.58 52C70.62 55.24 72.17 59.66 70.2 61.82C68.23 63.97 62.57 64.5 58.77 64.92C54.96 65.33 50.29 65.74 47.36 64.32C44.43 62.91 42.14 59.2 41.21 56.43C40.28 53.67 40.85 50.64 41.8 47.74C42.76 44.85 44.13 40.31 46.92 39.05C49.71 37.79 54.69 39.62 58.53 40.17C62.37 40.72 67.96 40.38 69.97 42.35C71.97 44.32 70.54 48.76 70.58 52Z" fill="url(#tree-default-g1)"/>
<path d="M57.86 46.12C57.84 47.51 56.99 49.35 55.55 50.23C54.1 51.12 51.02 51.75 49.18 51.43C47.35 51.1 45.37 49.54 44.55 48.28C43.73 47.02 43.5 45.18 44.25 43.86C44.99 42.54 47.13 40.67 49.03 40.34C50.94 40.01 54.21 40.92 55.68 41.89C57.15 42.85 57.89 44.73 57.86 46.12Z" fill="{{glow}}" opacity="0.16"/>
<path d="M95.45 41C95.43 44.68 92.89 49.18 89.98 52.01C87.06 54.84 81.92 57.84 77.96 57.99C74 58.14 69.86 54.83 66.22 52.93C62.57 51.04 57.42 49.42 56.1 46.61C54.78 43.8 56.78 39.22 58.31 36.07C59.84 32.91 61.99 29.74 65.27 27.69C68.56 25.63 73.88 23.34 78.02 23.71C82.16 24.09 87.19 27.03 90.09 29.91C93 32.79 95.47 37.32 95.45 41Z" fill="{{green_deep}}"/>
<path d="M90.23 38C90.23 41.29 88.42 45.03 85.98 47.88C83.53 50.73 79.7 54.14 75.58 55.1C71.46 56.06 65.04 55.52 61.28 53.64C57.51 51.76 54.43 47.43 52.98 43.83C51.53 40.23 51.23 35.65 52.6 32.05C53.97 28.46 57.38 24.18 61.22 22.28C65.06 20.37 71.52 19.64 75.64 20.61C79.77 21.59 83.54 25.23 85.97 28.13C88.4 31.03 90.23 34.71 90.23 38Z" fill="url(#tree-default-g2)"/>
<path d="M74.46 31.28C74.5 32.55 72.3 34.29 70.64 35.21C68.99 36.14 66.35 37.1 64.55 36.82C62.74 36.54 60.85 34.92 59.82 33.53C58.78 32.15 57.54 29.81 58.33 28.51C59.12 27.21 62.53 25.88 64.54 25.73C66.55 25.57 68.74 26.65 70.39 27.58C72.05 28.5 74.42 30.01 74.46 31.28Z" fill="{{glow}}" opacity="0.16"/>
</svg>
