<svg viewBox="0 0 128 128" xmlns="http://www.w3.org/2000/svg">
<defs><linearGradient x1="0" y1="62" x2="0" y2="124" gradientUnits="userSpaceOnUse" id="tree-oak-g0"><stop offset="0" stop-color="{{bark}}"/><stop offset="1" stop-color="{{earth_deep}}"/></linearGradient><linearGradient x1="0" y1="42" x2="0" y2="74" gradientUnits="userSpaceOnUse" id="tree-oak-g1"><stop offset="0" stop-color="{{green_mid}}"/><stop offset="1" stop-color="{{green_deep}}"/></linearGradient><linearGradient x1="0" y1="39" x2="0" y2="73" gradientUnits="userSpaceOnUse" id="tree-oak-g2"><stop offset="0" stop-color="{{green_mid}}"/><stop offset="1" stop-color="{{green_deep}}"/></linearGradient><linearGradient x1="0" y1="18" x2="0" y2="54" gradientUnits="userSpaceOnUse" id="tree-oak-g3"><stop offset="0" stop-color="{{green_mid}}"/><stop offset="1" stop-color="{{green_deep}}"/></linearGradient></defs>
<ellipse cx="64" cy="121.5" rx="22" ry="4.84" fill="{{earth_deep}}" opacity="0.16"/>
<path d="M55 124C57.7 93 60.22 70 60.94 62L67.06 62C67.78 70 70.3 93 73 124Z" fill="url(#tree-oak-g0)"/>
<path d="M70.02 61C70.05 64.5 68.88 69.17 66.13 71.56C63.39 73.95 57.76 74.9 53.56 75.33C49.36 75.75 44.14 75.74 40.92 74.14C37.7 72.53 35.37 68.69 34.23 65.71C33.1 62.73 32.87 59.06 34.12 56.26C35.36 53.46 38.44 50.51 41.68 48.92C44.92 47.33 49.51 46.42 53.55 46.7C57.59 46.97 63.19 48.19 65.93 50.57C68.68 52.96 69.99 57.5 70.02 61Z" fill="{{green_deep}}"/>
<path d="M67.47 58C68.18 61.42 68.18 67.44 65.43 69.7C62.69 71.96 55.48 71.3 50.99 71.56C46.49 71.81 41.92 72.62 38.46 71.23C34.99 69.83 32.02 66.39 30.19 63.19C28.36 59.98 26.14 55.16 27.46 52.02C28.79 48.88 34.12 46.05 38.14 44.34C42.16 42.64 47.74 40.99 51.57 41.79C55.41 42.59 58.52 46.46 61.17 49.16C63.81 51.86 66.76 54.58 67.47 58Z" fill="url(#tree-oak-g1)"/>
<path d="M49.91 51.28C50.1 52.8 49.45 55.52 47.86 56.32C46.28 57.12 42.83 56.45 40.4 56.09C37.96 55.74 34.17 55.36 33.25 54.17C32.33 52.98 33.73 50.32 34.89 48.93C36.05 47.55 38.22 46.14 40.19 45.86C42.17 45.57 45.12 46.3 46.74 47.2C48.36 48.11 49.72 49.76 49.91 51.28Z" fill="{{glow}}" opacity="0.16"/>
<path d="M102.03 59C102.04 62.83 101.18 67.73 98.35 70.51C95.52 73.3 89.79 74.94 85.04 75.71C80.29 76.49 73.94 76.93 69.87 75.16C65.81 73.39 61.82 68.71 60.66 65.11C59.5 61.51 61.34 57.19 62.93 53.56C64.53 49.93 66.49 45.42 70.23 43.33C73.96 41.24 80.64 40.32 85.32 41.02C89.99 41.72 95.5 44.53 98.28 47.53C101.07 50.53 102.02 55.17 102.03 59Z" fill="{{green_deep}}"/>
<path d="M100.95 56C101.66 59.67 100.31 65.3 97.35 68.46C94.38 71.63 88.06 74.44 83.13 74.98C78.21 75.52 72.04 73.81 67.81 71.7C63.57 69.58 59 65.82 57.7 62.28C56.4 58.73 58.34 54.09 60.01 50.4C61.68 46.72 63.85 42.34 67.7 40.15C71.54 37.96 78.85 36.23 83.08 37.28C87.31 38.33 90.09 43.33 93.06 46.45C96.04 49.57 100.23 52.33 100.95 56Z" fill="url(#tree-oak-g2)"/>
<path d="M81.13 48.86C81.06 50.59 80.13 52.93 78.43 53.84C76.72 54.75 73.31 54.66 70.9 54.32C68.5 53.97 65.18 53.19 63.97 51.78C62.76 50.36 62.58 47.48 63.65 45.84C64.73 44.19 67.88 42.3 70.41 41.91C72.95 41.51 77.09 42.32 78.88 43.48C80.67 44.64 81.21 47.13 81.13 48.86Z" fill="{{glow}}" opacity="0.16"/>
<path d="M88.3 39C88.06 42.48 85.3 46.28 82.29 49C79.28 51.72 75 54.25 70.24 55.33C65.48 56.41 58.45 57.07 53.73 55.46C49.01 53.85 43.26 49.35 41.95 45.68C40.63 42 43.59 36.89 45.83 33.38C48.06 29.88 51.32 26.29 55.35 24.65C59.39 23.01 65.3 22.98 70.03 23.55C74.76 24.13 80.67 25.53 83.72 28.1C86.76 30.68 88.53 35.52 88.3 39Z" fill="{{green_deep}}"/>
<path d="M90.95 36C91.06 40.2 88.22 46.26 84.33 48.79C80.43 51.32 72.86 50.82 67.57 51.17C62.27 51.51 57.05 52.31 52.57 50.85C48.1 49.38 43.08 45.99 40.72 42.36C38.36 38.72 36.74 32.95 38.4 29.01C40.06 25.07 45.65 20.79 50.68 18.69C55.71 16.6 63.09 15.64 68.59 16.46C74.1 17.28 79.98 20.34 83.71 23.6C87.44 26.85 90.85 31.8 90.95 36Z" fill="url(#tree-oak-g3)"/>
<path d="M65.61 28.44C65.58 30.09 64.63 32.36 62.83 33.3C61.03 34.23 57.17 34.44 54.81 34.05C52.45 33.66 49.88 32.37 48.67 30.96C47.45 29.54 46.5 26.94 47.52 25.57C48.53 24.19 52.17 23.05 54.76 22.69C57.35 22.33 61.25 22.43 63.06 23.39C64.87 24.35 65.65 26.79 65.61 28.44Z" fill="{{glow}}" opacity="0.16"/>
</svg>
