<svg viewBox="0 0 512 384" xmlns="http://www.w3.org/2000/svg">
<defs><linearGradient x1="0" y1="296" x2="0" y2="376" gradientUnits="userSpaceOnUse" id="pond-base-g0"><stop offset="0" stop-color="{{earth_deep}}"/><stop offset="1" stop-color="{{earth_deep}}" stop-opacity="0.92"/></linearGradient><linearGradient x1="0" y1="248" x2="0" y2="314" gradientUnits="userSpaceOnUse" id="pond-base-g1"><stop offset="0" stop-color="{{earth_mid}}"/><stop offset="1" stop-color="{{earth_deep}}"/></linearGradient><linearGradient x1="0" y1="230" x2="0" y2="260" gradientUnits="userSpaceOnUse" id="pond-base-g2"><stop offset="0" stop-color="{{earth_mid}}"/><stop offset="1" stop-color="{{earth_deep}}"/></linearGradient></defs>
<path d="M439.64 245.41C425.56 247.71 406.07 250.38 375.88 251.61C345.7 252.85 296.6 252.88 258.55 252.81C220.51 252.75 182.69 252.32 147.62 251.22C112.55 250.13 58.84 248.32 48.13 246.25C37.41 244.18 66.79 240.96 83.33 238.8C99.86 236.63 119 234.7 147.32 233.29C175.64 231.87 216.46 230.44 253.24 230.31C290.02 230.17 333.49 231.22 368.01 232.47C402.53 233.72 448.42 235.67 460.36 237.82C472.3 239.98 453.72 243.11 439.64 245.41Z" fill="{{glow}}" opacity="0.18" transform="translate(-3 -3)"/>
<path d="M144 306C112.48 308.1 172.41 314.64 178.9 318.58C185.4 322.53 178.48 325.66 182.97 329.67C187.47 333.68 199.55 338.25 205.9 342.65C212.25 347.04 215.86 352.04 221.07 356.04C226.29 360.04 233.3 363.32 237.21 366.65C241.12 369.97 238.27 376.53 244.53 376C250.79 375.47 267.06 367.49 274.79 363.45C282.52 359.4 285.71 355.39 290.93 351.74C296.14 348.08 299.75 344.68 306.1 341.51C312.45 338.34 324.53 336.47 329.03 332.72C333.52 328.98 326.6 323.5 333.1 319.04C339.59 314.59 399.52 308.17 368 306C336.48 303.83 175.52 303.9 144 306Z" fill="url(#pond-base-g0)"/>
<path d="M425.22 289.81C413.97 295.49 378.49 300.39 350.66 303.72C322.83 307.04 288.77 309.77 258.25 309.74C227.72 309.71 192.4 306.92 167.52 303.53C142.65 300.14 117.65 294.67 109 289.39C100.34 284.11 107.59 277.55 115.59 271.86C123.58 266.16 134 259.34 156.99 255.19C179.98 251.05 220.39 247.25 253.51 246.96C286.62 246.68 328.26 249.71 355.7 253.49C383.15 257.27 406.58 263.59 418.16 269.64C429.75 275.7 436.47 284.14 425.22 289.81Z" fill="url(#pond-base-g1)"/>
<path d="M439.64 245.41C425.56 247.71 406.07 250.38 375.88 251.61C345.7 252.85 296.6 252.88 258.55 252.81C220.51 252.75 182.69 252.32 147.62 251.22C112.55 250.13 58.84 248.32 48.13 246.25C37.41 244.18 66.79 240.96 83.33 238.8C99.86 236.63 119 234.7 147.32 233.29C175.64 231.87 216.46 230.44 253.24 230.31C290.02 230.17 333.49 231.22 368.01 232.47C402.53 233.72 448.42 235.67 460.36 237.82C472.3 239.98 453.72 243.11 439.64 245.41Z" fill="url(#pond-base-g2)"/>
<path d="M327.48 332.85C325.89 353.04 323.51 368.18 324.3 383.33C325.91 370.18 328.39 355.04 329.98 333.85Z" fill="{{earth_deep}}" opacity="0.85"/>
</svg>
