<svg viewBox="0 0 512 384" xmlns="http://www.w3.org/2000/svg">
<path d="M91.36 254.13C92.16 249.29 90.35 246.39 89.35 244.45C90.35 247.35 93.16 251.22 94.16 254.13Z" fill="{{green_deep}}"/>
<path d="M92.96 254.13C94.16 247.02 92.58 242.75 92.25 239.91C93.25 244.17 95.43 249.86 95.76 254.13Z" fill="{{green_deep}}"/>
<path d="M94.56 254.13C96.16 248.45 97.28 245.04 97.62 242.77C98.62 246.18 97.7 250.72 97.36 254.13Z" fill="{{green_deep}}"/>
<path d="M96.16 254.13C98.16 247.91 99.79 244.17 100.79 241.68C101.79 245.42 99.96 250.39 98.96 254.13Z" fill="{{green_deep}}"/>
<path d="M208.54 261.1C209.34 253.82 208.25 249.46 207.25 246.55C208.25 250.91 210.34 256.74 211.34 261.1Z" fill="{{green_deep}}"/>
<path d="M210.94 261.1C212.34 253.85 210.73 249.5 210.73 246.6C211.73 250.95 213.74 256.75 213.74 261.1Z" fill="{{green_deep}}"/>
<path d="M213.34 261.1C215.34 252.12 219.12 246.73 220.12 243.13C221.12 248.52 217.14 255.71 216.14 261.1Z" fill="{{green_deep}}"/>
<path d="M308 260.1C308.8 253.26 305.23 249.15 304.23 246.41C305.23 250.52 309.8 255.99 310.8 260.1Z" fill="{{green_deep}}"/>
<path d="M309.2 260.1C310.3 249.5 306.58 243.14 306.08 238.91C307.08 245.26 311.5 253.74 312 260.1Z" fill="{{green_deep}}"/>
<path d="M310.4 260.1C311.8 251.54 310.41 246.4 310.41 242.97C311.41 248.11 313.2 254.96 313.2 260.1Z" fill="{{green_deep}}"/>
<path d="M311.6 260.1C313.3 249.29 316.88 242.81 317.38 238.49C318.38 244.97 314.9 253.62 314.4 260.1Z" fill="{{green_deep}}"/>
<path d="M312.8 260.1C314.8 251.92 320.79 247.01 321.79 243.74C322.79 248.65 316.6 255.19 315.6 260.1Z" fill="{{green_deep}}"/>
<path d="M410.77 262.51C411.57 254.73 409.15 250.06 408.15 246.95C409.15 251.62 412.57 257.84 413.57 262.51Z" fill="{{green_deep}}"/>
<path d="M411.97 262.51C413.07 253.96 410.68 248.82 410.18 245.4C411.18 250.53 414.27 257.38 414.77 262.51Z" fill="{{green_deep}}"/>
<path d="M413.17 262.51C414.57 254.75 414.8 250.09 414.8 246.99C415.8 251.65 415.97 257.85 415.97 262.51Z" fill="{{green_deep}}"/>
<path d="M414.37 262.51C416.07 257.32 417.32 254.21 417.82 252.14C418.82 255.25 417.67 259.4 417.17 262.51Z" fill="{{green_deep}}"/>
<path d="M415.57 262.51C417.57 254.9 422.26 250.34 423.26 247.29C424.26 251.86 419.37 257.94 418.37 262.51Z" fill="{{green_deep}}"/>
<path d="M125.38 258C124.88 234.19 126.88 224.27 127.08 218.32L128.48 219.12C128.68 238.16 127.78 258 127.78 258Z" fill="{{green_deep}}"/>
<rect x="124.88" y="209.32" width="4.4" height="10" rx="2.2" fill="{{bark}}"/>
<path d="M189.1 258C188.6 228.25 190.6 215.86 190.8 208.42L192.2 209.22C192.4 233.21 191.5 258 191.5 258Z" fill="{{green_deep}}"/>
<path d="M264.74 258C264.24 228.98 266.24 216.88 266.44 209.63L267.84 210.43C268.04 233.81 267.14 258 267.14 258Z" fill="{{green_deep}}"/>
<rect x="264.24" y="200.63" width="4.4" height="10" rx="2.2" fill="{{bark}}"/>
<path d="M312.5 258C312 237.12 314 228.42 314.2 223.2L315.6 224C315.8 240.6 314.9 258 314.9 258Z" fill="{{green_deep}}"/>
<path d="M384.45 258C383.95 237.63 385.95 229.15 386.15 224.06L387.55 224.86C387.75 241.03 386.85 258 386.85 258Z" fill="{{green_deep}}"/>
<rect x="383.95" y="215.06" width="4.4" height="10" rx="2.2" fill="{{bark}}"/>
</svg>
