<svg viewBox="0 0 512 384" xmlns="http://www.w3.org/2000/svg">
<defs><linearGradient x1="0" y1="232.4" x2="0" y2="254" gradientUnits="userSpaceOnUse" id="pond-mid-g0"><stop offset="0" stop-color="{{water}}"/><stop offset="1" stop-color="{{earth_deep}}"/></linearGradient><linearGradient x1="0" y1="197.88" x2="0" y2="241.83" gradientUnits="userSpaceOnUse" id="pond-mid-g1"><stop offset="0" stop-color="{{green_mid}}"/><stop offset="1" stop-color="{{green_deep}}"/></linearGradient><linearGradient x1="0" y1="195.18" x2="0" y2="244.19" gradientUnits="userSpaceOnUse" id="pond-mid-g2"><stop offset="0" stop-color="{{green_mid}}"/><stop offset="1" stop-color="{{green_deep}}"/></linearGradient><linearGradient x1="0" y1="197.34" x2="0" y2="235.75" gradientUnits="userSpaceOnUse" id="pond-mid-g3"><stop offset="0" stop-color="{{green_mid}}"/><stop offset="1" stop-color="{{green_deep}}"/></linearGradient></defs>
<path d="M439.33 245.33C429.51 247.41 400.87 249.88 370.72 251C340.57 252.11 296.09 251.96 258.41 252.01C220.74 252.05 175.98 252.32 144.66 251.27C113.34 250.22 83.07 247.82 70.5 245.71C57.92 243.6 58.08 240.78 69.21 238.61C80.34 236.44 106.6 233.94 137.29 232.69C167.98 231.44 217.28 230.93 253.38 231.12C289.47 231.32 324.49 232.62 353.87 233.85C383.24 235.09 415.39 236.62 429.64 238.53C443.88 240.44 449.15 243.25 439.33 245.33Z" fill="{{sand}}"/>
<path d="M384.32 242C384.09 243.66 369.27 245.68 353.83 246.95C338.38 248.23 314.85 249 291.67 249.65C268.48 250.3 236.73 251.32 214.71 250.85C192.69 250.39 174.1 248.36 159.57 246.88C145.04 245.41 128.26 243.66 127.54 242C126.81 240.34 140.56 238.35 155.22 236.9C169.88 235.45 192.62 233.77 215.51 233.32C238.39 232.86 269.25 233.55 292.54 234.16C315.83 234.77 339.94 235.67 355.24 236.98C370.54 238.28 384.56 240.34 384.32 242Z" fill="url(#pond-mid-g0)"/>
<ellipse cx="256.24" cy="242.9" rx="17.94" ry="2.73" fill="{{cloud}}" opacity="0.4"/>
<ellipse cx="264.69" cy="239.75" rx="16.71" ry="1.8" fill="{{cloud}}" opacity="0.4"/>
<ellipse cx="284.68" cy="240.33" rx="13.69" ry="2.58" fill="{{cloud}}" opacity="0.4"/>
<ellipse cx="182.8" cy="244.98" rx="8.13" ry="3.03" fill="{{green_mid}}" opacity="0.92"/>
<ellipse cx="300.25" cy="244.87" rx="7.3" ry="3.32" fill="{{green_mid}}" opacity="0.92"/>
<ellipse cx="248.46" cy="244.33" rx="9.39" ry="3.48" fill="{{green_mid}}" opacity="0.92"/>
<path d="M172.87 224.85C172.45 229.56 171.54 234.83 165.91 238.47C160.27 242.11 148.46 246.15 139.04 246.71C129.63 247.27 118.97 244.1 109.41 241.82C99.84 239.55 85.53 237.14 81.66 233.07C77.8 229 81.55 221.57 86.21 217.4C90.88 213.23 100.92 210.19 109.63 208.06C118.33 205.93 128.62 204.25 138.42 204.62C148.23 204.99 162.71 206.88 168.45 210.25C174.19 213.63 173.3 220.15 172.87 224.85Z" fill="{{green_deep}}" opacity="0.67"/>
<path d="M167.17 219.85C167.87 223.99 166.14 229.08 160.92 233.09C155.71 237.1 144.91 243.47 135.89 243.91C126.86 244.36 115.51 238.54 106.77 235.74C98.02 232.94 87.58 231.01 83.4 227.11C79.23 223.2 78.68 216.86 81.71 212.31C84.74 207.77 92.8 201.99 101.6 199.84C110.39 197.7 125.3 198.06 134.49 199.46C143.67 200.86 151.25 204.85 156.69 208.25C162.14 211.65 166.46 215.71 167.17 219.85Z" fill="url(#pond-mid-g1)" opacity="0.84"/>
<path d="M133.47 211.06C133.59 213.21 131.67 216.16 127.69 217.71C123.71 219.26 114.93 220.82 109.58 220.35C104.22 219.87 98.15 217.08 95.56 214.85C92.97 212.62 91.62 208.98 94.05 206.98C96.49 204.98 104.69 203.2 110.17 202.84C115.65 202.48 123.04 203.44 126.93 204.81C130.81 206.18 133.34 208.92 133.47 211.06Z" fill="{{glow}}" opacity="0.14"/>
<path d="M286.81 224.69C286.45 230.45 285.94 237.05 280.81 241.43C275.69 245.82 264.6 250.39 256.06 250.99C247.52 251.59 237.67 247.9 229.57 245.06C221.47 242.22 209.66 238.56 207.44 233.95C205.21 229.34 212.82 222.65 216.22 217.4C219.62 212.14 221.37 204.93 227.82 202.43C234.26 199.94 245.72 201.7 254.91 202.43C264.1 203.17 277.65 203.11 282.97 206.82C288.28 210.53 287.17 218.92 286.81 224.69Z" fill="{{green_deep}}" opacity="0.67"/>
<path d="M280.06 219.69C279.96 225.44 282.26 232.69 277.51 236.8C272.77 240.9 260.3 243.72 251.59 244.32C242.88 244.92 231.9 243.27 225.25 240.4C218.6 237.52 215.3 232.08 211.69 227.09C208.08 222.1 201.48 215.3 203.59 210.45C205.7 205.61 216.25 200.99 224.37 198.02C232.48 195.06 243.32 191.93 252.27 192.64C261.23 193.34 273.48 197.76 278.11 202.26C282.74 206.77 280.16 213.93 280.06 219.69Z" fill="url(#pond-mid-g2)" opacity="0.84"/>
<path d="M252.76 209.88C252.6 212.39 248.74 215.47 245.07 217.06C241.4 218.64 235.47 219.79 230.73 219.39C225.99 218.99 219.16 217.08 216.65 214.66C214.14 212.23 213.41 207.4 215.68 204.85C217.96 202.3 225.24 199.82 230.3 199.35C235.36 198.88 242.3 200.28 246.05 202.03C249.79 203.79 252.92 207.38 252.76 209.88Z" fill="{{glow}}" opacity="0.14"/>
<path d="M418.21 221.55C418.29 225.8 418.49 231.46 414.15 234.44C409.82 237.42 399.82 238.66 392.19 239.42C384.57 240.18 375.16 240.8 368.41 239C361.66 237.19 354.51 232.69 351.69 228.6C348.87 224.51 348.24 218.1 351.48 214.45C354.71 210.8 364.13 209.02 371.09 206.68C378.05 204.34 386.14 200.02 393.23 200.39C400.32 200.76 409.47 205.37 413.63 208.9C417.79 212.42 418.12 217.29 418.21 221.55Z" fill="{{green_deep}}" opacity="0.67"/>
<path d="M420.88 216.55C420.38 220.33 410.81 224.15 405.39 227.22C399.97 230.28 395.39 233.58 388.35 234.91C381.31 236.25 369.08 237.28 363.14 235.22C357.19 233.17 355.3 226.89 352.67 222.59C350.04 218.29 344.98 212.95 347.34 209.42C349.7 205.9 359.95 203.43 366.83 201.43C373.7 199.42 381.68 196.87 388.6 197.39C395.52 197.9 402.95 201.31 408.33 204.5C413.71 207.7 421.37 212.76 420.88 216.55Z" fill="url(#pond-mid-g3)" opacity="0.84"/>
<path d="M389.02 208.86C389.18 210.99 387.85 214.08 384.66 215.54C381.47 217 373.95 218.17 369.85 217.61C365.76 217.04 361.53 214.1 360.11 212.14C358.68 210.19 359.61 207.69 361.32 205.87C363.03 204.05 366.64 201.75 370.37 201.24C374.1 200.72 380.58 201.52 383.69 202.79C386.8 204.06 388.86 206.74 389.02 208.86Z" fill="{{glow}}" opacity="0.14"/>
</svg>
