<svg viewBox="0 0 128 128" xmlns="http://www.w3.org/2000/svg">
<defs><linearGradient x1="0" y1="109.5" x2="0" y2="124.5" gradientUnits="userSpaceOnUse" id="sanctuary-souvenir-anywhere-collector-g0"><stop offset="0" stop-color="{{earth_mid}}"/><stop offset="1" stop-color="{{earth_deep}}"/></linearGradient><linearGradient x1="0" y1="100" x2="0" y2="112" gradientUnits="userSpaceOnUse" id="sanctuary-souvenir-anywhere-collector-g1"><stop offset="0" stop-color="{{earth_mid}}"/><stop offset="1" stop-color="{{earth_deep}}"/></linearGradient><linearGradient x1="0" y1="91.6" x2="0" y2="101.6" gradientUnits="userSpaceOnUse" id="sanctuary-souvenir-anywhere-collector-g2"><stop offset="0" stop-color="{{earth_mid}}"/><stop offset="1" stop-color="{{earth_deep}}"/></linearGradient><linearGradient x1="0" y1="84.8" x2="0" y2="92.4" gradientUnits="userSpaceOnUse" id="sanctuary-souvenir-anywhere-collector-g3"><stop offset="0" stop-color="{{earth_mid}}"/><stop offset="1" stop-color="{{earth_deep}}"/></linearGradient></defs>
<ellipse cx="64" cy="121.5" rx="17" ry="3.74" fill="{{earth_deep}}" opacity="0.16"/>
<path d="M86.9 117C86.71 119.05 82.25 121.4 78.58 122.91C74.91 124.42 69.76 125.91 64.89 126.05C60.02 126.18 52.95 125.22 49.36 123.71C45.78 122.2 43.2 119.17 43.37 117C43.53 114.83 46.75 112.23 50.33 110.71C53.92 109.19 59.99 107.89 64.89 107.87C69.79 107.85 76.06 109.07 79.73 110.59C83.4 112.11 87.09 114.95 86.9 117Z" fill="{{earth_deep}}"/>
<path d="M82.03 117C82.38 118.78 80.41 121.53 77.17 122.76C73.93 123.98 67.34 124.41 62.59 124.37C57.83 124.33 51.6 123.74 48.64 122.51C45.68 121.28 44.94 118.88 44.83 117C44.72 115.12 45.03 112.44 47.99 111.24C50.95 110.03 58.08 109.61 62.59 109.75C67.1 109.9 71.81 110.87 75.06 112.08C78.3 113.29 81.68 115.22 82.03 117Z" fill="url(#sanctuary-souvenir-anywhere-collector-g0)"/>
<path d="M78.33 106C78.3 107.84 76.26 110.21 73.53 111.48C70.81 112.75 65.81 113.63 61.99 113.62C58.16 113.61 53.09 112.68 50.58 111.41C48.07 110.14 46.84 107.77 46.92 106C47 104.23 48.55 102.09 51.06 100.82C53.57 99.55 58.21 98.44 61.99 98.37C65.77 98.31 71.02 99.15 73.74 100.42C76.47 101.69 78.37 104.16 78.33 106Z" fill="{{earth_deep}}"/>
<path d="M78.61 106C78.71 107.48 77.23 109.51 74.82 110.57C72.41 111.63 67.67 112.39 64.16 112.37C60.65 112.35 56.08 111.52 53.76 110.45C51.45 109.39 50.14 107.42 50.28 106C50.43 104.58 52.32 102.84 54.63 101.92C56.94 100.99 60.89 100.49 64.16 100.45C67.42 100.41 71.81 100.76 74.21 101.69C76.62 102.61 78.51 104.52 78.61 106Z" fill="url(#sanctuary-souvenir-anywhere-collector-g1)"/>
<path d="M75.14 96.6C75.17 98.14 74.54 100.26 72.72 101.28C70.9 102.31 66.92 102.84 64.23 102.76C61.54 102.68 58.54 101.85 56.59 100.82C54.63 99.79 52.51 98.02 52.49 96.6C52.47 95.18 54.51 93.44 56.47 92.32C58.43 91.2 61.56 89.94 64.23 89.89C66.91 89.84 70.71 90.9 72.53 92.02C74.35 93.14 75.11 95.06 75.14 96.6Z" fill="{{earth_deep}}"/>
<path d="M74.85 96.6C74.9 97.8 73.84 99.51 72.16 100.28C70.49 101.05 67.19 101.28 64.8 101.25C62.42 101.21 59.39 100.84 57.87 100.07C56.35 99.29 55.68 97.76 55.67 96.6C55.67 95.44 56.32 93.94 57.84 93.12C59.37 92.3 62.46 91.7 64.8 91.69C67.14 91.68 70.2 92.24 71.88 93.06C73.55 93.88 74.8 95.4 74.85 96.6Z" fill="url(#sanctuary-souvenir-anywhere-collector-g2)"/>
<path d="M72.04 88.6C72.06 89.83 71.17 91.48 69.85 92.33C68.53 93.18 66.07 93.66 64.11 93.69C62.14 93.72 59.46 93.37 58.07 92.53C56.67 91.68 55.7 89.89 55.74 88.6C55.77 87.31 56.87 85.7 58.26 84.8C59.66 83.91 62.2 83.19 64.11 83.22C66.01 83.25 68.36 84.08 69.68 84.98C71 85.87 72.01 87.37 72.04 88.6Z" fill="{{earth_deep}}"/>
<path d="M69.13 88.6C69.09 89.53 68.56 90.72 67.53 91.34C66.49 91.96 64.47 92.3 62.91 92.31C61.35 92.33 59.14 92.04 58.16 91.42C57.18 90.8 56.98 89.5 57.05 88.6C57.11 87.7 57.58 86.67 58.56 86.01C59.53 85.36 61.38 84.72 62.91 84.67C64.44 84.63 66.71 85.08 67.75 85.73C68.78 86.39 69.16 87.67 69.13 88.6Z" fill="url(#sanctuary-souvenir-anywhere-collector-g3)"/>
<path d="M55.55 110C55.47 110.72 54.79 111.55 53.85 111.9C52.92 112.25 51.12 112.42 49.95 112.1C48.77 111.79 46.84 110.75 46.79 110C46.73 109.25 48.37 107.98 49.63 107.58C50.89 107.18 53.35 107.2 54.34 107.6C55.33 108.01 55.63 109.28 55.55 110Z" fill="{{green_mid}}" opacity="0.9"/>
<circle cx="66" cy="83" r="1.8" fill="{{glow}}" opacity="0.85"/>
</svg>
