<svg viewBox="0 0 128 128" xmlns="http://www.w3.org/2000/svg">
<defs><linearGradient x1="0" y1="62" x2="0" y2="124" gradientUnits="userSpaceOnUse" id="sanctuary-souvenir-park-starter-g0"><stop offset="0" stop-color="{{sand}}"/><stop offset="1" stop-color="{{bark}}"/></linearGradient><linearGradient x1="0" y1="64" x2="0" y2="79" gradientUnits="userSpaceOnUse" id="sanctuary-souvenir-park-starter-g1"><stop offset="0" stop-color="{{accent_warm}}"/><stop offset="1" stop-color="{{earth_deep}}"/></linearGradient></defs>
<ellipse cx="64" cy="121.5" rx="14" ry="3.08" fill="{{earth_deep}}" opacity="0.16"/>
<path d="M82.21 121C82.24 122.17 78.31 123.63 75.28 124.52C72.24 125.42 67.66 126.42 64 126.38C60.34 126.35 56.3 125.23 53.35 124.33C50.4 123.43 46.24 122.09 46.3 121C46.36 119.91 50.77 118.64 53.72 117.79C56.67 116.93 60.44 115.91 64 115.87C67.56 115.83 72.07 116.68 75.1 117.53C78.14 118.38 82.18 119.83 82.21 121Z" fill="{{green_mid}}"/>
<rect x="62" y="62" width="3.4" height="60" rx="1.7" fill="url(#sanctuary-souvenir-park-starter-g0)"/>
<circle cx="63.7" cy="61" r="2.4" fill="{{glow}}"/>
<path d="M66 64C78 66 86 64 96 71L66 79Z" fill="url(#sanctuary-souvenir-park-starter-g1)"/>
<circle cx="74" cy="71" r="2.6" fill="{{glow}}"/>
</svg>
