<svg viewBox="0 0 128 128" xmlns="http://www.w3.org/2000/svg">
<defs><linearGradient x1="0" y1="74" x2="0" y2="124" gradientUnits="userSpaceOnUse" id="sanctuary-souvenir-school-census-g0"><stop offset="0" stop-color="{{bark}}"/><stop offset="1" stop-color="{{earth_deep}}"/></linearGradient></defs>
<ellipse cx="64" cy="121.5" rx="15" ry="3.3" fill="{{earth_deep}}" opacity="0.16"/>
<rect x="46" y="74" width="36" height="50" rx="3.4" fill="url(#sanctuary-souvenir-school-census-g0)"/>
<rect x="50" y="80" width="28" height="40" rx="1.5" fill="{{sand}}"/>
<rect x="50" y="80" width="28" height="40" rx="1.5" fill="{{cloud}}" opacity="0.4"/>
<rect x="57" y="70" width="14" height="7" rx="2.4" fill="{{earth_deep}}"/>
<circle cx="55" cy="87" r="2.2" fill="{{green_mid}}"/>
<rect x="60" y="85.6" width="15" height="2.8" rx="1.4" fill="{{earth_mid}}" opacity="0.7"/>
<circle cx="55" cy="95.5" r="2.2" fill="{{green_mid}}"/>
<rect x="60" y="94.1" width="13.5" height="2.8" rx="1.4" fill="{{earth_mid}}" opacity="0.7"/>
<circle cx="55" cy="104" r="2.2" fill="{{green_mid}}"/>
<rect x="60" y="102.6" width="12" height="2.8" rx="1.4" fill="{{earth_mid}}" opacity="0.7"/>
<circle cx="55" cy="112.5" r="2.2" fill="{{cloud}}"/>
<rect x="60" y="111.1" width="10.5" height="2.8" rx="1.4" fill="{{earth_mid}}" opacity="0.7"/>
</svg>
