<svg viewBox="0 0 128 128" xmlns="http://www.w3.org/2000/svg">
<defs><linearGradient x1="0" y1="46" x2="0" y2="124" gradientUnits="userSpaceOnUse" id="sanctuary-souvenir-street-survivors-g0"><stop offset="0" stop-color="{{earth_mid}}"/><stop offset="1" stop-color="{{earth_deep}}"/></linearGradient><radialGradient cx="64" cy="48" r="12" gradientUnits="userSpaceOnUse" id="sanctuary-souvenir-street-survivors-g1"><stop offset="0" stop-color="{{glow}}" stop-opacity="0.5"/><stop offset="1" stop-color="{{glow}}" stop-opacity="0"/></radialGradient></defs>
<ellipse cx="64" cy="121.5" rx="13" ry="2.86" fill="{{earth_deep}}" opacity="0.16"/>
<path d="M78.74 122C78.98 123.04 75.67 124.83 72.79 125.39C69.91 125.96 65.11 125.65 61.48 125.4C57.85 125.16 52.53 124.78 51.02 123.92C49.51 123.07 50.79 121.33 52.42 120.28C54.05 119.24 57.64 117.86 60.79 117.68C63.95 117.49 68.36 118.44 71.35 119.16C74.34 119.89 78.5 120.96 78.74 122Z" fill="{{earth_mid}}"/>
<rect x="61.6" y="46" width="4.8" height="78" rx="2.4" fill="url(#sanctuary-souvenir-street-survivors-g0)"/>
<path d="M57 46C58 38 70 38 71 46Z" fill="{{earth_deep}}"/>
<circle cx="64" cy="48" r="5.4" fill="{{glow}}"/>
<circle cx="64" cy="48" r="12" fill="url(#sanctuary-souvenir-street-survivors-g1)"/>
<path d="M62.8 118L69.42 110.25L71.42 110.25L65.2 118Z" fill="{{green_deep}}"/>
<path d="M69.22 110.25L66.82 102.5L68.82 102.5L71.62 110.25Z" fill="{{green_deep}}"/>
<path d="M66.62 102.5L59.33 94.75L61.33 94.75L69.02 102.5Z" fill="{{green_deep}}"/>
<path d="M59.13 94.75L57.29 87L59.29 87L61.53 94.75Z" fill="{{green_deep}}"/>
<path d="M57.09 87L63 79.25L65 79.25L59.49 87Z" fill="{{green_deep}}"/>
<path d="M62.8 79.25L68.23 71.5L70.23 71.5L65.2 79.25Z" fill="{{green_deep}}"/>
<path d="M68.03 71.5L66.09 63.75L68.09 63.75L70.43 71.5Z" fill="{{green_deep}}"/>
<path d="M65.89 63.75L60.06 56L62.06 56L68.29 63.75Z" fill="{{green_deep}}"/>
<path d="M66.42 102.5C66.42 100 59.26 98.5 59.82 97.5C60.38 98.75 69.22 100.25 69.22 102.5Z" fill="{{green_mid}}"/>
<path d="M56.89 87C56.89 84.5 65.73 83 66.29 82C66.85 83.25 59.69 84.75 59.69 87Z" fill="{{green_mid}}"/>
<path d="M67.83 71.5C67.83 69 60.67 67.5 61.23 66.5C61.79 67.75 70.63 69.25 70.63 71.5Z" fill="{{green_mid}}"/>
<circle cx="64.09" cy="63.75" r="2.6" fill="{{accent_warm}}"/>
<circle cx="63.06" cy="59" r="2.2" fill="{{accent_warm}}"/>
</svg>
