<svg viewBox="0 0 128 128" xmlns="http://www.w3.org/2000/svg">
<defs><linearGradient x1="0" y1="58" x2="0" y2="124" gradientUnits="userSpaceOnUse" id="fallback-signature-g0"><stop offset="0" stop-color="{{earth_mid}}"/><stop offset="1" stop-color="{{earth_deep}}"/></linearGradient></defs>
<ellipse cx="64" cy="121.5" rx="17" ry="3.74" fill="{{earth_deep}}" opacity="0.16"/>
<path d="M53 124C52 90 56 66 62 58C70 66 74 92 74 124Z" fill="url(#fallback-signature-g0)"/>
<path d="M55 78C59 74 68 74 72 79L71.4 83C67 79 60 79 55.6 82Z" fill="{{glow}}" opacity="0.85"/>
<path d="M56.93 121C57 122.09 55.52 123.71 54.11 124.44C52.71 125.16 50.17 125.6 48.51 125.34C46.85 125.08 44.78 123.88 44.16 122.88C43.54 121.87 44.05 120.27 44.81 119.33C45.57 118.39 47.23 117.48 48.71 117.24C50.2 117 52.35 117.26 53.72 117.89C55.09 118.52 56.87 119.91 56.93 121Z" fill="{{earth_mid}}"/>
<path d="M81.59 121.6C81.61 122.46 81.05 123.61 80.08 124.23C79.11 124.84 77.09 125.46 75.76 125.29C74.43 125.12 72.72 124.11 72.07 123.21C71.42 122.32 71.24 120.77 71.86 119.92C72.49 119.06 74.47 118.23 75.82 118.09C77.17 117.95 79 118.49 79.96 119.08C80.92 119.66 81.57 120.74 81.59 121.6Z" fill="{{earth_mid}}"/>
<path d="M76.48 119C76.41 119.76 75.56 120.66 74.33 121.1C73.09 121.54 70.2 121.99 69.07 121.64C67.93 121.29 67.49 119.87 67.5 119C67.52 118.13 67.95 116.84 69.15 116.44C70.35 116.03 73.49 116.13 74.71 116.56C75.93 116.99 76.54 118.24 76.48 119Z" fill="{{green_mid}}" opacity="0.9"/>
</svg>
