<svg viewBox="0 0 128 128" xmlns="http://www.w3.org/2000/svg">
<defs><linearGradient x1="0" y1="102.5" x2="0" y2="123.5" gradientUnits="userSpaceOnUse" id="fallback-surprise-g0"><stop offset="0" stop-color="{{accent_warm}}"/><stop offset="1" stop-color="{{bark}}"/></linearGradient></defs>
<ellipse cx="64" cy="121.5" rx="13" ry="2.86" fill="{{earth_deep}}" opacity="0.16"/>
<path d="M79.24 113C79.11 115.86 77.13 119.28 74.59 121.27C72.05 123.27 67.61 124.91 64 124.98C60.39 125.04 55.62 123.66 52.91 121.66C50.21 119.67 47.8 115.91 47.77 113C47.75 110.09 50.06 106.28 52.76 104.22C55.46 102.16 60.23 100.64 64 100.62C67.77 100.61 72.83 102.06 75.37 104.12C77.91 106.18 79.37 110.14 79.24 113Z" fill="{{bark}}"/>
<path d="M79.08 113C79.3 115.47 77.06 119.14 74.55 120.91C72.04 122.68 67.37 123.72 64 123.61C60.63 123.5 56.74 122.01 54.34 120.24C51.95 118.48 49.7 115.47 49.63 113C49.55 110.53 51.52 107.32 53.91 105.43C56.31 103.55 60.79 101.59 64 101.71C67.21 101.82 70.68 104.23 73.19 106.11C75.7 107.99 78.85 110.53 79.08 113Z" fill="url(#fallback-surprise-g0)"/>
<rect x="59" y="98" width="10" height="5" rx="2.5" fill="{{earth_deep}}"/>
<circle cx="64" cy="96" r="2.6" fill="{{glow}}"/>
<ellipse cx="64" cy="113" rx="5" ry="6.4" fill="{{glow}}" opacity="0.75"/>
<ellipse cx="64" cy="113" rx="2.4" ry="3.4" fill="{{accent_cool}}"/>
</svg>
