<svg viewBox="0 0 512 384" xmlns="http://www.w3.org/2000/svg">
<defs><linearGradient x1="0" y1="296" x2="0" y2="374" gradientUnits="userSpaceOnUse" id="meadow-base-g0"><stop offset="0" stop-color="{{earth_deep}}"/><stop offset="1" stop-color="{{earth_deep}}" stop-opacity="0.92"/></linearGradient><linearGradient x1="0" y1="244" x2="0" y2="314" gradientUnits="userSpaceOnUse" id="meadow-base-g1"><stop offset="0" stop-color="{{earth_mid}}"/><stop offset="1" stop-color="{{earth_deep}}"/></linearGradient><linearGradient x1="0" y1="224" x2="0" y2="256" gradientUnits="userSpaceOnUse" id="meadow-base-g2"><stop offset="0" stop-color="{{earth_mid}}"/><stop offset="1" stop-color="{{earth_deep}}"/></linearGradient></defs>
<path d="M461.44 240.93C451.17 243.27 412.06 245.49 378.35 247.12C344.63 248.75 299.8 250.61 259.14 250.71C218.47 250.8 164.95 249.33 134.36 247.68C103.76 246.03 86.85 243.19 75.58 240.8C64.31 238.42 57.03 235.69 66.75 233.38C76.48 231.06 102.89 228.37 133.95 226.9C165.02 225.43 210.71 224.81 253.15 224.56C295.59 224.3 357.46 223.93 388.59 225.36C419.72 226.79 427.8 230.53 439.94 233.12C452.08 235.72 471.71 238.6 461.44 240.93Z" fill="{{glow}}" opacity="0.18" transform="translate(-3 -3)"/>
<path d="M138.4 306C104.53 307.8 163.85 313.39 170.35 316.81C176.85 320.23 173.17 322.74 177.4 326.53C181.64 330.32 188.12 335.59 195.77 339.54C203.41 343.48 216.49 345.88 223.29 350.21C230.09 354.53 235.14 361.52 236.57 365.48C238.01 369.45 225.4 374.1 231.87 374C238.35 373.9 265.95 368.46 275.43 364.88C284.9 361.3 281.91 356.78 288.71 352.51C295.51 348.23 308.59 343.22 316.23 339.23C323.88 335.25 330.36 332.37 334.6 328.59C338.83 324.82 335.15 320.34 341.65 316.57C348.15 312.81 407.47 307.76 373.6 306C339.73 304.24 172.27 304.2 138.4 306Z" fill="url(#meadow-base-g0)"/>
<path d="M427.14 288.08C419.08 293.8 381.8 299.65 353.64 302.85C325.48 306.05 291.38 306.84 258.18 307.27C224.97 307.7 182.31 308.53 154.41 305.44C126.51 302.35 102.88 295.01 90.77 288.72C78.66 282.44 72.44 274.16 81.76 267.73C91.08 261.31 118.07 253.87 146.71 250.18C175.35 246.5 220.9 244.87 253.59 245.6C286.28 246.32 318.12 250.72 342.85 254.54C367.58 258.36 387.92 262.94 401.96 268.53C416.01 274.12 435.19 282.36 427.14 288.08Z" fill="url(#meadow-base-g1)"/>
<path d="M461.44 240.93C451.17 243.27 412.06 245.49 378.35 247.12C344.63 248.75 299.8 250.61 259.14 250.71C218.47 250.8 164.95 249.33 134.36 247.68C103.76 246.03 86.85 243.19 75.58 240.8C64.31 238.42 57.03 235.69 66.75 233.38C76.48 231.06 102.89 228.37 133.95 226.9C165.02 225.43 210.71 224.81 253.15 224.56C295.59 224.3 357.46 223.93 388.59 225.36C419.72 226.79 427.8 230.53 439.94 233.12C452.08 235.72 471.71 238.6 461.44 240.93Z" fill="url(#meadow-base-g2)"/>
<path d="M182.11 344.78C185.56 355.9 190.74 364.24 189.01 372.58C191.88 366.24 188.06 357.9 184.61 345.78Z" fill="{{earth_deep}}" opacity="0.85"/>
<path d="M222.83 316.75C217.17 332.41 208.67 344.15 211.5 355.89C212.09 346.15 219.67 334.41 225.33 317.75Z" fill="{{earth_deep}}" opacity="0.85"/>
</svg>
