<svg viewBox="0 0 512 384" xmlns="http://www.w3.org/2000/svg">
<path d="M84.77 257.37C85.57 248.19 80.19 242.68 79.19 239C80.19 244.52 86.57 251.86 87.57 257.37Z" fill="{{green_deep}}"/>
<path d="M86.37 257.37C87.57 248.96 85.33 243.91 85 240.55C86 245.59 88.83 252.33 89.17 257.37Z" fill="{{green_deep}}"/>
<path d="M87.97 257.37C89.57 250.42 90.32 246.25 90.66 243.46C91.66 247.64 91.1 253.2 90.77 257.37Z" fill="{{green_deep}}"/>
<path d="M89.57 257.37C91.57 248.47 98.31 243.12 99.31 239.56C100.31 244.9 93.37 252.03 92.37 257.37Z" fill="{{green_deep}}"/>
<path d="M134.25 252.92C135.05 246.06 132.05 241.94 131.05 239.2C132.05 243.32 136.05 248.81 137.05 252.92Z" fill="{{green_deep}}"/>
<path d="M135.85 252.92C137.05 244.82 133.6 239.96 133.27 236.72C134.27 241.58 138.31 248.06 138.65 252.92Z" fill="{{green_deep}}"/>
<path d="M137.45 252.92C139.05 244.53 138.74 239.49 139.07 236.14C140.07 241.17 140.58 247.89 140.25 252.92Z" fill="{{green_deep}}"/>
<path d="M139.05 252.92C141.05 245.33 147.08 240.77 148.08 237.74C149.08 242.29 142.85 248.37 141.85 252.92Z" fill="{{green_deep}}"/>
<path d="M162.48 254.87C163.28 247.47 158.63 243.04 157.63 240.08C158.63 244.52 164.28 250.43 165.28 254.87Z" fill="{{green_deep}}"/>
<path d="M164.08 254.87C165.28 247.79 163.16 243.54 162.83 240.7C163.83 244.95 166.55 250.62 166.88 254.87Z" fill="{{green_deep}}"/>
<path d="M165.68 254.87C167.28 246.1 166.94 240.84 167.28 237.33C168.28 242.59 168.81 249.61 168.48 254.87Z" fill="{{green_deep}}"/>
<path d="M167.28 254.87C169.28 248 172.66 243.88 173.66 241.14C174.66 245.26 171.08 250.75 170.08 254.87Z" fill="{{green_deep}}"/>
<path d="M205.67 250.8C206.47 243.83 201.31 239.65 200.31 236.86C201.31 241.04 207.47 246.62 208.47 250.8Z" fill="{{green_deep}}"/>
<path d="M208.07 250.8C209.47 243.35 208.46 238.89 208.46 235.91C209.46 240.38 210.87 246.33 210.87 250.8Z" fill="{{green_deep}}"/>
<path d="M210.47 250.8C212.47 243.69 218.38 239.42 219.38 236.58C220.38 240.84 214.27 246.53 213.27 250.8Z" fill="{{green_deep}}"/>
<path d="M243.02 255.05C243.82 249.39 240.17 246 239.17 243.74C240.17 247.13 244.82 251.66 245.82 255.05Z" fill="{{green_deep}}"/>
<path d="M245.42 255.05C246.82 248.25 246.2 244.17 246.2 241.45C247.2 245.53 248.22 250.97 248.22 255.05Z" fill="{{green_deep}}"/>
<path d="M247.82 255.05C249.82 249.52 252.7 246.21 253.7 244C254.7 247.31 251.62 251.73 250.62 255.05Z" fill="{{green_deep}}"/>
<path d="M294.89 250.87C295.69 245.16 292.77 241.73 291.77 239.45C292.77 242.87 296.69 247.44 297.69 250.87Z" fill="{{green_deep}}"/>
<path d="M297.29 250.87C298.69 243.43 298.11 238.97 298.11 235.99C299.11 240.46 300.09 246.41 300.09 250.87Z" fill="{{green_deep}}"/>
<path d="M299.69 250.87C301.69 246.09 302.28 243.23 303.28 241.31C304.28 244.18 303.49 248 302.49 250.87Z" fill="{{green_deep}}"/>
<path d="M331.88 250.75C332.68 241.52 328.85 235.98 327.85 232.29C328.85 237.83 333.68 245.21 334.68 250.75Z" fill="{{green_deep}}"/>
<path d="M334.28 250.75C335.68 242.76 337.03 237.97 337.03 234.78C338.03 239.57 337.08 245.96 337.08 250.75Z" fill="{{green_deep}}"/>
<path d="M336.68 250.75C338.68 241.56 343.5 236.05 344.5 232.37C345.5 237.88 340.48 245.23 339.48 250.75Z" fill="{{green_deep}}"/>
<path d="M377.45 255.21C378.25 244.95 374.25 238.79 373.25 234.69C374.25 240.85 379.25 249.06 380.25 255.21Z" fill="{{green_deep}}"/>
<path d="M378.65 255.21C379.75 246.57 379.16 241.38 378.66 237.92C379.66 243.11 380.95 250.03 381.45 255.21Z" fill="{{green_deep}}"/>
<path d="M379.85 255.21C381.25 245.66 381.67 239.94 381.67 236.12C382.67 241.85 382.65 249.48 382.65 255.21Z" fill="{{green_deep}}"/>
<path d="M381.05 255.21C382.75 247.1 384.2 242.23 384.7 238.99C385.7 243.86 384.35 250.35 383.85 255.21Z" fill="{{green_deep}}"/>
<path d="M382.25 255.21C384.25 249.04 386.59 245.33 387.59 242.86C388.59 246.57 386.05 251.51 385.05 255.21Z" fill="{{green_deep}}"/>
<path d="M411.95 252.77C412.75 243.31 407.1 237.63 406.1 233.85C407.1 239.52 413.75 247.09 414.75 252.77Z" fill="{{green_deep}}"/>
<path d="M413.55 252.77C414.75 245.32 413.95 240.85 413.62 237.87C414.62 242.34 416.01 248.3 416.35 252.77Z" fill="{{green_deep}}"/>
<path d="M415.15 252.77C416.75 245.14 417.83 240.57 418.16 237.52C419.16 242.09 418.28 248.19 417.95 252.77Z" fill="{{green_deep}}"/>
<path d="M416.75 252.77C418.75 243 424.68 237.13 425.68 233.23C426.68 239.09 420.55 246.9 419.55 252.77Z" fill="{{green_deep}}"/>
<path d="M186.53 256C186.23 245.43 188.03 241.9 187.83 238.38L189.03 238.98C189.23 247.19 188.53 256 188.53 256Z" fill="{{green_deep}}"/>
<circle cx="187.93" cy="236.78" r="2.57" fill="{{accent_cool}}"/>
<circle cx="187.93" cy="236.78" r="1" fill="{{glow}}" opacity="0.9"/>
<path d="M182.6 256C182.3 248.18 184.1 245.57 183.9 242.96L185.1 243.56C185.3 249.48 184.6 256 184.6 256Z" fill="{{green_deep}}"/>
<circle cx="184" cy="241.36" r="2.9" fill="{{accent_cool}}"/>
<circle cx="184" cy="241.36" r="1" fill="{{glow}}" opacity="0.9"/>
<path d="M189.4 256C189.1 246.59 190.9 243.46 190.7 240.32L191.9 240.92C192.1 248.16 191.4 256 191.4 256Z" fill="{{green_deep}}"/>
<circle cx="190.8" cy="238.72" r="3.71" fill="{{accent_cool}}"/>
<circle cx="190.8" cy="238.72" r="1" fill="{{glow}}" opacity="0.9"/>
<path d="M251.7 256C251.4 245.69 253.2 242.25 253 238.81L254.2 239.41C254.4 247.41 253.7 256 253.7 256Z" fill="{{green_deep}}"/>
<circle cx="253.1" cy="237.21" r="3.46" fill="{{glow}}"/>
<circle cx="253.1" cy="237.21" r="1" fill="{{glow}}" opacity="0.9"/>
<path d="M261.44 256C261.14 249.42 262.94 247.23 262.74 245.04L263.94 245.64C264.14 250.52 263.44 256 263.44 256Z" fill="{{green_deep}}"/>
<circle cx="262.84" cy="243.44" r="2.65" fill="{{glow}}"/>
<circle cx="262.84" cy="243.44" r="1" fill="{{glow}}" opacity="0.9"/>
<path d="M259.18 256C258.88 249.14 260.68 246.86 260.48 244.57L261.68 245.17C261.88 250.29 261.18 256 261.18 256Z" fill="{{green_deep}}"/>
<circle cx="260.58" cy="242.97" r="3.8" fill="{{glow}}"/>
<circle cx="260.58" cy="242.97" r="1" fill="{{glow}}" opacity="0.9"/>
<path d="M328.33 256C328.03 247.83 329.83 245.11 329.63 242.39L330.83 242.99C331.03 249.2 330.33 256 330.33 256Z" fill="{{green_deep}}"/>
<circle cx="329.73" cy="240.79" r="3.21" fill="{{accent_warm}}"/>
<circle cx="329.73" cy="240.79" r="1" fill="{{glow}}" opacity="0.9"/>
<path d="M323.43 256C323.13 247.63 324.93 244.83 324.73 242.04L325.93 242.64C326.13 249.02 325.43 256 325.43 256Z" fill="{{green_deep}}"/>
<circle cx="324.83" cy="240.44" r="2.88" fill="{{accent_warm}}"/>
<circle cx="324.83" cy="240.44" r="1" fill="{{glow}}" opacity="0.9"/>
<path d="M324.85 256C324.55 248.01 326.35 245.35 326.15 242.69L327.35 243.29C327.55 249.35 326.85 256 326.85 256Z" fill="{{green_deep}}"/>
<circle cx="326.25" cy="241.09" r="3.13" fill="{{accent_warm}}"/>
<circle cx="326.25" cy="241.09" r="1" fill="{{glow}}" opacity="0.9"/>
</svg>
