<svg viewBox="0 0 512 384" xmlns="http://www.w3.org/2000/svg">
<defs><linearGradient x1="0" y1="220" x2="0" y2="258" gradientUnits="userSpaceOnUse" id="meadow-mid-g0"><stop offset="0" stop-color="{{green_mid}}"/><stop offset="1" stop-color="{{green_deep}}"/></linearGradient><linearGradient x1="0" y1="180.2" x2="0" y2="227.92" gradientUnits="userSpaceOnUse" id="meadow-mid-g1"><stop offset="0" stop-color="{{green_mid}}"/><stop offset="1" stop-color="{{green_deep}}"/></linearGradient><linearGradient x1="0" y1="184.28" x2="0" y2="231.71" gradientUnits="userSpaceOnUse" id="meadow-mid-g2"><stop offset="0" stop-color="{{green_mid}}"/><stop offset="1" stop-color="{{green_deep}}"/></linearGradient><linearGradient x1="0" y1="177.75" x2="0" y2="238.21" gradientUnits="userSpaceOnUse" id="meadow-mid-g3"><stop offset="0" stop-color="{{green_mid}}"/><stop offset="1" stop-color="{{green_deep}}"/></linearGradient><linearGradient x1="0" y1="184.2" x2="0" y2="241.93" gradientUnits="userSpaceOnUse" id="meadow-mid-g4"><stop offset="0" stop-color="{{green_mid}}"/><stop offset="1" stop-color="{{green_deep}}"/></linearGradient></defs>
<path d="M433.26 240.32C421.6 242.42 394.73 244.63 365.61 245.87C336.49 247.11 295.09 247.69 258.52 247.79C221.95 247.88 178.48 247.57 146.18 246.43C113.88 245.29 76.18 243.08 64.73 240.95C53.28 238.82 66.19 235.98 77.48 233.66C88.78 231.33 103.22 228.52 132.49 227.01C161.76 225.49 212.56 224.63 253.1 224.58C293.63 224.53 345.31 225.27 375.72 226.72C406.12 228.17 425.94 231.03 435.53 233.3C445.12 235.56 444.91 238.23 433.26 240.32Z" fill="url(#meadow-mid-g0)"/>
<path d="M181.41 209.06C182.65 213.88 178.7 220.95 171.46 224.88C164.22 228.82 149.35 232.1 137.99 232.66C126.63 233.22 114.06 230.7 103.29 228.24C92.52 225.77 76.33 222.21 73.38 217.87C70.43 213.53 81.49 207.52 85.61 202.2C89.73 196.88 89.52 188.39 98.11 185.94C106.7 183.49 126.18 185.85 137.16 187.52C148.15 189.2 156.65 192.39 164.02 195.98C171.4 199.57 180.17 204.24 181.41 209.06Z" fill="{{green_deep}}" opacity="0.69"/>
<path d="M184.99 204.06C186.05 209.23 178.13 216.45 169.78 220.74C161.42 225.02 147.15 228.95 134.85 229.79C122.54 230.64 105.06 228.9 95.93 225.79C86.8 222.69 85.15 216.35 80.08 211.16C75.01 205.96 62.68 199.3 65.5 194.63C68.32 189.96 85.77 185.02 96.99 183.13C108.22 181.25 121.76 182.24 132.84 183.33C143.91 184.43 154.76 186.26 163.45 189.71C172.15 193.17 183.94 198.89 184.99 204.06Z" fill="url(#meadow-mid-g1)" opacity="0.86"/>
<path d="M131.23 194.52C130.23 197.01 127.64 198.84 123.25 200.55C118.87 202.26 110.4 205.13 104.93 204.76C99.46 204.4 93.53 200.85 90.42 198.37C87.31 195.89 83.88 192.24 86.29 189.89C88.71 187.53 97.76 184.96 104.92 184.24C112.07 183.52 124.83 183.85 129.21 185.57C133.6 187.28 132.22 192.02 131.23 194.52Z" fill="{{glow}}" opacity="0.14"/>
<path d="M256.87 212.99C256.88 218.14 256.09 225.15 251.02 228.45C245.95 231.74 234.6 232.06 226.45 232.75C218.3 233.43 210.16 234.29 202.13 232.56C194.1 230.83 180.75 226.88 178.26 222.38C175.78 217.89 183.65 210.84 187.23 205.59C190.8 200.33 192.82 194.13 199.7 190.87C206.59 187.62 219.99 184.93 228.53 186.05C237.07 187.17 246.22 193.09 250.95 197.58C255.67 202.07 256.86 207.85 256.87 212.99Z" fill="{{green_deep}}" opacity="0.69"/>
<path d="M262.67 207.99C261.82 213.35 252.34 219.33 245.68 222.76C239.01 226.19 230.26 228.14 222.69 228.57C215.12 228.99 207.65 227.33 200.26 225.31C192.88 223.3 181.16 220.59 178.36 216.48C175.57 212.37 179.9 205.01 183.49 200.64C187.08 196.28 193.14 193.21 199.89 190.28C206.63 187.35 215.47 183 223.95 183.06C232.44 183.12 244.35 186.46 250.8 190.61C257.25 194.77 263.53 202.64 262.67 207.99Z" fill="url(#meadow-mid-g2)" opacity="0.86"/>
<path d="M227.18 198.51C227.88 200.97 223.94 205.82 219.94 207.3C215.94 208.78 207.73 208.26 203.2 207.4C198.68 206.55 194.42 204.26 192.8 202.19C191.17 200.12 191.83 197.37 193.45 194.99C195.06 192.62 198.78 188.36 202.5 187.95C206.22 187.54 211.67 190.77 215.79 192.53C219.9 194.29 226.49 196.05 227.18 198.51Z" fill="{{glow}}" opacity="0.14"/>
<path d="M347.46 212.98C346.71 219.25 338.75 225 332.36 230.57C325.97 236.14 318.78 244.55 309.13 246.41C299.48 248.27 283.46 245.53 274.44 241.73C265.41 237.93 259.16 230.4 254.97 223.62C250.79 216.83 245.33 206.73 249.33 201.02C253.33 195.3 268.97 193.03 278.97 189.33C288.97 185.62 299.69 178.19 309.34 178.79C318.99 179.39 330.53 187.24 336.88 192.94C343.23 198.64 348.21 206.71 347.46 212.98Z" fill="{{green_deep}}" opacity="0.69"/>
<path d="M339.9 207.98C339.82 214.14 335.92 222.2 329.73 226.31C323.54 230.42 312.35 231.19 302.74 232.62C293.13 234.05 280.7 237.23 272.08 234.89C263.45 232.56 253.4 224.62 250.97 218.62C248.54 212.62 254.43 205.64 257.51 198.89C260.6 192.15 261.87 181 269.47 178.15C277.08 175.3 293.04 179.9 303.17 181.78C313.29 183.65 324.09 185.02 330.21 189.39C336.33 193.76 339.98 201.83 339.9 207.98Z" fill="url(#meadow-mid-g3)" opacity="0.86"/>
<path d="M301.3 195.89C301.73 198.83 301.53 203.51 297.87 205.64C294.21 207.76 285.3 209.23 279.33 208.64C273.37 208.05 264.31 205.06 262.07 202.08C259.82 199.1 263.07 194.12 265.86 190.75C268.66 187.38 273.92 182.32 278.83 181.86C283.73 181.41 291.54 185.67 295.29 188.01C299.03 190.35 300.87 192.95 301.3 195.89Z" fill="{{glow}}" opacity="0.14"/>
<path d="M439.69 218.06C439.73 223.6 429.15 229.68 423.14 234.75C417.13 239.83 411.77 246.55 403.62 248.52C395.48 250.5 382.02 249.91 374.25 246.61C366.49 243.31 358.9 234.99 357.03 228.73C355.15 222.46 359.93 215.29 363 209.02C366.07 202.75 368.69 194.67 375.46 191.08C382.24 187.49 395.74 185.76 403.65 187.5C411.56 189.24 416.91 196.42 422.92 201.51C428.93 206.61 439.65 212.52 439.69 218.06Z" fill="{{green_deep}}" opacity="0.69"/>
<path d="M424.71 213.06C425.1 219.38 428.24 228.14 423.94 232.75C419.65 237.36 407.69 239.52 398.96 240.71C390.23 241.91 377.97 243.1 371.55 239.93C365.14 236.76 363.08 227.83 360.47 221.71C357.86 215.59 353.99 209.01 355.91 203.18C357.83 197.36 364.9 189.42 372 186.78C379.1 184.13 390.24 185.95 398.51 187.29C406.78 188.63 417.25 190.53 421.62 194.83C425.98 199.12 424.32 206.74 424.71 213.06Z" fill="url(#meadow-mid-g4)" opacity="0.86"/>
<path d="M402.7 201.52C402.87 204.46 397.9 208.74 393.87 210.77C389.83 212.81 382.49 214.58 378.49 213.72C374.49 212.86 372.02 208.55 369.86 205.61C367.7 202.66 363.91 198.29 365.51 196.04C367.11 193.8 374.91 192.63 379.47 192.14C384.02 191.65 388.99 191.53 392.86 193.1C396.73 194.66 402.53 198.57 402.7 201.52Z" fill="{{glow}}" opacity="0.14"/>
</svg>
