<svg viewBox="0 0 512 384" xmlns="http://www.w3.org/2000/svg">
<defs><linearGradient x1="0" y1="292" x2="0" y2="372" gradientUnits="userSpaceOnUse" id="urban-base-g0"><stop offset="0" stop-color="{{earth_deep}}"/><stop offset="1" stop-color="{{earth_deep}}" stop-opacity="0.92"/></linearGradient><linearGradient x1="0" y1="242" x2="0" y2="310" gradientUnits="userSpaceOnUse" id="urban-base-g1"><stop offset="0" stop-color="{{earth_mid}}"/><stop offset="1" stop-color="{{earth_deep}}"/></linearGradient><linearGradient x1="0" y1="222" x2="0" y2="254" gradientUnits="userSpaceOnUse" id="urban-base-g2"><stop offset="0" stop-color="{{earth_mid}}"/><stop offset="1" stop-color="{{earth_deep}}"/></linearGradient></defs>
<path d="M433.01 238.56C422.11 240.83 396.88 243.11 367.86 244.72C338.84 246.33 297.41 248 258.88 248.22C220.35 248.43 169.89 247.48 136.66 246C103.44 244.52 74.05 241.87 59.55 239.35C45.04 236.82 38.22 233.43 49.65 230.85C61.08 228.27 94.17 225.22 128.13 223.89C162.08 222.57 213.07 222.8 253.36 222.9C293.66 223 339.9 223.14 369.88 224.5C399.87 225.86 422.77 228.73 433.29 231.07C443.81 233.42 443.92 236.29 433.01 238.56Z" fill="{{glow}}" opacity="0.18" transform="translate(-3 -3)"/>
<path d="M144 302C110.97 303.47 163.1 306.27 169.81 310.81C176.52 315.35 177.97 324.92 184.26 329.24C190.55 333.57 201.36 333.21 207.56 336.74C213.77 340.27 216.5 346.09 221.49 350.44C226.48 354.8 232.15 359.27 237.51 362.87C242.87 366.46 247.5 372.63 253.67 372C259.83 371.37 268.35 362.37 274.49 359.12C280.63 355.86 285.52 355.5 290.51 352.45C295.5 349.4 298.23 345.82 304.44 340.83C310.64 335.84 321.45 327.68 327.74 322.52C334.03 317.36 335.48 313.31 342.19 309.89C348.9 306.47 401.03 303.32 368 302C334.97 300.68 177.03 300.53 144 302Z" fill="url(#urban-base-g0)"/>
<path d="M391.02 283.09C382.29 288.29 363.5 292.82 341.41 297.11C319.32 301.4 288.5 308.19 258.47 308.85C228.45 309.5 186.29 305.05 161.27 301.03C136.25 297.01 115.97 290.49 108.35 284.74C100.74 279 106.62 272.26 115.57 266.58C124.52 260.9 138.98 254.11 162.03 250.67C185.08 247.24 221.46 246.53 253.88 245.98C286.29 245.43 333.2 244.06 356.52 247.38C379.84 250.7 388.06 259.95 393.82 265.9C399.57 271.86 399.76 277.89 391.02 283.09Z" fill="url(#urban-base-g1)"/>
<path d="M433.01 238.56C422.11 240.83 396.88 243.11 367.86 244.72C338.84 246.33 297.41 248 258.88 248.22C220.35 248.43 169.89 247.48 136.66 246C103.44 244.52 74.05 241.87 59.55 239.35C45.04 236.82 38.22 233.43 49.65 230.85C61.08 228.27 94.17 225.22 128.13 223.89C162.08 222.57 213.07 222.8 253.36 222.9C293.66 223 339.9 223.14 369.88 224.5C399.87 225.86 422.77 228.73 433.29 231.07C443.81 233.42 443.92 236.29 433.01 238.56Z" fill="url(#urban-base-g2)"/>
<path d="M324.96 320.9C327.83 340.91 332.13 355.92 330.69 370.93C333.41 357.92 330.33 342.91 327.46 321.9Z" fill="{{earth_deep}}" opacity="0.85"/>
</svg>
