<svg viewBox="0 0 512 384" xmlns="http://www.w3.org/2000/svg">
<path d="M93.64 254.65C94.44 249.6 93.16 246.57 92.16 244.55C93.16 247.58 95.44 251.62 96.44 254.65Z" fill="{{green_deep}}"/>
<path d="M94.84 254.65C95.94 249.89 93.25 247.03 92.75 245.13C93.75 247.98 97.14 251.79 97.64 254.65Z" fill="{{green_deep}}"/>
<path d="M96.04 254.65C97.44 248.56 99.01 244.91 99.01 242.48C100.01 246.13 98.84 251 98.84 254.65Z" fill="{{green_deep}}"/>
<path d="M97.24 254.65C98.94 249.86 99.8 246.98 100.3 245.06C101.3 247.94 100.54 251.77 100.04 254.65Z" fill="{{green_deep}}"/>
<path d="M98.44 254.65C100.44 249.69 101.73 246.71 102.73 244.73C103.73 247.7 102.24 251.67 101.24 254.65Z" fill="{{green_deep}}"/>
<path d="M197.82 250.11C198.62 244.25 194.87 240.73 193.87 238.38C194.87 241.9 199.62 246.59 200.62 250.11Z" fill="{{green_deep}}"/>
<path d="M199.02 250.11C200.12 240.76 198.54 235.15 198.04 231.41C199.04 237.02 201.32 244.5 201.82 250.11Z" fill="{{green_deep}}"/>
<path d="M200.22 250.11C201.62 242.57 202.99 238.04 202.99 235.02C203.99 239.55 203.02 245.58 203.02 250.11Z" fill="{{green_deep}}"/>
<path d="M201.42 250.11C203.12 242.23 202.79 237.5 203.29 234.34C204.29 239.08 204.72 245.38 204.22 250.11Z" fill="{{green_deep}}"/>
<path d="M202.62 250.11C204.62 242.93 208.2 238.63 209.2 235.75C210.2 240.06 206.42 245.81 205.42 250.11Z" fill="{{green_deep}}"/>
<path d="M295.75 248.86C296.55 240.92 290.26 236.16 289.26 232.98C290.26 237.75 297.55 244.1 298.55 248.86Z" fill="{{green_deep}}"/>
<path d="M296.95 248.86C298.05 239.68 295.65 234.17 295.15 230.5C296.15 236.01 299.25 243.35 299.75 248.86Z" fill="{{green_deep}}"/>
<path d="M298.15 248.86C299.55 240.29 300.81 235.15 300.81 231.72C301.81 236.86 300.95 243.72 300.95 248.86Z" fill="{{green_deep}}"/>
<path d="M299.35 248.86C301.05 237.79 304.13 231.14 304.63 226.71C305.63 233.36 302.65 242.22 302.15 248.86Z" fill="{{green_deep}}"/>
<path d="M300.55 248.86C302.55 239.49 307.24 233.87 308.24 230.13C309.24 235.75 304.35 243.24 303.35 248.86Z" fill="{{green_deep}}"/>
<path d="M407.97 250.04C408.77 243.26 404.48 239.19 403.48 236.48C404.48 240.55 409.77 245.97 410.77 250.04Z" fill="{{green_deep}}"/>
<path d="M410.37 250.04C411.77 243.14 412.69 239 412.69 236.24C413.69 240.38 413.17 245.9 413.17 250.04Z" fill="{{green_deep}}"/>
<path d="M412.77 250.04C414.77 239.21 418.56 232.72 419.56 228.39C420.56 234.88 416.57 243.54 415.57 250.04Z" fill="{{green_deep}}"/>
<path d="M270 254C269.7 243.53 271.5 240.04 271.3 236.55L272.5 237.15C272.7 245.27 272 254 272 254Z" fill="{{green_deep}}"/>
<circle cx="271.4" cy="234.95" r="3.69" fill="{{accent_warm}}"/>
<circle cx="271.4" cy="234.95" r="1" fill="{{glow}}" opacity="0.9"/>
<path d="M255.45 254C255.15 244.13 256.95 240.84 256.75 237.55L257.95 238.15C258.15 245.78 257.45 254 257.45 254Z" fill="{{green_deep}}"/>
<circle cx="256.85" cy="235.95" r="3.26" fill="{{accent_warm}}"/>
<circle cx="256.85" cy="235.95" r="1" fill="{{glow}}" opacity="0.9"/>
<rect x="135" y="244" width="22" height="9" rx="2" fill="{{bark}}"/>
<path d="M155.46 241C155.09 242.37 153.98 243.55 152.4 244.49C150.82 245.43 148.44 246.47 146 246.64C143.56 246.81 139.39 246.42 137.78 245.48C136.17 244.55 136.07 242.34 136.34 241C136.62 239.66 137.83 238.48 139.44 237.42C141.05 236.36 143.47 234.82 146 234.63C148.53 234.44 153.07 235.22 154.64 236.28C156.22 237.35 155.84 239.63 155.46 241Z" fill="{{green_mid}}"/>
<circle cx="146.56" cy="239" r="1.8" fill="{{accent_warm}}"/>
<rect x="355" y="244" width="22" height="9" rx="2" fill="{{bark}}"/>
<path d="M378.32 241C378.63 242.31 376.2 244.39 374.15 245.45C372.1 246.5 368.51 247.45 366 247.33C363.49 247.22 360.84 245.83 359.08 244.77C357.32 243.72 355.63 242.36 355.45 241C355.26 239.64 356.21 237.77 357.96 236.62C359.72 235.46 363.61 233.9 366 234.06C368.39 234.22 370.26 236.4 372.32 237.56C374.37 238.71 378.02 239.69 378.32 241Z" fill="{{green_mid}}"/>
<circle cx="367.99" cy="239" r="1.8" fill="{{accent_warm}}"/>
</svg>
