<svg viewBox="0 0 512 384" xmlns="http://www.w3.org/2000/svg">
<defs><linearGradient x1="0" y1="193.59" x2="0" y2="231.74" gradientUnits="userSpaceOnUse" id="urban-mid-g0"><stop offset="0" stop-color="{{green_mid}}"/><stop offset="1" stop-color="{{green_deep}}"/></linearGradient><linearGradient x1="0" y1="191.32" x2="0" y2="237.83" gradientUnits="userSpaceOnUse" id="urban-mid-g1"><stop offset="0" stop-color="{{green_mid}}"/><stop offset="1" stop-color="{{green_deep}}"/></linearGradient><linearGradient x1="0" y1="190.62" x2="0" y2="237.52" gradientUnits="userSpaceOnUse" id="urban-mid-g2"><stop offset="0" stop-color="{{green_mid}}"/><stop offset="1" stop-color="{{green_deep}}"/></linearGradient></defs>
<path d="M425.5 238.33C414.28 240.63 399.1 243.48 371.27 244.79C343.43 246.11 295.8 246.24 258.5 246.24C221.2 246.24 178 246.01 147.47 244.79C116.93 243.57 86.94 241.13 75.3 238.91C63.66 236.7 64.96 233.63 77.62 231.49C90.28 229.36 121.98 227.5 151.26 226.1C180.55 224.7 217.19 223.29 253.35 223.09C289.51 222.88 337.35 223.55 368.23 224.88C399.1 226.21 429.05 228.8 438.59 231.04C448.14 233.29 436.73 236.04 425.5 238.33Z" fill="{{earth_deep}}" opacity="0.9"/>
<rect x="107.5" y="228.39" width="57" height="13.79" rx="2.5" fill="{{sand}}" opacity="0.96"/>
<ellipse cx="166" cy="240" rx="2.6" ry="1.4" fill="{{green_deep}}" opacity="0.85"/>
<rect x="167.5" y="229.79" width="57" height="14.38" rx="2.5" fill="{{sand}}" opacity="0.96"/>
<ellipse cx="226" cy="240" rx="2.6" ry="1.4" fill="{{green_deep}}" opacity="0.85"/>
<rect x="227.5" y="226.68" width="57" height="13.52" rx="2.5" fill="{{sand}}" opacity="0.96"/>
<ellipse cx="286" cy="240" rx="2.6" ry="1.4" fill="{{green_deep}}" opacity="0.85"/>
<rect x="287.5" y="227.19" width="57" height="13.06" rx="2.5" fill="{{sand}}" opacity="0.96"/>
<ellipse cx="346" cy="240" rx="2.6" ry="1.4" fill="{{green_deep}}" opacity="0.85"/>
<rect x="347.5" y="226.94" width="57" height="14.74" rx="2.5" fill="{{sand}}" opacity="0.96"/>
<rect x="327" y="219" width="26" height="10" rx="2" fill="{{bark}}"/>
<path d="M352.62 216C352.5 217.83 351.94 220.27 349.83 221.3C347.73 222.32 343.25 222.16 340 222.14C336.75 222.13 332.67 222.21 330.36 221.19C328.05 220.17 326.24 217.79 326.14 216C326.04 214.21 327.44 211.55 329.75 210.48C332.06 209.41 336.53 209.61 340 209.59C343.47 209.56 348.45 209.25 350.55 210.32C352.65 211.39 352.73 214.17 352.62 216Z" fill="{{green_mid}}"/>
<path d="M171.06 217.66C170.58 222.15 167.29 227.49 162.21 230.43C157.13 233.37 148.41 234.25 140.6 235.31C132.78 236.36 121.45 238.66 115.34 236.78C109.24 234.89 106.32 228.34 103.95 224C101.59 219.66 98.46 214.25 101.13 210.75C103.79 207.25 113.26 205.09 119.93 203.01C126.61 200.92 133.63 198.14 141.16 198.23C148.69 198.32 160.11 200.3 165.1 203.54C170.08 206.78 171.54 213.18 171.06 217.66Z" fill="{{green_deep}}" opacity="0.68"/>
<path d="M161.06 212.66C160.69 217.3 163.39 222.46 159.51 226.04C155.64 229.63 145.89 233.19 137.82 234.18C129.75 235.18 117.96 234.43 111.1 232.01C104.24 229.6 98.39 223.93 96.65 219.67C94.92 215.42 97.53 210.15 100.68 206.47C103.83 202.8 109.53 199.71 115.56 197.65C121.6 195.58 129.19 194 136.89 194.1C144.58 194.2 157.7 195.15 161.73 198.24C165.76 201.34 161.43 208.03 161.06 212.66Z" fill="url(#urban-mid-g0)" opacity="0.85"/>
<path d="M140.04 205.03C140.17 207.12 136.38 210.42 132.95 211.54C129.52 212.66 123.78 212.22 119.44 211.76C115.1 211.3 108.84 210.49 106.9 208.78C104.97 207.07 105.73 203.19 107.85 201.51C109.97 199.84 115.58 199.12 119.63 198.71C123.67 198.3 128.73 197.98 132.13 199.04C135.53 200.09 139.9 202.95 140.04 205.03Z" fill="{{glow}}" opacity="0.14"/>
<path d="M297.94 219.58C297.66 224.28 291.62 229.9 286.03 233.28C280.44 236.65 271.78 239.28 264.39 239.82C257 240.37 249.86 238.4 241.7 236.56C233.54 234.72 219.21 233.01 215.45 228.78C211.68 224.54 215.67 216.48 219.11 211.16C222.56 205.85 228.54 198.95 236.11 196.89C243.68 194.83 255.95 197.44 264.55 198.8C273.14 200.16 282.11 201.6 287.68 205.06C293.24 208.52 298.21 214.87 297.94 219.58Z" fill="{{green_deep}}" opacity="0.68"/>
<path d="M294.96 214.58C295.66 219.09 289.59 225.84 283.81 229.15C278.02 232.47 268.84 233.17 260.28 234.46C251.72 235.75 238.82 239.07 232.46 236.91C226.1 234.74 224.72 226.54 222.13 221.48C219.55 216.43 214.55 210.72 216.96 206.56C219.37 202.39 229.09 199.47 236.61 196.49C244.13 193.5 254.92 187.73 262.08 188.66C269.24 189.6 274.11 197.76 279.59 202.08C285.07 206.4 294.26 210.06 294.96 214.58Z" fill="url(#urban-mid-g1)" opacity="0.85"/>
<path d="M262.74 205.27C262.72 207.39 257.73 210.3 254.11 211.61C250.5 212.92 245.23 213.53 241.05 213.13C236.87 212.72 230.71 211.04 229.04 209.17C227.38 207.29 229.05 203.83 231.06 201.89C233.07 199.95 237.25 198.04 241.1 197.54C244.95 197.04 250.58 197.6 254.19 198.89C257.79 200.18 262.75 203.15 262.74 205.27Z" fill="{{glow}}" opacity="0.14"/>
<path d="M405.28 219.07C405.28 224.69 407.38 232.02 403.51 235.92C399.65 239.81 389.51 241.48 382.1 242.44C374.69 243.4 364.77 244.27 359.06 241.68C353.35 239.08 350.57 232.17 347.82 226.87C345.07 221.56 340.07 214.12 342.55 209.84C345.03 205.56 356.23 203.11 362.72 201.19C369.21 199.27 374.69 198.13 381.49 198.3C388.29 198.47 399.55 198.76 403.52 202.22C407.48 205.68 405.28 213.45 405.28 219.07Z" fill="{{green_deep}}" opacity="0.68"/>
<path d="M400.73 214.07C400.93 219.15 401.16 225.19 397.53 229.67C393.89 234.16 386 239.87 378.95 241C371.89 242.14 361.2 239.63 355.21 236.48C349.23 233.33 345.4 227.24 343.04 222.08C340.69 216.92 339 210.53 341.08 205.53C343.17 200.53 349.39 194.49 355.54 192.09C361.7 189.68 371.2 189.92 378.01 191.1C384.81 192.29 392.58 195.36 396.37 199.19C400.15 203.02 400.54 208.99 400.73 214.07Z" fill="url(#urban-mid-g2)" opacity="0.85"/>
<path d="M378.55 204.69C378.24 207.24 375.73 210.29 372.98 211.56C370.23 212.84 365.18 212.94 362.07 212.35C358.96 211.75 355.67 209.86 354.31 208.01C352.94 206.16 352.61 203.18 353.87 201.23C355.12 199.29 358.34 197.16 361.83 196.34C365.32 195.51 372.05 194.89 374.83 196.28C377.62 197.67 378.85 202.14 378.55 204.69Z" fill="{{glow}}" opacity="0.14"/>
</svg>
