<svg viewBox="0 0 512 384" xmlns="http://www.w3.org/2000/svg">
<path d="M-8 268C-8 262.95 -16.8 252.17 -8 237.7C0.8 223.24 27.2 179.99 44.8 181.22C62.4 182.44 80 242.8 97.6 245.07C115.2 247.34 132.8 193.4 150.4 194.85C168 196.3 185.6 253.2 203.2 253.76C220.8 254.32 238.4 201.17 256 198.2C273.6 195.24 291.2 240.6 308.8 235.95C326.4 231.31 344 170.57 361.6 170.31C379.2 170.06 396.8 229.73 414.4 234.43C432 239.13 449.6 198.03 467.2 198.52C484.8 199.01 511.2 225.78 520 237.36C528.8 248.94 520 262.89 520 268L520 298L-8 298Z" fill="{{horizon}}" opacity="0.38"/>
</svg>
