<svg viewBox="0 0 512 384" xmlns="http://www.w3.org/2000/svg">
<defs><linearGradient x1="0" y1="312" x2="0" y2="376" gradientUnits="userSpaceOnUse" id="woodland-base-g0"><stop offset="0" stop-color="{{earth_deep}}"/><stop offset="1" stop-color="{{earth_deep}}" stop-opacity="0.92"/></linearGradient><linearGradient x1="0" y1="254" x2="0" y2="330" gradientUnits="userSpaceOnUse" id="woodland-base-g1"><stop offset="0" stop-color="{{earth_mid}}"/><stop offset="1" stop-color="{{earth_deep}}"/></linearGradient><linearGradient x1="0" y1="232" x2="0" y2="266" gradientUnits="userSpaceOnUse" id="woodland-base-g2"><stop offset="0" stop-color="{{earth_mid}}"/><stop offset="1" stop-color="{{earth_deep}}"/></linearGradient></defs>
<path d="M482.71 250.57C467.94 253.23 421.85 255.72 384.55 257.18C347.24 258.64 298.83 259.48 258.9 259.32C218.97 259.17 177.64 257.76 144.98 256.25C112.31 254.75 79.77 252.71 62.89 250.28C46.01 247.86 34.01 244.39 43.7 241.72C53.39 239.05 86.15 235.87 121.03 234.26C155.91 232.65 210.23 231.98 252.97 232.07C295.71 232.15 340.8 233.26 377.5 234.78C414.2 236.3 455.64 238.55 473.17 241.18C490.71 243.81 497.48 247.9 482.71 250.57Z" fill="{{glow}}" opacity="0.18" transform="translate(-3 -3)"/>
<path d="M135.6 322C98.28 323.38 143.42 326.76 152.51 330.3C161.6 333.84 182.3 340.71 190.15 343.22C198.01 345.74 195.32 343.17 199.65 345.37C203.97 347.56 209.94 352.38 216.1 356.4C222.25 360.42 233.56 366.22 236.57 369.49C239.58 372.76 227.69 376.22 234.16 376C240.64 375.78 265.14 371.68 275.43 368.14C285.72 364.61 289.75 358.13 295.9 354.78C302.06 351.43 308.03 349.91 312.35 348.04C316.68 346.18 313.99 346.94 321.85 343.58C329.7 340.22 350.4 331.48 359.49 327.88C368.58 324.28 413.72 322.98 376.4 322C339.08 321.02 172.92 320.62 135.6 322Z" fill="url(#woodland-base-g0)"/>
<path d="M415.67 301.05C402.78 307.95 387.84 315.96 361.6 319.71C335.37 323.46 294.15 323.06 258.26 323.55C222.38 324.04 173.53 326.23 146.28 322.66C119.03 319.1 99.85 308.93 94.74 302.18C89.63 295.43 103.98 288.17 115.62 282.16C127.26 276.16 141.56 270.09 164.58 266.14C187.6 262.19 223.88 258.54 253.74 258.46C283.59 258.39 312.83 262.38 343.7 265.69C374.58 269 426.98 272.42 438.98 278.32C450.97 284.21 428.57 294.15 415.67 301.05Z" fill="url(#woodland-base-g1)"/>
<path d="M482.71 250.57C467.94 253.23 421.85 255.72 384.55 257.18C347.24 258.64 298.83 259.48 258.9 259.32C218.97 259.17 177.64 257.76 144.98 256.25C112.31 254.75 79.77 252.71 62.89 250.28C46.01 247.86 34.01 244.39 43.7 241.72C53.39 239.05 86.15 235.87 121.03 234.26C155.91 232.65 210.23 231.98 252.97 232.07C295.71 232.15 340.8 233.26 377.5 234.78C414.2 236.3 455.64 238.55 473.17 241.18C490.71 243.81 497.48 247.9 482.71 250.57Z" fill="url(#woodland-base-g2)"/>
<path d="M200.67 356.19C202.25 367.68 204.62 376.31 203.83 384.93C206.23 378.31 204.75 369.68 203.17 357.19Z" fill="{{earth_deep}}" opacity="0.85"/>
<path d="M309.04 354.04C306.78 374.66 303.39 390.13 304.52 405.59C305.95 392.13 309.28 376.66 311.54 355.04Z" fill="{{earth_deep}}" opacity="0.85"/>
</svg>
