<svg viewBox="0 0 512 384" xmlns="http://www.w3.org/2000/svg">
<path d="M87.81 264.06C88.61 252.35 83.89 245.33 82.89 240.65C83.89 247.67 89.61 257.03 90.61 264.06Z" fill="{{green_deep}}"/>
<path d="M89.41 264.06C90.61 257.52 89.37 253.6 89.03 250.98C90.03 254.91 91.88 260.13 92.21 264.06Z" fill="{{green_deep}}"/>
<path d="M91.01 264.06C92.61 253.94 95.78 247.88 96.11 243.83C97.11 249.9 94.14 257.99 93.81 264.06Z" fill="{{green_deep}}"/>
<path d="M92.61 264.06C94.61 253.3 101.14 246.85 102.14 242.55C103.14 249 96.41 257.6 95.41 264.06Z" fill="{{green_deep}}"/>
<path d="M147.2 267.39C148 256.57 143.18 250.08 142.18 245.76C143.18 252.25 149 260.9 150 267.39Z" fill="{{green_deep}}"/>
<path d="M149.6 267.39C151 260.57 152.75 256.47 152.75 253.74C153.75 257.84 152.4 263.3 152.4 267.39Z" fill="{{green_deep}}"/>
<path d="M152 267.39C154 261.32 159.85 257.68 160.85 255.26C161.85 258.9 155.8 263.75 154.8 267.39Z" fill="{{green_deep}}"/>
<path d="M217.46 264.53C218.26 254.63 214.49 248.69 213.49 244.73C214.49 250.67 219.26 258.59 220.26 264.53Z" fill="{{green_deep}}"/>
<path d="M219.06 264.53C220.26 256.69 217.65 251.99 217.31 248.85C218.31 253.56 221.53 259.83 221.86 264.53Z" fill="{{green_deep}}"/>
<path d="M220.66 264.53C222.26 255.51 222.65 250.1 222.98 246.5C223.98 251.91 223.8 259.12 223.46 264.53Z" fill="{{green_deep}}"/>
<path d="M222.26 264.53C224.26 254.44 227.49 248.39 228.49 244.36C229.49 250.41 226.06 258.48 225.06 264.53Z" fill="{{green_deep}}"/>
<path d="M282.85 262.66C283.65 256.7 279.91 253.12 278.91 250.74C279.91 254.31 284.65 259.08 285.65 262.66Z" fill="{{green_deep}}"/>
<path d="M284.05 262.66C285.15 253.93 283.05 248.69 282.55 245.2C283.55 250.43 286.35 257.42 286.85 262.66Z" fill="{{green_deep}}"/>
<path d="M285.25 262.66C286.65 256.77 287.41 253.25 287.41 250.89C288.41 254.42 288.05 259.13 288.05 262.66Z" fill="{{green_deep}}"/>
<path d="M286.45 262.66C288.15 255.31 291.52 250.9 292.02 247.97C293.02 252.37 289.75 258.25 289.25 262.66Z" fill="{{green_deep}}"/>
<path d="M287.65 262.66C289.65 255.52 292.68 251.24 293.68 248.39C294.68 252.67 291.45 258.38 290.45 262.66Z" fill="{{green_deep}}"/>
<path d="M357.71 259.43C358.51 251.58 353.69 246.87 352.69 243.73C353.69 248.44 359.51 254.72 360.51 259.43Z" fill="{{green_deep}}"/>
<path d="M360.11 259.43C361.51 250.79 359.73 245.61 359.73 242.16C360.73 247.34 362.91 254.25 362.91 259.43Z" fill="{{green_deep}}"/>
<path d="M362.51 259.43C364.51 252.21 367.95 247.88 368.95 244.99C369.95 249.33 366.31 255.1 365.31 259.43Z" fill="{{green_deep}}"/>
<path d="M420.29 268.49C421.09 261.03 418.19 256.55 417.19 253.56C418.19 258.04 422.09 264.01 423.09 268.49Z" fill="{{green_deep}}"/>
<path d="M421.49 268.49C422.59 259.32 418.79 253.82 418.29 250.15C419.29 255.65 423.79 262.99 424.29 268.49Z" fill="{{green_deep}}"/>
<path d="M422.69 268.49C424.09 260.05 424.96 254.98 424.96 251.6C425.96 256.67 425.49 263.42 425.49 268.49Z" fill="{{green_deep}}"/>
<path d="M423.89 268.49C425.59 262.96 425.71 259.64 426.21 257.42C427.21 260.74 427.19 265.17 426.69 268.49Z" fill="{{green_deep}}"/>
<path d="M425.09 268.49C427.09 258.87 430.82 253.1 431.82 249.26C432.82 255.03 428.89 262.72 427.89 268.49Z" fill="{{green_deep}}"/>
<rect x="334.62" y="258.01" width="2.2" height="5.46" rx="1.1" fill="{{sand}}"/>
<path d="M331.18 258.47C331.18 253.47 340.27 253.47 340.27 258.47Z" fill="{{accent_warm}}"/>
<rect x="386.99" y="265.91" width="2.2" height="3.79" rx="1.1" fill="{{sand}}"/>
<path d="M384.94 266.23C384.94 262.75 391.25 262.75 391.25 266.23Z" fill="{{earth_mid}}"/>
<rect x="286.51" y="265.28" width="2.2" height="3.7" rx="1.1" fill="{{sand}}"/>
<path d="M284.53 265.59C284.53 262.2 290.7 262.2 290.7 265.59Z" fill="{{accent_warm}}"/>
<rect x="343.13" y="259.08" width="2.2" height="4.01" rx="1.1" fill="{{sand}}"/>
<path d="M340.89 259.41C340.89 255.74 347.57 255.74 347.57 259.41Z" fill="{{earth_mid}}"/>
</svg>
