<svg viewBox="0 0 512 384" xmlns="http://www.w3.org/2000/svg">
<defs><linearGradient x1="0" y1="228" x2="0" y2="268" gradientUnits="userSpaceOnUse" id="woodland-mid-g0"><stop offset="0" stop-color="{{green_mid}}"/><stop offset="1" stop-color="{{green_deep}}"/></linearGradient><linearGradient x1="0" y1="166.25" x2="0" y2="248.4" gradientUnits="userSpaceOnUse" id="woodland-mid-g1"><stop offset="0" stop-color="{{green_mid}}"/><stop offset="1" stop-color="{{green_deep}}"/></linearGradient><linearGradient x1="0" y1="187.34" x2="0" y2="248.42" gradientUnits="userSpaceOnUse" id="woodland-mid-g2"><stop offset="0" stop-color="{{green_mid}}"/><stop offset="1" stop-color="{{green_deep}}"/></linearGradient><linearGradient x1="0" y1="178.49" x2="0" y2="240.9" gradientUnits="userSpaceOnUse" id="woodland-mid-g3"><stop offset="0" stop-color="{{green_mid}}"/><stop offset="1" stop-color="{{green_deep}}"/></linearGradient><linearGradient x1="0" y1="178.34" x2="0" y2="247.49" gradientUnits="userSpaceOnUse" id="woodland-mid-g4"><stop offset="0" stop-color="{{green_mid}}"/><stop offset="1" stop-color="{{green_deep}}"/></linearGradient><linearGradient x1="0" y1="185.61" x2="0" y2="248.53" gradientUnits="userSpaceOnUse" id="woodland-mid-g5"><stop offset="0" stop-color="{{green_mid}}"/><stop offset="1" stop-color="{{green_deep}}"/></linearGradient></defs>
<path d="M455.34 249.93C442.94 252.27 405.43 254.62 372.64 255.93C339.85 257.23 296.07 257.78 258.61 257.76C221.16 257.73 177.62 257.09 147.89 255.77C118.17 254.44 91.97 252.03 80.27 249.81C68.57 247.6 68.62 244.84 77.71 242.49C86.8 240.13 105.62 237.37 134.83 235.69C164.04 234.01 213.57 232.43 252.98 232.41C292.39 232.4 338.92 234.01 371.27 235.59C403.62 237.16 433.06 239.46 447.07 241.85C461.08 244.24 467.74 247.58 455.34 249.93Z" fill="url(#woodland-mid-g0)"/>
<path d="M168.48 212.33C166.85 221.19 163.86 228.26 157.23 236.04C150.6 243.83 140.89 256.34 128.7 259.04C116.51 261.74 95.01 257.77 84.1 252.27C73.2 246.77 68.01 235.3 63.28 226.04C58.56 216.78 51.52 204.71 55.75 196.69C59.97 188.67 76.59 182.68 88.64 177.9C100.7 173.13 115.03 167.21 128.09 168.04C141.15 168.86 160.29 175.47 167.02 182.85C173.75 190.23 170.11 203.46 168.48 212.33Z" fill="{{green_deep}}" opacity="0.72"/>
<path d="M167.77 207.33C166.21 215.8 158.88 223.29 151.42 229.98C143.97 236.67 134.8 244.76 123.05 247.47C111.3 250.19 92.79 250.36 80.93 246.27C69.07 242.17 55.02 231.57 51.92 222.92C48.81 214.28 57.18 203.11 62.32 194.39C67.46 185.67 72.61 175.3 82.77 170.62C92.93 165.95 110.26 164.9 123.26 166.33C136.26 167.75 153.36 172.34 160.78 179.17C168.2 186 169.33 198.86 167.77 207.33Z" fill="url(#woodland-mid-g1)" opacity="0.9"/>
<path d="M129.43 190.9C129.49 195.37 121.69 202.23 115.69 204.48C109.69 206.72 99.91 205.53 93.41 204.36C86.91 203.18 79.22 200.66 76.68 197.4C74.14 194.15 75.4 188.19 78.18 184.84C80.96 181.5 87.18 178.52 93.36 177.32C99.55 176.11 109.29 175.36 115.3 177.63C121.31 179.89 129.36 186.42 129.43 190.9Z" fill="{{glow}}" opacity="0.14"/>
<path d="M259.71 222.88C260.16 230.26 263.77 241.06 256.17 245.62C248.57 250.18 227.41 249.66 214.12 250.24C200.84 250.81 187.3 251.84 176.48 249.07C165.66 246.31 153.23 239.71 149.19 233.65C145.15 227.58 147.24 218.45 152.23 212.7C157.22 206.94 168.73 202.25 179.14 199.12C189.54 195.99 202.27 193.55 214.66 193.92C227.04 194.29 245.95 196.51 253.46 201.34C260.97 206.17 259.25 215.5 259.71 222.88Z" fill="{{green_deep}}" opacity="0.72"/>
<path d="M256.26 217.88C256.71 223.75 249.68 231.67 241.94 236.07C234.2 240.48 220.74 243.59 209.82 244.32C198.89 245.05 185.33 243.44 176.4 240.47C167.48 237.5 161.99 232.17 156.28 226.51C150.56 220.85 140.02 212.87 142.13 206.52C144.23 200.17 157.53 191.15 168.89 188.39C180.26 185.63 198.57 187.9 210.3 189.98C222.03 192.06 231.62 196.22 239.28 200.86C246.94 205.51 255.82 212.01 256.26 217.88Z" fill="url(#woodland-mid-g2)" opacity="0.9"/>
<path d="M214.99 205.66C214.85 208.47 206.32 211.63 200.51 213.87C194.69 216.11 186.99 219.45 180.09 219.12C173.19 218.79 161.69 214.98 159.1 211.9C156.5 208.82 160.86 203.61 164.52 200.65C168.17 197.69 174.89 194.74 181.02 194.13C187.15 193.52 195.63 195.07 201.29 196.99C206.96 198.91 215.12 202.85 214.99 205.66Z" fill="{{glow}}" opacity="0.14"/>
<path d="M315.24 214.7C315.34 221.05 302.66 228.89 294.04 233.88C285.42 238.87 274.94 243.04 263.52 244.64C252.1 246.24 236.43 246.51 225.51 243.49C214.6 240.47 202.99 233.36 198.02 226.51C193.06 219.66 190.21 208.25 195.7 202.39C201.19 196.54 219.63 194.47 230.98 191.36C242.34 188.26 253.41 183.03 263.83 183.77C274.24 184.5 284.92 190.62 293.49 195.78C302.06 200.93 315.15 208.35 315.24 214.7Z" fill="{{green_deep}}" opacity="0.72"/>
<path d="M304.84 209.7C305.49 216.07 299.52 225.08 291.88 229.77C284.23 234.45 269.58 237.45 258.96 237.8C248.34 238.15 236.95 235.01 228.14 231.87C219.34 228.73 212.01 224.68 206.13 218.97C200.24 213.27 190.59 204.31 192.82 197.63C195.05 190.95 208.33 182.05 219.5 178.9C230.67 175.75 248.43 176.61 259.84 178.71C271.26 180.81 280.47 186.35 287.97 191.51C295.47 196.68 304.19 203.32 304.84 209.7Z" fill="url(#woodland-mid-g3)" opacity="0.9"/>
<path d="M260.08 197.22C259.57 200.27 254.33 203.42 249.57 205.4C244.81 207.38 237.67 209.46 231.53 209.09C225.39 208.71 215.89 206.13 212.73 203.16C209.56 200.18 209.52 194.44 212.54 191.23C215.56 188.01 224.19 184.56 230.87 183.86C237.55 183.17 247.76 184.84 252.63 187.06C257.5 189.29 260.59 194.16 260.08 197.22Z" fill="{{glow}}" opacity="0.14"/>
<path d="M376.69 217.92C375.3 225.21 364.48 230.8 357.43 237.31C350.39 243.81 344.12 255.03 334.43 256.97C324.73 258.91 309.7 253.17 299.27 248.93C288.83 244.68 276.21 238.86 271.81 231.48C267.41 224.1 267.72 211.37 272.86 204.63C277.99 197.88 292.63 194.22 302.62 191.01C312.61 187.79 322.28 184.91 332.81 185.34C343.34 185.77 358.48 188.15 365.8 193.58C373.11 199.01 378.09 210.63 376.69 217.92Z" fill="{{green_deep}}" opacity="0.72"/>
<path d="M370.71 212.92C369.11 220.4 360.49 225.96 353.78 232.51C347.08 239.07 339.57 251.16 330.49 252.23C321.42 253.31 308.24 243.64 299.34 238.95C290.44 234.26 281.11 230.38 277.1 224.1C273.09 217.82 272.74 208.89 275.29 201.28C277.84 193.66 283.42 182.17 292.4 178.42C301.39 174.67 317.37 177.24 329.2 178.77C341.03 180.31 356.48 181.95 363.39 187.64C370.31 193.33 372.31 205.44 370.71 212.92Z" fill="url(#woodland-mid-g4)" opacity="0.9"/>
<path d="M334.84 199.09C334.96 202.97 328.73 208.9 323.56 211.01C318.39 213.11 309.13 212.83 303.81 211.69C298.49 210.55 293.78 207.12 291.64 204.15C289.51 201.17 289.14 197.21 291.01 193.84C292.88 190.47 297.58 184.95 302.88 183.94C308.18 182.92 317.51 185.22 322.84 187.74C328.16 190.27 334.71 195.21 334.84 199.09Z" fill="{{glow}}" opacity="0.14"/>
<path d="M437.64 222.07C437.43 228.89 436.62 237.74 429.64 242.23C422.65 246.72 407.04 248.18 395.72 249.03C384.39 249.87 370.62 250.24 361.7 247.3C352.78 244.37 347.08 237.5 342.21 231.4C337.35 225.31 329.01 216.25 332.51 210.74C336 205.22 352.38 201.75 363.18 198.3C373.98 194.84 386.02 189.5 397.3 190.01C408.59 190.51 424.16 195.98 430.88 201.32C437.61 206.67 437.85 215.26 437.64 222.07Z" fill="{{green_deep}}" opacity="0.72"/>
<path d="M442.53 217.07C441.84 224.5 436.12 232.73 428.01 238.36C419.89 243.98 406.2 249.52 393.83 250.83C381.45 252.13 363.3 250.2 353.76 246.18C344.22 242.17 339.74 233.26 336.59 226.74C333.45 220.22 332.41 213.91 334.86 207.05C337.32 200.19 341.81 188.51 351.32 185.57C360.84 182.63 378.46 188.03 391.94 189.4C405.41 190.77 423.74 189.19 432.17 193.81C440.6 198.42 443.23 209.65 442.53 217.07Z" fill="url(#woodland-mid-g5)" opacity="0.9"/>
<path d="M389.58 204.49C389.05 207.72 387.42 211.24 383.21 213.17C378.99 215.09 370.75 216.45 364.29 216.02C357.83 215.59 347.65 213.49 344.45 210.58C341.26 207.67 342.01 201.93 345.13 198.56C348.24 195.2 356.26 191.2 363.13 190.41C370.01 189.62 381.96 191.47 386.37 193.81C390.77 196.16 390.11 201.26 389.58 204.49Z" fill="{{glow}}" opacity="0.14"/>
</svg>
